<svg xmlns="http://www.w3.org/2000/svg" xmlns:xlink="http://www.w3.org/1999/xlink" width="323" zoomAndPan="magnify" viewBox="0 0 242.25 74.999997" height="100" preserveAspectRatio="xMidYMid meet" version="1.0"><defs><g/><clipPath id="id1"><path d="M 0 0.117188 L 241.503906 0.117188 L 241.503906 74.882812 L 0 74.882812 Z M 0 0.117188 " clip-rule="nonzero"/></clipPath></defs><g clip-path="url(#id1)"><path fill="rgb(27.839661%, 20.779419%, 22.749329%)" d="M 235.214844 55.65625 L 235.558594 55.058594 L 235.660156 55.65625 Z M 234.996094 55.65625 L 234.605469 54.976562 L 234.605469 54.96875 L 234.757812 54.96875 L 235.074219 55.515625 L 235.390625 54.96875 L 235.542969 54.96875 L 235.546875 54.976562 L 235.152344 55.65625 Z M 234.488281 55.65625 L 234.589844 55.058594 L 234.933594 55.65625 Z M 234.683594 54.53125 L 234.683594 54.890625 L 234.621094 54.890625 L 234.621094 54.882812 L 234.640625 54.761719 L 234.65625 54.679688 L 234.671875 54.582031 Z M 234.382812 54.890625 L 234.382812 54.160156 L 234.683594 54.160156 L 234.683594 54.191406 L 234.625 54.53125 L 234.609375 54.609375 L 234.601562 54.691406 L 234.5625 54.882812 L 234.5625 54.890625 Z M 235.332031 54.96875 L 235.074219 55.410156 L 234.820312 54.96875 Z M 234.738281 54.191406 L 235.410156 54.191406 L 235.414062 54.195312 L 235.414062 54.890625 L 234.738281 54.890625 Z M 235.464844 54.507812 L 235.472656 54.53125 L 235.476562 54.582031 L 235.496094 54.679688 L 235.507812 54.761719 L 235.527344 54.882812 L 235.53125 54.890625 L 235.464844 54.890625 Z M 235.464844 54.160156 L 235.765625 54.160156 L 235.765625 54.890625 L 235.585938 54.890625 L 235.585938 54.882812 L 235.546875 54.691406 L 235.539062 54.609375 L 235.53125 54.582031 L 235.523438 54.53125 L 235.464844 54.195312 Z M 220.925781 57.050781 L 220.347656 57.050781 L 220.347656 55.878906 L 220.925781 55.878906 Z M 219.570312 57.050781 L 218.996094 57.050781 L 218.996094 55.878906 L 219.570312 55.878906 Z M 218.214844 57.050781 L 217.640625 57.050781 L 217.640625 55.878906 L 218.214844 55.878906 Z M 216.863281 57.050781 L 216.285156 57.050781 L 216.285156 55.878906 L 216.863281 55.878906 Z M 214.761719 57.050781 L 213.65625 57.050781 L 213.65625 55.878906 L 214.761719 55.878906 Z M 211.070312 61.734375 L 210.054688 61.734375 L 210.054688 59.75 L 211.070312 59.75 Z M 209.925781 45.296875 L 209.9375 45.285156 L 210.167969 45.53125 L 209.925781 45.53125 Z M 209.925781 44.992188 L 209.9375 44.976562 L 210.378906 45.5 L 210.382812 45.507812 L 210.390625 45.507812 L 210.40625 45.527344 L 210.40625 45.53125 L 210.25 45.53125 L 209.9375 45.191406 L 209.925781 45.207031 Z M 209.925781 44.660156 L 209.9375 44.671875 L 210.199219 44.386719 L 210.359375 44.386719 L 209.9375 44.882812 L 209.925781 44.867188 Z M 209.925781 44.386719 L 210.117188 44.386719 L 209.9375 44.582031 L 209.925781 44.570312 Z M 210.40625 44.671875 L 210.40625 45.148438 C 210.3125 45.125 210.246094 45.027344 210.246094 44.910156 C 210.246094 44.792969 210.3125 44.691406 210.40625 44.671875 Z M 210.40625 44.421875 L 210.40625 44.617188 C 210.277344 44.636719 210.179688 44.761719 210.179688 44.910156 C 210.179688 45.058594 210.277344 45.183594 210.40625 45.199219 L 210.40625 45.433594 L 209.976562 44.929688 Z M 210.464844 45.496094 L 211 44.972656 L 211.570312 45.527344 L 211.570312 45.53125 L 211.363281 45.53125 L 211.007812 45.191406 L 210.652344 45.53125 L 210.464844 45.53125 Z M 210.464844 45.199219 C 210.59375 45.183594 210.6875 45.058594 210.6875 44.910156 C 210.6875 44.761719 210.59375 44.636719 210.464844 44.617188 L 210.464844 44.441406 L 210.960938 44.929688 L 210.464844 45.414062 Z M 210.464844 44.671875 C 210.554688 44.691406 210.628906 44.792969 210.628906 44.910156 C 210.628906 45.027344 210.554688 45.125 210.464844 45.148438 Z M 210.710938 44.386719 L 211.007812 44.671875 L 211.308594 44.386719 L 211.511719 44.386719 L 211 44.890625 L 210.492188 44.386719 Z M 211.226562 44.386719 L 211.007812 44.589844 L 210.792969 44.386719 Z M 211.570312 44.617188 C 211.425781 44.636719 211.316406 44.753906 211.316406 44.910156 C 211.316406 45.058594 211.425781 45.183594 211.570312 45.199219 L 211.570312 45.445312 L 211.042969 44.929688 L 211.570312 44.410156 Z M 211.570312 45.148438 C 211.464844 45.125 211.378906 45.027344 211.378906 44.910156 C 211.378906 44.789062 211.464844 44.6875 211.570312 44.671875 Z M 210.734375 45.53125 L 211.007812 45.277344 L 211.273438 45.53125 Z M 209.632812 61.734375 L 208.617188 61.734375 L 208.617188 59.75 L 209.632812 59.75 Z M 208.421875 41.613281 L 209.125 41.613281 L 209.125 43.953125 L 208.421875 43.953125 Z M 208.195312 61.734375 L 207.183594 61.734375 L 207.183594 59.75 L 208.195312 59.75 Z M 205.96875 41.613281 L 207.378906 41.613281 L 207.378906 43.953125 L 205.96875 43.953125 Z M 206.636719 34.140625 L 206.261719 34.140625 L 206.449219 33.894531 Z M 206.253906 33.871094 L 206.449219 33.585938 L 206.8125 34.109375 L 206.816406 34.117188 L 206.832031 34.136719 L 206.832031 34.140625 L 206.703125 34.140625 L 206.449219 33.800781 L 206.253906 34.066406 Z M 206.253906 33.304688 L 206.417969 33.539062 L 206.253906 33.777344 Z M 206.253906 33.019531 L 206.449219 33.285156 L 206.667969 32.996094 L 206.789062 32.996094 L 206.449219 33.496094 L 206.253906 33.210938 Z M 206.601562 32.996094 L 206.449219 33.195312 L 206.300781 32.996094 Z M 206.832031 33.285156 L 206.832031 33.753906 C 206.761719 33.734375 206.703125 33.636719 206.703125 33.519531 C 206.703125 33.402344 206.761719 33.304688 206.832031 33.285156 Z M 206.648438 33.519531 C 206.648438 33.667969 206.730469 33.792969 206.832031 33.808594 L 206.832031 34.046875 L 206.480469 33.539062 L 206.832031 33.035156 L 206.832031 33.230469 C 206.730469 33.246094 206.648438 33.371094 206.648438 33.519531 Z M 206.882812 34.105469 L 207.320312 33.582031 L 207.789062 34.136719 L 207.789062 34.140625 L 207.613281 34.140625 L 207.328125 33.800781 L 207.035156 34.140625 L 206.882812 34.140625 Z M 206.882812 33.808594 C 206.988281 33.792969 207.070312 33.667969 207.070312 33.519531 C 207.070312 33.371094 206.988281 33.246094 206.882812 33.230469 L 206.882812 33.050781 L 207.289062 33.539062 L 206.882812 34.023438 Z M 206.882812 33.285156 C 206.953125 33.304688 207.011719 33.402344 207.011719 33.519531 C 207.011719 33.636719 206.953125 33.734375 206.882812 33.753906 Z M 207.078125 32.996094 L 207.328125 33.285156 L 207.574219 32.996094 L 207.742188 32.996094 L 207.320312 33.5 L 206.90625 32.996094 Z M 207.503906 32.996094 L 207.328125 33.203125 L 207.152344 32.996094 Z M 207.789062 33.019531 L 207.789062 33.226562 C 207.671875 33.246094 207.578125 33.371094 207.578125 33.519531 C 207.578125 33.667969 207.671875 33.792969 207.789062 33.808594 L 207.789062 34.054688 L 207.355469 33.539062 Z M 207.789062 33.753906 C 207.703125 33.742188 207.628906 33.636719 207.628906 33.519531 C 207.628906 33.402344 207.703125 33.296875 207.789062 33.285156 Z M 207.105469 34.140625 L 207.328125 33.882812 L 207.546875 34.140625 Z M 204.453125 43.953125 L 203.046875 43.953125 L 203.046875 41.613281 L 204.453125 41.613281 Z M 202.816406 34.140625 L 203.035156 33.882812 L 203.257812 34.140625 Z M 202.585938 34.140625 L 202.589844 34.136719 L 203.035156 33.582031 L 203.484375 34.136719 L 203.484375 34.140625 L 203.328125 34.140625 L 203.035156 33.800781 L 202.742188 34.140625 Z M 202.578125 33.808594 C 202.585938 33.808594 202.585938 33.808594 202.589844 33.808594 C 202.707031 33.792969 202.800781 33.667969 202.800781 33.519531 C 202.800781 33.371094 202.707031 33.246094 202.589844 33.226562 L 202.589844 33.027344 L 203 33.539062 L 202.589844 34.054688 L 202.578125 34.066406 Z M 202.589844 33.285156 C 202.675781 33.296875 202.75 33.394531 202.75 33.519531 C 202.75 33.636719 202.675781 33.742188 202.589844 33.753906 Z M 202.789062 32.996094 L 203.035156 33.285156 L 203.285156 32.996094 L 203.4375 32.996094 L 203.035156 33.5 L 202.632812 32.996094 Z M 203.210938 32.996094 L 203.035156 33.203125 L 202.863281 32.996094 Z M 203.484375 33.285156 L 203.484375 33.753906 C 203.40625 33.734375 203.355469 33.636719 203.355469 33.519531 C 203.355469 33.402344 203.40625 33.304688 203.484375 33.285156 Z M 203.484375 33.027344 L 203.484375 33.230469 C 203.382812 33.246094 203.300781 33.371094 203.300781 33.519531 C 203.300781 33.667969 203.382812 33.792969 203.484375 33.808594 L 203.484375 34.054688 L 203.070312 33.539062 Z M 204.113281 34.128906 L 204.113281 34.140625 L 203.753906 34.140625 L 203.9375 33.894531 Z M 203.535156 34.136719 L 203.9375 33.585938 L 204.113281 33.824219 L 204.113281 34.039062 L 203.9375 33.800781 L 203.6875 34.140625 L 203.535156 34.140625 Z M 203.535156 33.808594 C 203.640625 33.792969 203.714844 33.667969 203.714844 33.519531 C 203.714844 33.371094 203.640625 33.246094 203.535156 33.230469 L 203.535156 33.03125 L 203.90625 33.539062 L 203.535156 34.050781 Z M 203.535156 33.285156 C 203.609375 33.304688 203.664062 33.402344 203.664062 33.519531 C 203.664062 33.636719 203.609375 33.734375 203.535156 33.753906 Z M 204.113281 33.347656 L 204.113281 33.734375 L 203.972656 33.539062 Z M 203.722656 32.996094 L 203.9375 33.285156 L 204.113281 33.050781 L 204.113281 33.25 L 203.9375 33.496094 L 203.578125 32.996094 Z M 204.085938 32.996094 L 203.9375 33.195312 L 203.789062 32.996094 Z M 202.003906 43.953125 L 201.296875 43.953125 L 201.296875 41.613281 L 202.003906 41.613281 Z M 200.441406 44.570312 L 200.277344 44.386719 L 200.441406 44.386719 Z M 200.441406 44.867188 L 200.015625 44.386719 L 200.195312 44.386719 L 200.441406 44.660156 Z M 200.441406 45.207031 L 200.140625 45.53125 L 199.964844 45.53125 L 199.964844 45.527344 L 200.441406 44.988281 Z M 200.441406 45.53125 L 200.226562 45.53125 L 200.441406 45.300781 Z M 200.230469 61.734375 L 199.21875 61.734375 L 199.21875 59.75 L 200.230469 59.75 Z M 198.796875 61.734375 L 197.777344 61.734375 L 197.777344 59.75 L 198.796875 59.75 Z M 197.363281 61.734375 L 196.34375 61.734375 L 196.34375 59.75 L 197.363281 59.75 Z M 199.082031 45.53125 L 199.355469 45.277344 L 199.625 45.53125 Z M 198.800781 45.53125 L 198.804688 45.527344 L 199.351562 44.972656 L 199.902344 45.527344 L 199.902344 45.53125 L 199.707031 45.53125 L 199.355469 45.191406 L 199 45.53125 Z M 198.796875 45.199219 C 198.800781 45.199219 198.804688 45.199219 198.804688 45.199219 C 198.953125 45.183594 199.066406 45.058594 199.066406 44.910156 C 199.066406 44.753906 198.953125 44.632812 198.804688 44.617188 L 198.804688 44.414062 L 199.308594 44.929688 L 198.804688 45.445312 L 198.796875 45.453125 Z M 198.804688 44.671875 C 198.917969 44.6875 199 44.789062 199 44.910156 C 199 45.027344 198.917969 45.132812 198.804688 45.148438 Z M 199.050781 44.386719 L 199.355469 44.671875 L 199.652344 44.386719 L 199.84375 44.386719 L 199.355469 44.882812 L 198.859375 44.386719 Z M 199.566406 44.386719 L 199.355469 44.589844 L 199.140625 44.386719 Z M 199.902344 44.671875 L 199.902344 45.148438 C 199.808594 45.125 199.742188 45.027344 199.742188 44.910156 C 199.742188 44.792969 199.808594 44.691406 199.902344 44.671875 Z M 199.902344 44.410156 L 199.902344 44.617188 C 199.773438 44.636719 199.679688 44.761719 199.679688 44.910156 C 199.679688 45.058594 199.773438 45.183594 199.902344 45.199219 L 199.902344 45.445312 L 199.394531 44.929688 Z M 199.964844 45.199219 C 200.09375 45.183594 200.183594 45.058594 200.183594 44.910156 C 200.183594 44.761719 200.09375 44.636719 199.964844 44.617188 L 199.964844 44.421875 L 200.417969 44.929688 L 199.964844 45.441406 Z M 199.964844 44.671875 C 200.054688 44.691406 200.121094 44.792969 200.121094 44.910156 C 200.121094 45.027344 200.054688 45.125 199.964844 45.148438 Z M 185.796875 50.730469 L 183.398438 50.730469 L 183.398438 46.140625 C 183.398438 45.480469 183.933594 44.941406 184.597656 44.941406 C 185.261719 44.941406 185.796875 45.480469 185.796875 46.140625 Z M 181.015625 50.730469 L 178.617188 50.730469 L 178.617188 46.140625 C 178.617188 45.480469 179.15625 44.941406 179.816406 44.941406 C 180.480469 44.941406 181.015625 45.480469 181.015625 46.140625 Z M 176.507812 50.730469 L 174.109375 50.730469 L 174.109375 46.140625 C 174.109375 45.480469 174.644531 44.941406 175.3125 44.941406 C 175.972656 44.941406 176.507812 45.480469 176.507812 46.140625 Z M 167.148438 55 L 165.890625 55 L 165.890625 53.164062 C 165.890625 52.816406 166.175781 52.542969 166.519531 52.542969 C 166.863281 52.542969 167.148438 52.816406 167.148438 53.164062 Z M 165.15625 55 L 163.902344 55 L 163.902344 53.164062 C 163.902344 52.816406 164.179688 52.542969 164.527344 52.542969 C 164.871094 52.542969 165.15625 52.816406 165.15625 53.164062 Z M 163.160156 55 L 161.90625 55 L 161.90625 53.164062 C 161.90625 52.816406 162.183594 52.542969 162.535156 52.542969 C 162.878906 52.542969 163.160156 52.816406 163.160156 53.164062 Z M 160.34375 55 L 159.085938 55 L 159.085938 53.164062 C 159.085938 52.816406 159.363281 52.542969 159.714844 52.542969 C 160.058594 52.542969 160.34375 52.816406 160.34375 53.164062 Z M 158.34375 55 L 157.09375 55 L 157.09375 53.164062 C 157.09375 52.816406 157.371094 52.542969 157.722656 52.542969 C 158.066406 52.542969 158.34375 52.816406 158.34375 53.164062 Z M 156.351562 55 L 155.101562 55 L 155.101562 53.164062 C 155.101562 52.816406 155.378906 52.542969 155.722656 52.542969 C 156.074219 52.542969 156.351562 52.816406 156.351562 53.164062 Z M 153.523438 55 L 152.273438 55 L 152.273438 53.164062 C 152.273438 52.816406 152.550781 52.542969 152.898438 52.542969 C 153.246094 52.542969 153.523438 52.816406 153.523438 53.164062 Z M 151.53125 55 L 150.28125 55 L 150.28125 53.164062 C 150.28125 52.816406 150.558594 52.542969 150.902344 52.542969 C 151.253906 52.542969 151.53125 52.816406 151.53125 53.164062 Z M 149.539062 55 L 148.28125 55 L 148.28125 53.164062 C 148.28125 52.816406 148.566406 52.542969 148.910156 52.542969 C 149.257812 52.542969 149.539062 52.816406 149.539062 53.164062 Z M 144.953125 38.269531 L 144.320312 38.269531 L 144.320312 37.234375 C 144.320312 37.097656 144.378906 36.976562 144.472656 36.902344 L 144.636719 36.769531 L 144.804688 36.902344 C 144.894531 36.976562 144.953125 37.097656 144.953125 37.234375 Z M 142.589844 38.269531 L 141.847656 38.269531 L 141.847656 37.234375 C 141.847656 37.097656 141.914062 36.976562 142.019531 36.902344 L 142.214844 36.769531 L 142.40625 36.902344 C 142.519531 36.976562 142.589844 37.097656 142.589844 37.234375 Z M 142.046875 45.042969 L 140.449219 45.042969 L 140.449219 43.324219 C 140.449219 42.882812 140.804688 42.53125 141.25 42.53125 C 141.6875 42.53125 142.046875 42.882812 142.046875 43.324219 Z M 139.667969 32.980469 L 138.359375 32.980469 L 138.359375 30.90625 C 138.359375 30.546875 138.65625 30.253906 139.015625 30.253906 C 139.375 30.253906 139.667969 30.546875 139.667969 30.90625 Z M 139.511719 38.269531 L 138.773438 38.269531 L 138.773438 37.234375 C 138.773438 37.097656 138.839844 36.976562 138.949219 36.902344 L 139.144531 36.769531 L 139.335938 36.902344 C 139.445312 36.976562 139.511719 37.097656 139.511719 37.234375 Z M 138.386719 25.054688 C 138.386719 24.710938 138.671875 24.425781 139.015625 24.425781 C 139.359375 24.425781 139.640625 24.710938 139.640625 25.054688 L 139.640625 26.527344 C 139.640625 26.535156 139.632812 26.546875 139.628906 26.546875 L 138.40625 26.546875 C 138.398438 26.546875 138.386719 26.535156 138.386719 26.527344 Z M 141.304688 25.058594 C 141.304688 24.789062 141.527344 24.566406 141.800781 24.566406 C 142.074219 24.566406 142.292969 24.789062 142.292969 25.058594 L 142.292969 26.546875 L 141.304688 26.546875 Z M 142.480469 30.855469 L 142.480469 33.03125 L 141.386719 33.03125 L 141.386719 30.855469 C 141.386719 30.550781 141.636719 30.3125 141.933594 30.3125 C 142.234375 30.3125 142.480469 30.550781 142.480469 30.855469 Z M 136.53125 32.980469 L 135.226562 32.980469 L 135.226562 30.90625 C 135.226562 30.546875 135.519531 30.253906 135.878906 30.253906 C 136.238281 30.253906 136.53125 30.546875 136.53125 30.90625 Z M 135.925781 38.269531 L 135.183594 38.269531 L 135.183594 37.234375 C 135.183594 37.097656 135.25 36.976562 135.359375 36.902344 L 135.554688 36.769531 L 135.75 36.902344 C 135.859375 36.976562 135.925781 37.097656 135.925781 37.234375 Z M 134.246094 45.042969 L 132.652344 45.042969 L 132.652344 43.324219 C 132.652344 43.074219 132.769531 42.851562 132.949219 42.707031 C 132.949219 42.707031 132.96875 42.6875 133 42.667969 C 133.128906 42.578125 133.285156 42.53125 133.449219 42.53125 C 133.890625 42.53125 134.246094 42.882812 134.246094 43.324219 Z M 132.109375 38.269531 L 132.109375 37.234375 C 132.109375 37.097656 132.175781 36.976562 132.285156 36.902344 L 132.480469 36.769531 L 132.675781 36.902344 C 132.785156 36.976562 132.851562 37.097656 132.851562 37.234375 L 132.851562 38.269531 Z M 132.363281 25.058594 C 132.363281 24.789062 132.585938 24.566406 132.855469 24.566406 C 133.128906 24.566406 133.351562 24.789062 133.351562 25.058594 L 133.351562 26.546875 L 132.363281 26.546875 Z M 133.503906 30.855469 L 133.503906 33.03125 L 132.417969 33.03125 L 132.417969 30.855469 C 132.417969 30.550781 132.660156 30.3125 132.964844 30.3125 C 133.265625 30.3125 133.503906 30.550781 133.503906 30.855469 Z M 135.1875 25.054688 C 135.1875 24.710938 135.472656 24.425781 135.816406 24.425781 C 136.164062 24.425781 136.445312 24.710938 136.445312 25.054688 L 136.445312 26.527344 C 136.445312 26.535156 136.4375 26.546875 136.429688 26.546875 L 135.207031 26.546875 C 135.199219 26.546875 135.1875 26.535156 135.1875 26.527344 Z M 130.375 38.269531 L 129.746094 38.269531 L 129.746094 37.234375 C 129.746094 37.097656 129.800781 36.976562 129.894531 36.902344 L 130.058594 36.769531 L 130.226562 36.902344 C 130.316406 36.976562 130.375 37.097656 130.375 37.234375 Z M 129.296875 45.839844 C 126.933594 43.816406 123.796875 41.089844 120.101562 37.808594 L 120.042969 32.652344 C 123.503906 35.546875 126.785156 38.101562 129.296875 40.003906 Z M 129.296875 55.585938 C 126.140625 54.910156 123.140625 54.332031 120.304688 53.832031 L 120.101562 37.890625 C 123.796875 41.175781 126.941406 43.902344 129.296875 45.921875 Z M 129.296875 62.816406 C 126.414062 61.664062 123.417969 60.710938 120.378906 59.921875 L 120.320312 55.332031 C 123.945312 56.03125 127.054688 56.707031 129.296875 57.222656 Z M 119.066406 36.882812 C 118.480469 36.359375 117.878906 35.820312 117.265625 35.269531 C 117.671875 34.789062 118.03125 34.359375 118.347656 33.976562 L 119.066406 33.976562 Z M 119.066406 42.992188 L 114.519531 42.992188 L 114.464844 38.421875 C 115.515625 37.289062 116.449219 36.222656 117.222656 35.316406 C 117.851562 35.882812 118.464844 36.429688 119.066406 36.964844 Z M 119.066406 53.621094 C 117.546875 53.363281 116.070312 53.132812 114.644531 52.917969 L 114.546875 44.710938 L 119.066406 44.710938 Z M 119.066406 55.128906 L 114.675781 55.128906 L 114.664062 54.300781 C 116.183594 54.5625 117.65625 54.828125 119.066406 55.09375 Z M 119.066406 59.589844 C 117.621094 59.234375 116.167969 58.921875 114.714844 58.636719 L 114.695312 57.046875 L 119.066406 57.046875 Z M 115.734375 33.976562 C 116.226562 34.414062 116.703125 34.851562 117.175781 35.273438 C 116.414062 36.175781 115.5 37.214844 114.464844 38.332031 L 114.410156 33.976562 Z M 118.269531 33.976562 C 117.960938 34.347656 117.609375 34.769531 117.21875 35.226562 C 116.761719 34.816406 116.296875 34.398438 115.828125 33.976562 Z M 113.425781 39.445312 C 112.535156 40.375 111.574219 41.335938 110.578125 42.28125 C 107.574219 45.132812 104.757812 47.324219 102.199219 48.808594 C 99.761719 50.222656 97.5625 50.988281 95.625 51.101562 C 95.128906 51.082031 94.652344 51.070312 94.1875 51.054688 C 94.085938 51.042969 93.988281 51.027344 93.894531 51.015625 C 93.652344 50.976562 93.417969 50.921875 93.195312 50.859375 C 95.144531 50.792969 97.335938 49.929688 99.71875 48.289062 C 101.902344 46.785156 104.25 44.632812 106.695312 41.882812 C 109.855469 38.328125 112.378906 34.683594 113.425781 33.109375 Z M 113.425781 52.742188 C 106.503906 51.757812 100.734375 51.296875 96.132812 51.117188 C 97.957031 50.910156 99.996094 50.160156 102.230469 48.863281 C 104.792969 47.378906 107.617188 45.175781 110.617188 42.328125 C 111.601562 41.394531 112.542969 40.445312 113.425781 39.53125 Z M 113.425781 58.390625 C 103.609375 56.59375 94.058594 56.25 87.503906 56.300781 L 87.460938 51.859375 C 95.273438 51.53125 104.976562 52.691406 113.425781 54.09375 Z M 87.421875 48 C 87.734375 48.390625 88.066406 48.738281 88.398438 49.042969 C 89.566406 50.109375 90.898438 50.710938 92.34375 50.839844 C 92.554688 50.859375 92.773438 50.863281 92.988281 50.863281 C 93.222656 50.9375 93.472656 51 93.71875 51.042969 C 91.203125 50.992188 89.117188 51.027344 87.457031 51.097656 Z M 90.074219 49.054688 C 90.878906 49.867188 91.789062 50.453125 92.796875 50.804688 C 92.644531 50.796875 92.5 50.789062 92.351562 50.777344 C 90.476562 50.613281 88.828125 49.648438 87.421875 47.898438 L 87.386719 44.535156 C 88.101562 46.445312 89.007812 47.96875 90.074219 49.054688 Z M 87.019531 44.8125 C 86.917969 45.285156 86.753906 45.910156 86.503906 46.585938 C 86.117188 45.957031 85.753906 45.265625 85.414062 44.496094 L 87.019531 44.496094 Z M 87.019531 47.367188 C 86.855469 47.140625 86.703125 46.902344 86.546875 46.652344 C 86.757812 46.074219 86.910156 45.527344 87.019531 45.085938 Z M 87.019531 47.820312 L 86.035156 47.820312 C 86.132812 47.628906 86.226562 47.429688 86.316406 47.21875 C 86.386719 47.054688 86.453125 46.890625 86.515625 46.726562 C 86.679688 46.988281 86.851562 47.238281 87.019531 47.476562 Z M 87.019531 51.117188 C 86.40625 51.144531 85.859375 51.171875 85.378906 51.210938 L 85.355469 48.976562 C 85.472656 48.808594 85.582031 48.632812 85.691406 48.453125 L 87.019531 48.453125 Z M 87.019531 52.277344 L 85.390625 52.277344 L 85.386719 51.980469 C 85.921875 51.9375 86.464844 51.90625 87.019531 51.878906 Z M 87.019531 56.304688 C 86.464844 56.308594 85.929688 56.320312 85.425781 56.332031 L 85.398438 52.917969 L 87.019531 52.917969 Z M 85.621094 48.453125 C 85.539062 48.59375 85.449219 48.730469 85.355469 48.863281 L 85.351562 48.453125 Z M 85.300781 44.496094 L 85.347656 44.496094 C 85.695312 45.289062 86.074219 46.011719 86.472656 46.664062 C 86.40625 46.839844 86.339844 47.019531 86.257812 47.199219 C 86.175781 47.398438 86.078125 47.609375 85.96875 47.820312 L 85.34375 47.820312 Z M 84.941406 49.429688 C 84.289062 50.222656 83.449219 50.9375 82.367188 51.355469 C 82.328125 51.363281 82.292969 51.375 82.257812 51.390625 L 82.257812 50.453125 C 82.292969 50.433594 82.328125 50.410156 82.367188 50.390625 C 82.554688 50.261719 82.734375 50.125 82.910156 49.976562 C 83.636719 49.34375 84.199219 48.488281 84.582031 47.445312 C 84.738281 47.023438 84.851562 46.601562 84.941406 46.210938 Z M 84.941406 51.238281 C 83.855469 51.320312 82.824219 51.542969 82.367188 51.652344 C 82.324219 51.660156 82.289062 51.667969 82.257812 51.675781 L 82.257812 51.457031 C 82.292969 51.445312 82.328125 51.4375 82.367188 51.421875 C 83.25 51.082031 84.050781 50.523438 84.734375 49.765625 C 84.804688 49.6875 84.875 49.609375 84.941406 49.527344 Z M 84.941406 56.339844 C 83.929688 56.367188 83.035156 56.398438 82.257812 56.433594 L 82.257812 52.355469 L 82.367188 52.339844 C 83.183594 52.207031 84.042969 52.097656 84.941406 52.019531 Z M 66.679688 48.234375 C 66.675781 47.960938 66.675781 47.6875 66.671875 47.414062 C 66.667969 47.296875 66.761719 47.199219 66.882812 47.199219 C 67 47.195312 67.101562 47.289062 67.101562 47.410156 C 67.109375 47.683594 67.113281 47.953125 67.113281 48.226562 C 66.972656 48.226562 66.824219 48.234375 66.679688 48.234375 Z M 65.828125 48.242188 C 65.824219 47.976562 65.824219 47.710938 65.816406 47.449219 C 65.816406 47.316406 65.917969 47.207031 66.054688 47.207031 C 66.183594 47.203125 66.289062 47.308594 66.296875 47.445312 C 66.296875 47.707031 66.300781 47.976562 66.304688 48.238281 C 66.144531 48.238281 65.988281 48.242188 65.828125 48.242188 Z M 64.847656 48.253906 C 64.847656 47.988281 64.84375 47.730469 64.84375 47.476562 C 64.84375 47.332031 64.957031 47.21875 65.097656 47.21875 C 65.234375 47.21875 65.355469 47.332031 65.355469 47.472656 C 65.359375 47.726562 65.359375 47.988281 65.359375 48.246094 C 65.1875 48.246094 65.019531 48.246094 64.847656 48.253906 Z M 64.695312 42.53125 C 64.695312 42.414062 64.78125 42.324219 64.894531 42.320312 C 65.007812 42.320312 65.101562 42.410156 65.105469 42.523438 C 65.109375 42.933594 65.117188 43.351562 65.121094 43.761719 C 64.988281 43.769531 64.847656 43.769531 64.714844 43.773438 C 64.703125 43.355469 64.699219 42.945312 64.695312 42.53125 Z M 63.726562 48.257812 C 63.71875 48 63.71875 47.738281 63.71875 47.480469 C 63.71875 47.34375 63.835938 47.222656 63.972656 47.222656 C 64.117188 47.222656 64.230469 47.335938 64.230469 47.476562 C 64.230469 47.738281 64.230469 47.996094 64.234375 48.257812 Z M 63.632812 42.53125 C 63.632812 42.40625 63.730469 42.304688 63.859375 42.304688 C 63.976562 42.304688 64.082031 42.402344 64.085938 42.523438 C 64.085938 42.953125 64.09375 43.382812 64.101562 43.808594 C 63.949219 43.816406 63.800781 43.816406 63.648438 43.816406 C 63.644531 43.386719 63.636719 42.957031 63.632812 42.53125 Z M 63.0625 48.261719 L 62.488281 48.261719 L 62.488281 47.511719 C 62.488281 47.359375 62.617188 47.230469 62.773438 47.230469 C 62.933594 47.230469 63.0625 47.359375 63.0625 47.511719 Z M 62.277344 42.558594 C 62.273438 42.40625 62.398438 42.28125 62.546875 42.28125 C 62.695312 42.28125 62.820312 42.402344 62.820312 42.554688 C 62.824219 42.964844 62.828125 43.378906 62.828125 43.792969 L 62.285156 43.792969 C 62.285156 43.382812 62.277344 42.972656 62.277344 42.558594 Z M 61.796875 48.257812 L 61.21875 48.257812 C 61.21875 48.003906 61.222656 47.757812 61.222656 47.511719 C 61.222656 47.351562 61.351562 47.222656 61.511719 47.230469 C 61.667969 47.230469 61.796875 47.359375 61.796875 47.511719 Z M 60.800781 42.53125 C 60.800781 42.378906 60.925781 42.257812 61.074219 42.257812 C 61.222656 42.257812 61.347656 42.378906 61.347656 42.53125 C 61.347656 42.960938 61.347656 43.398438 61.351562 43.828125 L 60.800781 43.828125 Z M 60.605469 48.253906 C 60.414062 48.253906 60.226562 48.253906 60.035156 48.246094 C 60.035156 48 60.039062 47.753906 60.039062 47.5 C 60.039062 47.347656 60.167969 47.21875 60.328125 47.21875 C 60.488281 47.21875 60.609375 47.347656 60.609375 47.507812 C 60.609375 47.757812 60.609375 48.003906 60.605469 48.253906 Z M 59.792969 43.828125 L 59.246094 43.828125 C 59.246094 43.394531 59.25 42.960938 59.25 42.523438 C 59.25 42.375 59.375 42.257812 59.523438 42.257812 C 59.671875 42.257812 59.796875 42.378906 59.796875 42.53125 C 59.792969 42.960938 59.792969 43.398438 59.792969 43.828125 Z M 59.523438 48.246094 C 59.332031 48.242188 59.136719 48.242188 58.949219 48.238281 C 58.953125 47.988281 58.953125 47.738281 58.957031 47.492188 C 58.957031 47.332031 59.09375 47.207031 59.246094 47.207031 C 59.398438 47.214844 59.527344 47.335938 59.527344 47.496094 C 59.527344 47.75 59.523438 47.996094 59.523438 48.246094 Z M 58.511719 48.234375 C 58.339844 48.234375 58.171875 48.226562 58 48.226562 C 58.007812 47.964844 58.007812 47.707031 58.011719 47.445312 C 58.015625 47.304688 58.128906 47.195312 58.269531 47.199219 C 58.414062 47.199219 58.519531 47.316406 58.519531 47.457031 C 58.515625 47.710938 58.515625 47.976562 58.511719 48.234375 Z M 57.714844 42.53125 C 57.714844 42.378906 57.839844 42.261719 57.988281 42.261719 C 58.144531 42.261719 58.265625 42.386719 58.265625 42.535156 C 58.257812 42.960938 58.257812 43.382812 58.253906 43.808594 C 58.066406 43.804688 57.886719 43.804688 57.707031 43.800781 C 57.710938 43.378906 57.710938 42.957031 57.714844 42.53125 Z M 56.757812 43.789062 C 56.574219 43.789062 56.394531 43.78125 56.214844 43.78125 C 56.21875 43.355469 56.222656 42.933594 56.226562 42.507812 C 56.234375 42.359375 56.355469 42.242188 56.507812 42.242188 C 56.65625 42.246094 56.78125 42.367188 56.773438 42.519531 C 56.769531 42.945312 56.765625 43.367188 56.757812 43.789062 Z M 39.886719 42.25 L 38.9375 42.25 L 38.9375 41.046875 C 38.9375 40.785156 39.148438 40.574219 39.414062 40.574219 C 39.675781 40.574219 39.886719 40.785156 39.886719 41.046875 Z M 39.253906 47.683594 C 39.160156 47.683594 39.082031 47.609375 39.082031 47.515625 C 39.082031 47.457031 39.121094 47.398438 39.167969 47.371094 L 39.167969 46.929688 L 39.339844 46.929688 L 39.339844 47.371094 C 39.390625 47.398438 39.421875 47.457031 39.421875 47.515625 C 39.421875 47.609375 39.34375 47.683594 39.253906 47.683594 Z M 39.339844 53.085938 L 39.167969 53.085938 L 39.167969 52.289062 L 39.339844 52.289062 Z M 39.339844 55.691406 L 39.167969 55.691406 L 39.167969 54.894531 L 39.339844 54.894531 Z M 37.003906 42.25 L 36.019531 42.25 L 36.019531 41.070312 C 36.019531 40.796875 36.238281 40.574219 36.511719 40.574219 C 36.785156 40.574219 37.003906 40.796875 37.003906 41.070312 Z M 36.632812 47.683594 C 36.539062 47.683594 36.464844 47.609375 36.464844 47.515625 C 36.464844 47.457031 36.496094 47.398438 36.546875 47.371094 L 36.546875 46.929688 L 36.71875 46.929688 L 36.71875 47.371094 C 36.769531 47.398438 36.804688 47.457031 36.804688 47.515625 C 36.804688 47.609375 36.722656 47.683594 36.632812 47.683594 Z M 36.71875 53.085938 L 36.546875 53.085938 L 36.546875 52.289062 L 36.71875 52.289062 Z M 36.71875 55.691406 L 36.546875 55.691406 L 36.546875 54.894531 L 36.71875 54.894531 Z M 36.71875 59.976562 L 36.546875 59.976562 L 36.546875 59.179688 L 36.71875 59.179688 Z M 34.011719 47.683594 C 33.917969 47.683594 33.84375 47.609375 33.84375 47.515625 C 33.84375 47.457031 33.871094 47.398438 33.921875 47.371094 L 33.921875 46.929688 L 34.101562 46.929688 L 34.101562 47.371094 C 34.144531 47.398438 34.179688 47.457031 34.179688 47.515625 C 34.179688 47.609375 34.105469 47.683594 34.011719 47.683594 Z M 34.101562 53.085938 L 33.921875 53.085938 L 33.921875 52.289062 L 34.101562 52.289062 Z M 34.101562 55.691406 L 33.921875 55.691406 L 33.921875 54.894531 L 34.101562 54.894531 Z M 33.140625 41.046875 C 33.140625 40.785156 33.351562 40.574219 33.613281 40.574219 C 33.871094 40.574219 34.085938 40.785156 34.085938 41.046875 L 34.085938 42.25 L 33.140625 42.25 Z M 27.734375 62.925781 L 27.332031 62.925781 L 27.332031 56.613281 C 27.332031 54 25.207031 51.871094 22.589844 51.871094 C 19.976562 51.871094 17.84375 54 17.84375 56.613281 L 17.84375 62.925781 L 17.445312 62.925781 L 17.445312 56.613281 C 17.445312 53.78125 19.753906 51.476562 22.589844 51.476562 C 25.425781 51.476562 27.734375 53.78125 27.734375 56.613281 Z M 24.460938 62.925781 L 20.722656 62.925781 L 20.722656 58.152344 C 20.722656 57.117188 21.554688 56.285156 22.589844 56.285156 C 23.621094 56.285156 24.460938 57.117188 24.460938 58.152344 Z M 11.796875 42.25 L 10.855469 42.25 L 10.855469 41.046875 C 10.855469 40.785156 11.066406 40.574219 11.328125 40.574219 C 11.585938 40.574219 11.796875 40.785156 11.796875 41.046875 Z M 11.171875 47.683594 C 11.070312 47.683594 11 47.609375 11 47.515625 C 11 47.457031 11.03125 47.398438 11.078125 47.371094 L 11.078125 46.929688 L 11.257812 46.929688 L 11.257812 47.371094 C 11.304688 47.398438 11.335938 47.457031 11.335938 47.515625 C 11.335938 47.609375 11.261719 47.683594 11.171875 47.683594 Z M 11.257812 53.085938 L 11.078125 53.085938 L 11.078125 52.289062 L 11.257812 52.289062 Z M 11.257812 55.691406 L 11.078125 55.691406 L 11.078125 54.894531 L 11.257812 54.894531 Z M 8.921875 42.25 L 7.9375 42.25 L 7.9375 41.070312 C 7.9375 40.796875 8.15625 40.574219 8.425781 40.574219 C 8.5625 40.574219 8.6875 40.632812 8.777344 40.71875 C 8.863281 40.804688 8.921875 40.929688 8.921875 41.070312 Z M 8.542969 47.683594 C 8.453125 47.683594 8.378906 47.609375 8.378906 47.515625 C 8.378906 47.457031 8.410156 47.398438 8.457031 47.371094 L 8.457031 46.929688 L 8.636719 46.929688 L 8.636719 47.371094 C 8.683594 47.398438 8.714844 47.457031 8.714844 47.515625 C 8.714844 47.609375 8.640625 47.683594 8.542969 47.683594 Z M 8.636719 53.085938 L 8.457031 53.085938 L 8.457031 52.289062 L 8.636719 52.289062 Z M 8.636719 55.691406 L 8.457031 55.691406 L 8.457031 54.894531 L 8.636719 54.894531 Z M 8.636719 59.976562 L 8.457031 59.976562 L 8.457031 59.179688 L 8.636719 59.179688 Z M 5.921875 47.683594 C 5.832031 47.683594 5.757812 47.609375 5.757812 47.515625 C 5.757812 47.457031 5.789062 47.398438 5.835938 47.371094 L 5.835938 46.929688 L 6.011719 46.929688 L 6.011719 47.371094 C 6.0625 47.398438 6.09375 47.457031 6.09375 47.515625 C 6.09375 47.609375 6.015625 47.683594 5.921875 47.683594 Z M 6.011719 53.085938 L 5.835938 53.085938 L 5.835938 52.289062 L 6.011719 52.289062 Z M 6.011719 55.691406 L 5.835938 55.691406 L 5.835938 54.894531 L 6.011719 54.894531 Z M 5.054688 41.046875 C 5.054688 40.785156 5.269531 40.574219 5.527344 40.574219 C 5.660156 40.574219 5.773438 40.632812 5.859375 40.714844 C 5.949219 40.800781 6 40.917969 6 41.046875 L 6 42.25 L 5.054688 42.25 Z M 239.464844 62.925781 L 237.726562 62.925781 L 237.726562 62.90625 L 236.792969 62.90625 L 236.015625 57.675781 L 235.90625 56.933594 L 235.722656 55.707031 L 235.601562 54.988281 L 235.59375 54.929688 L 235.820312 54.929688 L 235.820312 54.121094 L 235.25 54.121094 L 235.25 53.703125 C 235.25 53.605469 235.171875 53.53125 235.074219 53.53125 C 234.980469 53.53125 234.902344 53.605469 234.902344 53.703125 L 234.902344 54.121094 L 234.328125 54.121094 L 234.328125 54.929688 L 234.558594 54.929688 L 234.546875 54.988281 L 234.425781 55.707031 L 234.246094 56.933594 L 234.132812 57.675781 L 233.351562 62.90625 L 227.011719 62.90625 L 227.011719 55.515625 L 226.378906 54.957031 L 222.042969 54.957031 L 218.410156 52.441406 L 211.097656 52.441406 L 211.097656 46.433594 L 211.507812 45.867188 L 211.714844 45.867188 L 211.714844 45.605469 L 211.636719 45.605469 L 211.636719 44.25 L 211.570312 44.25 L 211.570312 44.332031 L 210.464844 44.332031 L 210.464844 44.25 L 210.40625 44.25 L 210.40625 44.328125 L 210.398438 44.332031 L 209.925781 44.332031 L 209.925781 40.835938 L 210.148438 40.554688 L 209.792969 40.554688 L 209.792969 40.449219 C 209.792969 40.289062 209.925781 40.160156 210.089844 40.160156 L 210.179688 39.933594 L 209.5625 39.933594 C 209.5625 38.785156 209.082031 37.855469 208.308594 37.121094 C 208.109375 36.921875 207.929688 36.707031 207.773438 36.476562 L 207.773438 35.8125 C 207.773438 35.601562 207.605469 35.433594 207.398438 35.433594 L 207.300781 35.433594 C 207.21875 35.132812 207.175781 34.828125 207.175781 34.511719 L 207.175781 34.492188 L 207.804688 34.492188 L 207.886719 34.214844 L 207.84375 34.214844 L 207.84375 32.863281 L 207.789062 32.863281 L 207.789062 32.9375 L 207.785156 32.945312 L 206.882812 32.945312 L 206.882812 32.863281 L 206.832031 32.863281 L 206.832031 32.945312 L 206.253906 32.945312 L 206.253906 32.101562 L 205.492188 31.519531 L 205.28125 20.667969 L 205.773438 20.667969 L 205.773438 20.570312 L 205.28125 20.570312 L 205.277344 20.382812 C 205.5625 20.335938 205.773438 20.09375 205.773438 19.800781 C 205.773438 19.574219 205.644531 19.375 205.445312 19.273438 L 205.445312 19.039062 L 205.570312 19.039062 L 205.304688 17.558594 L 205.296875 17.398438 L 205.355469 17.398438 L 205.230469 15.535156 C 205.3125 15.480469 205.4375 15.324219 205.183594 14.945312 C 204.925781 15.324219 205.054688 15.480469 205.136719 15.535156 L 205.015625 17.398438 L 205.070312 17.398438 L 205.066406 17.558594 L 204.796875 19.039062 L 204.917969 19.039062 L 204.917969 19.273438 C 204.726562 19.375 204.597656 19.574219 204.597656 19.800781 C 204.597656 20.09375 204.808594 20.335938 205.09375 20.382812 L 205.085938 20.570312 L 204.691406 20.570312 L 204.691406 20.667969 L 205.085938 20.667969 L 204.875 31.519531 L 204.113281 32.101562 L 204.113281 32.945312 L 203.535156 32.945312 L 203.535156 32.863281 L 203.484375 32.863281 L 203.484375 32.9375 L 203.480469 32.945312 L 202.589844 32.945312 L 202.578125 32.929688 L 202.578125 32.863281 L 202.527344 32.863281 L 202.527344 34.214844 L 202.480469 34.214844 L 202.5625 34.492188 L 203.097656 34.492188 L 203.097656 34.597656 C 203.097656 34.882812 203.0625 35.164062 203 35.433594 L 202.902344 35.433594 C 202.691406 35.433594 202.527344 35.601562 202.527344 35.8125 L 202.527344 36.535156 C 202.382812 36.753906 202.214844 36.960938 202.023438 37.152344 C 201.269531 37.886719 200.808594 38.800781 200.808594 39.933594 L 200.1875 39.933594 L 200.277344 40.160156 C 200.441406 40.160156 200.574219 40.289062 200.574219 40.449219 L 200.574219 40.554688 L 200.222656 40.554688 L 200.441406 40.835938 L 200.441406 44.332031 L 199.96875 44.332031 L 199.964844 44.328125 L 199.964844 44.25 L 199.902344 44.25 L 199.902344 44.328125 L 199.898438 44.332031 L 198.808594 44.332031 L 198.796875 44.320312 L 198.796875 44.25 L 198.734375 44.25 L 198.734375 45.605469 L 198.65625 45.605469 L 198.65625 45.867188 L 198.859375 45.867188 L 199.273438 46.433594 L 199.273438 57.226562 L 196.40625 57.226562 L 193.351562 58.8125 L 194.644531 58.8125 L 194.644531 62.90625 L 190.878906 62.90625 L 190.878906 38.152344 L 190.875 38.152344 C 190.839844 37.644531 190.421875 37.238281 189.902344 37.226562 L 189.902344 36.945312 C 190.035156 36.855469 190.117188 36.722656 190.117188 36.570312 C 190.117188 36.398438 189.878906 36.25 189.710938 36.167969 C 189.777344 36.136719 189.824219 36.085938 189.824219 36.035156 C 189.824219 35.96875 189.769531 35.917969 189.679688 35.886719 C 189.710938 35.855469 189.730469 35.808594 189.730469 35.757812 C 189.730469 35.675781 189.679688 35.609375 189.601562 35.578125 L 189.601562 34.765625 L 189.472656 34.765625 L 189.472656 35.578125 C 189.402344 35.609375 189.351562 35.675781 189.351562 35.757812 C 189.351562 35.808594 189.367188 35.855469 189.398438 35.886719 C 189.316406 35.917969 189.253906 35.96875 189.253906 36.035156 C 189.253906 36.085938 189.300781 36.136719 189.367188 36.167969 C 189.195312 36.25 188.960938 36.398438 188.960938 36.570312 C 188.960938 36.722656 189.042969 36.855469 189.175781 36.945312 L 189.175781 37.226562 C 188.660156 37.238281 188.238281 37.644531 188.203125 38.152344 L 188.203125 37.015625 L 187.496094 37.015625 C 187.046875 34.292969 184.433594 32.125 181.117188 31.714844 C 181 31.453125 180.777344 31.246094 180.5 31.125 C 180.613281 31.050781 180.683594 30.960938 180.683594 30.855469 C 180.683594 30.75 180.601562 30.648438 180.472656 30.578125 C 180.683594 30.464844 180.824219 30.269531 180.824219 29.976562 C 180.824219 29.695312 180.546875 29.175781 180.304688 28.773438 C 180.335938 28.726562 180.359375 28.6875 180.386719 28.640625 C 180.292969 28.484375 180.175781 28.386719 180.050781 28.355469 L 180.050781 27.523438 L 179.855469 27.523438 L 179.855469 28.355469 C 179.734375 28.386719 179.613281 28.484375 179.523438 28.640625 C 179.546875 28.6875 179.574219 28.726562 179.597656 28.773438 C 179.363281 29.175781 179.082031 29.695312 179.082031 29.976562 C 179.082031 30.269531 179.222656 30.464844 179.433594 30.578125 C 179.304688 30.648438 179.222656 30.75 179.222656 30.855469 C 179.222656 30.960938 179.296875 31.050781 179.40625 31.125 C 179.128906 31.246094 178.910156 31.453125 178.789062 31.714844 C 175.46875 32.125 172.859375 34.292969 172.410156 37.015625 L 171.707031 37.015625 L 171.707031 38.152344 C 171.671875 37.644531 171.246094 37.238281 170.734375 37.226562 L 170.734375 36.945312 C 170.863281 36.855469 170.949219 36.722656 170.949219 36.570312 C 170.949219 36.398438 170.710938 36.25 170.542969 36.167969 C 170.609375 36.136719 170.65625 36.085938 170.65625 36.035156 C 170.65625 35.96875 170.59375 35.917969 170.503906 35.886719 C 170.542969 35.855469 170.558594 35.808594 170.558594 35.757812 C 170.558594 35.675781 170.503906 35.609375 170.433594 35.578125 L 170.433594 34.765625 L 170.300781 34.765625 L 170.300781 35.578125 C 170.226562 35.609375 170.175781 35.675781 170.175781 35.757812 C 170.175781 35.808594 170.195312 35.855469 170.226562 35.886719 C 170.140625 35.917969 170.082031 35.96875 170.082031 36.035156 C 170.082031 36.085938 170.125 36.136719 170.195312 36.167969 C 170.027344 36.25 169.789062 36.398438 169.789062 36.570312 C 169.789062 36.722656 169.871094 36.855469 170.007812 36.945312 L 170.007812 37.226562 C 169.484375 37.238281 169.070312 37.644531 169.035156 38.152344 L 169.027344 38.152344 L 169.027344 50.328125 L 167.050781 50.328125 C 166.535156 49.8125 165.605469 49.464844 164.542969 49.464844 L 164.542969 28.855469 L 165.191406 28.15625 L 165.191406 26.648438 C 165.191406 26.648438 165 26.445312 164.542969 26.371094 L 164.542969 20.117188 L 164.628906 20.117188 L 164.628906 19.976562 L 164.542969 19.976562 L 164.542969 19.183594 L 164.628906 19.183594 L 164.628906 19.035156 L 164.195312 19.035156 C 164.171875 18.757812 164.003906 18.519531 163.777344 18.421875 C 163.828125 18.390625 163.863281 18.351562 163.863281 18.300781 C 163.863281 18.273438 163.855469 18.253906 163.839844 18.234375 L 164.097656 18.234375 L 163.996094 16.464844 L 163.753906 16.386719 L 163.753906 16.277344 C 163.828125 16.253906 163.878906 16.210938 163.878906 16.167969 C 163.878906 16.128906 163.828125 16.085938 163.753906 16.0625 L 163.753906 15.914062 L 163.945312 15.914062 L 163.894531 15.175781 L 163.652344 15.078125 L 163.652344 14.914062 C 163.710938 14.890625 163.75 14.84375 163.75 14.785156 C 163.75 14.71875 163.679688 14.65625 163.585938 14.648438 L 163.585938 14.566406 C 163.671875 14.542969 163.738281 14.453125 163.738281 14.34375 C 163.738281 14.238281 163.671875 14.144531 163.585938 14.121094 L 163.585938 13.839844 C 163.617188 13.824219 163.636719 13.785156 163.636719 13.742188 C 163.636719 13.691406 163.609375 13.652344 163.574219 13.632812 L 163.574219 13.332031 L 163.515625 13.332031 L 163.515625 13.632812 C 163.472656 13.652344 163.445312 13.691406 163.445312 13.742188 C 163.445312 13.785156 163.46875 13.824219 163.5 13.839844 L 163.5 14.121094 C 163.410156 14.144531 163.34375 14.238281 163.34375 14.34375 C 163.34375 14.453125 163.410156 14.542969 163.5 14.566406 L 163.5 14.648438 C 163.40625 14.65625 163.332031 14.71875 163.332031 14.785156 C 163.332031 14.84375 163.375 14.890625 163.433594 14.914062 L 163.433594 15.078125 L 163.1875 15.175781 L 163.136719 15.914062 L 163.328125 15.914062 L 163.328125 16.0625 C 163.257812 16.085938 163.203125 16.128906 163.203125 16.167969 C 163.203125 16.210938 163.257812 16.253906 163.328125 16.277344 L 163.328125 16.386719 L 163.085938 16.464844 L 162.984375 18.234375 L 163.246094 18.234375 C 163.230469 18.253906 163.21875 18.273438 163.21875 18.300781 C 163.21875 18.351562 163.257812 18.390625 163.3125 18.421875 C 163.082031 18.519531 162.917969 18.757812 162.890625 19.035156 L 162.453125 19.035156 L 162.453125 19.183594 L 162.539062 19.183594 L 162.539062 19.976562 L 162.453125 19.976562 L 162.453125 20.117188 L 162.539062 20.117188 L 162.539062 26.371094 C 162.085938 26.445312 161.898438 26.648438 161.898438 26.648438 L 161.898438 28.15625 L 162.539062 28.855469 L 162.539062 49.953125 C 162.34375 50.0625 162.175781 50.191406 162.035156 50.328125 L 160.640625 50.328125 C 160.507812 50.171875 160.335938 50.03125 160.144531 49.902344 L 160.144531 26.761719 L 160.789062 26.070312 L 160.789062 24.5625 C 160.789062 24.5625 160.601562 24.351562 160.144531 24.277344 L 160.144531 18.027344 L 160.234375 18.027344 L 160.234375 17.882812 L 160.144531 17.882812 L 160.144531 17.089844 L 160.234375 17.089844 L 160.234375 16.945312 L 159.796875 16.945312 C 159.769531 16.664062 159.605469 16.425781 159.371094 16.335938 C 159.429688 16.296875 159.464844 16.257812 159.464844 16.207031 C 159.464844 16.179688 159.457031 16.160156 159.441406 16.140625 L 159.703125 16.140625 L 159.601562 14.371094 L 159.351562 14.292969 L 159.351562 14.183594 C 159.429688 14.160156 159.480469 14.121094 159.480469 14.078125 C 159.480469 14.035156 159.429688 13.996094 159.351562 13.96875 L 159.351562 13.820312 L 159.546875 13.820312 L 159.492188 13.089844 L 159.25 12.984375 L 159.25 12.824219 C 159.3125 12.796875 159.347656 12.75 159.347656 12.699219 C 159.347656 12.625 159.28125 12.566406 159.183594 12.554688 L 159.183594 12.476562 C 159.277344 12.453125 159.335938 12.363281 159.335938 12.25 C 159.335938 12.144531 159.277344 12.054688 159.183594 12.03125 L 159.183594 11.753906 C 159.21875 11.734375 159.242188 11.695312 159.242188 11.648438 C 159.242188 11.597656 159.214844 11.558594 159.175781 11.546875 L 159.175781 11.238281 L 159.113281 11.238281 L 159.113281 11.546875 C 159.074219 11.558594 159.046875 11.597656 159.046875 11.648438 C 159.046875 11.695312 159.070312 11.734375 159.101562 11.753906 L 159.101562 12.03125 C 159.011719 12.054688 158.945312 12.144531 158.945312 12.25 C 158.945312 12.363281 159.011719 12.453125 159.101562 12.476562 L 159.101562 12.554688 C 159.007812 12.566406 158.9375 12.625 158.9375 12.699219 C 158.9375 12.75 158.976562 12.796875 159.03125 12.824219 L 159.03125 12.984375 L 158.792969 13.089844 L 158.738281 13.820312 L 158.929688 13.820312 L 158.929688 13.96875 C 158.855469 13.996094 158.808594 14.035156 158.808594 14.078125 C 158.808594 14.121094 158.855469 14.160156 158.929688 14.183594 L 158.929688 14.292969 L 158.683594 14.371094 L 158.585938 16.140625 L 158.847656 16.140625 C 158.832031 16.160156 158.820312 16.179688 158.820312 16.207031 C 158.820312 16.257812 158.859375 16.296875 158.910156 16.335938 C 158.683594 16.425781 158.515625 16.664062 158.492188 16.945312 L 158.050781 16.945312 L 158.050781 17.089844 L 158.136719 17.089844 L 158.136719 17.882812 L 158.050781 17.882812 L 158.050781 18.027344 L 158.136719 18.027344 L 158.136719 24.277344 C 157.683594 24.351562 157.496094 24.5625 157.496094 24.5625 L 157.496094 26.070312 L 158.136719 26.761719 L 158.136719 49.265625 C 158.003906 49.253906 157.863281 49.25 157.722656 49.25 C 156.453125 49.25 155.359375 49.6875 154.808594 50.328125 L 153.40625 50.328125 C 152.890625 49.8125 151.960938 49.464844 150.898438 49.464844 C 149.835938 49.464844 148.910156 49.8125 148.390625 50.328125 L 146.414062 50.328125 L 146.414062 62.117188 L 145.398438 62.117188 L 145.398438 35.917969 L 145.65625 35.566406 L 145.457031 35.414062 L 146.265625 34.640625 L 146.265625 34.378906 L 145.683594 34.136719 L 145.683594 33.683594 L 145.457031 33.660156 L 145.457031 31.300781 L 145.625 31.300781 C 145.625 30.578125 145.769531 29.320312 145.769531 29.320312 L 145.554688 29.320312 L 145.554688 28.554688 L 146.234375 27.785156 L 145.503906 27.519531 L 145.503906 26.152344 L 144.378906 26.152344 L 144.378906 24.042969 C 144.378906 23.714844 144.648438 23.449219 144.976562 23.449219 L 144.976562 23.132812 L 142.980469 23.132812 L 141.238281 17.90625 L 141.238281 17.054688 L 141.398438 17.054688 L 141.042969 16.71875 L 140.84375 16.71875 L 137.511719 6.722656 L 137.511719 6.554688 L 137.414062 6.148438 C 137.675781 6.117188 137.875 5.894531 137.875 5.625 C 137.875 5.355469 137.679688 5.140625 137.421875 5.097656 L 137.421875 4.804688 L 137.589844 4.804688 L 137.589844 4.757812 L 137.421875 4.757812 L 137.421875 4.628906 L 137.429688 4.628906 L 137.738281 4.28125 L 137.597656 2.699219 L 137.421875 2.621094 L 137.421875 2.464844 C 137.488281 2.433594 137.53125 2.375 137.53125 2.296875 C 137.53125 2.222656 137.488281 2.15625 137.421875 2.128906 L 137.421875 2.027344 C 137.464844 2.003906 137.488281 1.960938 137.488281 1.910156 C 137.488281 1.859375 137.464844 1.816406 137.421875 1.792969 L 137.421875 0.109375 L 137.269531 0.109375 L 137.269531 1.792969 C 137.230469 1.816406 137.207031 1.859375 137.207031 1.910156 C 137.207031 1.960938 137.230469 2.003906 137.269531 2.027344 L 137.269531 2.128906 C 137.207031 2.15625 137.164062 2.222656 137.164062 2.296875 C 137.164062 2.375 137.207031 2.433594 137.269531 2.464844 L 137.269531 2.613281 L 137.097656 2.699219 L 136.960938 4.28125 L 137.269531 4.625 L 137.269531 4.757812 L 137.109375 4.757812 L 137.109375 4.804688 L 137.269531 4.804688 L 137.269531 5.097656 C 137.015625 5.140625 136.820312 5.355469 136.820312 5.625 C 136.820312 5.894531 137.019531 6.117188 137.285156 6.148438 L 137.1875 6.554688 L 137.1875 6.722656 L 133.855469 16.71875 L 133.652344 16.71875 L 133.300781 17.054688 L 133.460938 17.054688 L 133.460938 17.90625 L 131.71875 23.132812 L 129.71875 23.132812 L 129.71875 23.449219 C 130.050781 23.449219 130.316406 23.714844 130.316406 24.042969 L 130.316406 26.152344 L 129.195312 26.152344 L 129.195312 27.519531 L 128.457031 27.785156 L 129.144531 28.554688 L 129.144531 29.320312 L 128.925781 29.320312 C 128.925781 29.320312 129.074219 30.578125 129.074219 31.300781 L 129.242188 31.300781 L 129.242188 33.660156 L 129.015625 33.683594 L 129.015625 34.136719 L 128.429688 34.378906 L 128.429688 34.640625 L 129.242188 35.414062 L 129.039062 35.566406 L 129.296875 35.917969 L 129.296875 39.925781 C 126.78125 38.019531 123.5 35.46875 120.042969 32.570312 L 120.03125 31.972656 L 119.066406 31.972656 L 119.066406 32.546875 L 114.390625 32.546875 L 114.386719 31.972656 L 113.425781 31.972656 L 113.425781 33 C 112.410156 34.527344 109.859375 38.230469 106.652344 41.839844 C 104.203125 44.585938 101.859375 46.738281 99.679688 48.242188 C 97.234375 49.929688 94.988281 50.789062 92.996094 50.804688 C 90.550781 50.035156 88.667969 47.871094 87.378906 44.355469 L 87.375 43.757812 L 87.019531 43.757812 L 87.019531 43.96875 L 85.296875 43.96875 L 85.289062 43.757812 L 85.097656 43.757812 L 85.085938 43.722656 L 85.085938 43.757812 L 84.941406 43.757812 L 84.941406 45.886719 C 84.851562 46.363281 84.722656 46.894531 84.527344 47.425781 C 84.160156 48.410156 83.515625 49.53125 82.367188 50.304688 C 82.328125 50.328125 82.292969 50.351562 82.257812 50.375 L 82.257812 48.046875 C 82.59375 47.886719 82.816406 47.542969 82.816406 47.148438 L 82.816406 46.3125 L 82.195312 46.3125 L 82.195312 42.09375 C 82.496094 41.839844 82.683594 41.460938 82.683594 41.039062 L 82.683594 40.566406 L 82.109375 40.566406 L 82.109375 36.496094 C 82.429688 36.230469 82.632812 35.828125 82.632812 35.378906 L 82.632812 34.882812 L 81.9375 34.882812 L 81.9375 30.835938 L 81.234375 24.023438 L 81.222656 23.488281 C 81.257812 23.476562 81.28125 23.457031 81.28125 23.429688 C 81.28125 23.410156 81.253906 23.390625 81.222656 23.378906 L 81.21875 23.175781 C 81.242188 23.164062 81.261719 23.148438 81.261719 23.128906 C 81.261719 23.109375 81.242188 23.089844 81.214844 23.082031 L 81.214844 22.875 C 81.242188 22.863281 81.261719 22.835938 81.261719 22.796875 C 81.261719 22.753906 81.1875 22.714844 81.1875 22.714844 C 81.1875 22.714844 81.113281 22.753906 81.113281 22.796875 C 81.113281 22.835938 81.132812 22.863281 81.167969 22.875 L 81.160156 23.082031 C 81.132812 23.089844 81.113281 23.109375 81.113281 23.128906 C 81.113281 23.148438 81.128906 23.164062 81.160156 23.175781 L 81.15625 23.378906 C 81.117188 23.390625 81.097656 23.410156 81.097656 23.429688 C 81.097656 23.457031 81.117188 23.476562 81.15625 23.488281 L 81.144531 24.023438 L 80.441406 30.835938 L 80.441406 34.882812 L 79.738281 34.882812 L 79.738281 35.378906 C 79.738281 35.828125 79.945312 36.230469 80.269531 36.496094 L 80.269531 40.566406 L 79.691406 40.566406 L 79.691406 41.039062 C 79.691406 41.460938 79.878906 41.839844 80.183594 42.09375 L 80.183594 46.3125 L 79.554688 46.3125 L 79.554688 47.148438 C 79.554688 47.542969 79.785156 47.886719 80.121094 48.046875 L 80.121094 51.886719 L 77.335938 51.886719 L 77.335938 49.441406 L 77.382812 49.441406 L 77.382812 49.199219 L 77.28125 49.199219 C 77.273438 48.863281 76.960938 48.597656 76.578125 48.597656 C 76.191406 48.597656 75.875 48.863281 75.867188 49.199219 L 75.734375 49.199219 C 75.597656 49.070312 75.449219 48.957031 75.292969 48.875 L 75.425781 48.730469 L 74.328125 48.457031 C 74.320312 48.375 74.292969 48.308594 74.246094 48.253906 L 74.25 48.253906 L 74.148438 48.125 C 74.144531 48.113281 74.132812 48.105469 74.128906 48.09375 L 74.128906 47.636719 C 74.214844 47.609375 74.28125 47.554688 74.28125 47.488281 C 74.28125 47.417969 74.214844 47.363281 74.128906 47.335938 L 74.128906 47.203125 C 74.171875 47.1875 74.203125 47.15625 74.203125 47.121094 C 74.203125 47.089844 74.171875 47.058594 74.128906 47.042969 L 74.128906 46.882812 C 74.359375 46.832031 74.097656 46.535156 74.097656 46.535156 L 74.097656 46.472656 C 74.148438 46.457031 74.183594 46.425781 74.183594 46.390625 C 74.183594 46.355469 74.144531 46.324219 74.085938 46.308594 L 74.070312 46.101562 C 74.15625 46.058594 74.050781 45.9375 74.050781 45.9375 L 74.019531 45.742188 L 73.980469 45.9375 C 73.980469 45.9375 73.878906 46.058594 73.96875 46.101562 L 73.953125 46.308594 C 73.894531 46.324219 73.851562 46.355469 73.851562 46.390625 C 73.851562 46.425781 73.890625 46.457031 73.941406 46.472656 L 73.9375 46.535156 C 73.9375 46.535156 73.679688 46.832031 73.910156 46.882812 L 73.910156 47.042969 C 73.863281 47.058594 73.832031 47.089844 73.832031 47.121094 C 73.832031 47.15625 73.863281 47.1875 73.910156 47.203125 L 73.910156 47.335938 C 73.816406 47.363281 73.757812 47.417969 73.757812 47.488281 C 73.757812 47.554688 73.816406 47.609375 73.910156 47.636719 L 73.910156 48.09375 C 73.898438 48.105469 73.894531 48.113281 73.890625 48.125 L 73.796875 48.242188 C 73.792969 48.242188 73.792969 48.242188 73.792969 48.242188 L 73.789062 48.253906 C 73.761719 48.289062 73.734375 48.335938 73.722656 48.386719 L 73.007812 48.386719 L 73.007812 47.820312 L 73.097656 47.792969 L 73.128906 47.628906 L 72.378906 47.4375 L 72.378906 47.382812 L 72.5 47.382812 L 72.5 47.253906 L 71.945312 47.183594 C 71.890625 47.003906 71.792969 46.824219 71.652344 46.671875 C 71.511719 46.519531 71.347656 46.417969 71.175781 46.355469 L 71.175781 44.199219 L 71.300781 44.066406 L 70.984375 43.921875 C 70.972656 43.304688 70.503906 42.800781 69.890625 42.683594 C 69.953125 42.554688 69.710938 42.394531 69.710938 42.394531 L 69.710938 42.238281 C 69.75 42.21875 69.78125 42.199219 69.78125 42.167969 C 69.78125 42.136719 69.746094 42.117188 69.699219 42.101562 L 69.6875 41.9375 C 69.757812 41.902344 69.675781 41.804688 69.675781 41.804688 L 69.675781 41.707031 C 69.746094 41.691406 69.640625 41.519531 69.640625 41.519531 C 69.640625 41.519531 69.539062 41.691406 69.613281 41.707031 L 69.613281 41.804688 C 69.613281 41.804688 69.523438 41.902344 69.59375 41.9375 L 69.585938 42.101562 C 69.539062 42.117188 69.503906 42.136719 69.503906 42.167969 C 69.503906 42.199219 69.53125 42.21875 69.574219 42.238281 L 69.574219 42.394531 C 69.574219 42.394531 69.339844 42.550781 69.394531 42.679688 C 69.183594 42.714844 68.996094 42.789062 68.828125 42.90625 L 68.828125 40.625 C 69.082031 40.417969 69.246094 40.101562 69.246094 39.746094 L 69.246094 39.355469 L 68.695312 39.355469 L 68.695312 36.175781 L 68.144531 30.816406 L 68.132812 30.394531 C 68.160156 30.390625 68.179688 30.367188 68.179688 30.351562 C 68.179688 30.332031 68.160156 30.316406 68.132812 30.3125 L 68.128906 30.144531 C 68.148438 30.140625 68.164062 30.125 68.164062 30.109375 C 68.164062 30.097656 68.148438 30.078125 68.128906 30.074219 L 68.125 29.910156 C 68.148438 29.90625 68.164062 29.878906 68.164062 29.847656 C 68.164062 29.8125 68.105469 29.785156 68.105469 29.785156 C 68.105469 29.785156 68.046875 29.8125 68.046875 29.847656 C 68.046875 29.878906 68.066406 29.90625 68.085938 29.910156 L 68.085938 30.074219 C 68.0625 30.078125 68.046875 30.097656 68.046875 30.109375 C 68.046875 30.125 68.0625 30.140625 68.085938 30.144531 L 68.082031 30.3125 C 68.058594 30.316406 68.035156 30.332031 68.035156 30.351562 C 68.035156 30.367188 68.058594 30.390625 68.082031 30.394531 L 68.070312 30.816406 L 67.515625 36.175781 L 67.515625 39.355469 L 66.972656 39.355469 L 66.972656 39.746094 C 66.972656 40.101562 67.128906 40.417969 67.386719 40.625 L 67.386719 43.0625 L 67.03125 42.898438 L 66.980469 42.265625 C 66.980469 42.265625 67.140625 42.25 67.09375 42.050781 C 67.074219 41.953125 66.714844 41.863281 66.375 41.816406 C 65.402344 39.855469 63.582031 38.441406 61.429688 38.125 L 61.429688 38.117188 C 61.429688 37.875 61.332031 37.65625 61.183594 37.492188 L 60.894531 37.203125 C 60.796875 37.097656 60.714844 36.980469 60.648438 36.855469 L 60.648438 36.640625 C 60.75 36.609375 60.820312 36.542969 60.820312 36.464844 C 60.820312 36.390625 60.75 36.324219 60.648438 36.289062 L 60.648438 36.140625 C 60.699219 36.117188 60.734375 36.078125 60.734375 36.046875 C 60.734375 36.003906 60.699219 35.96875 60.648438 35.949219 L 60.648438 35.761719 C 60.914062 35.699219 60.609375 35.355469 60.609375 35.355469 L 60.609375 35.285156 C 60.667969 35.261719 60.710938 35.226562 60.710938 35.1875 C 60.710938 35.144531 60.664062 35.109375 60.59375 35.09375 L 60.582031 34.851562 C 60.683594 34.792969 60.558594 34.660156 60.558594 34.660156 L 60.558594 34.511719 C 60.664062 34.488281 60.519531 34.171875 60.519531 34.171875 C 60.519531 34.171875 60.375 34.488281 60.480469 34.511719 L 60.480469 34.660156 C 60.480469 34.660156 60.359375 34.792969 60.457031 34.851562 L 60.441406 35.09375 C 60.375 35.109375 60.328125 35.144531 60.328125 35.1875 C 60.328125 35.226562 60.371094 35.261719 60.429688 35.285156 L 60.425781 35.355469 C 60.425781 35.355469 60.121094 35.699219 60.390625 35.761719 L 60.390625 35.949219 C 60.335938 35.96875 60.300781 36.003906 60.300781 36.046875 C 60.300781 36.078125 60.335938 36.117188 60.390625 36.140625 L 60.390625 36.289062 C 60.289062 36.324219 60.214844 36.390625 60.214844 36.464844 C 60.214844 36.542969 60.289062 36.609375 60.390625 36.640625 L 60.390625 36.855469 C 60.328125 36.980469 60.242188 37.097656 60.140625 37.203125 L 59.878906 37.46875 C 59.875 37.472656 59.867188 37.480469 59.867188 37.484375 L 59.855469 37.492188 C 59.703125 37.65625 59.609375 37.875 59.609375 38.117188 L 59.609375 38.125 C 57.46875 38.441406 55.652344 39.839844 54.683594 41.78125 C 54.296875 41.835938 53.769531 41.925781 53.742188 42.050781 C 53.699219 42.25 53.855469 42.265625 53.855469 42.265625 L 53.808594 42.898438 L 52.988281 43.273438 L 52.921875 43.582031 C 52.921875 43.582031 52.921875 43.582031 52.917969 43.578125 C 52.789062 43.441406 52.636719 43.335938 52.476562 43.285156 L 52.476562 40.785156 C 52.796875 40.511719 52.996094 40.109375 52.996094 39.660156 L 52.996094 39.15625 L 52.382812 39.15625 L 52.382812 34.832031 C 52.722656 34.550781 52.945312 34.121094 52.945312 33.644531 L 52.945312 33.113281 L 52.203125 33.113281 L 52.203125 28.808594 L 51.453125 21.566406 L 51.441406 20.988281 C 51.476562 20.984375 51.5 20.957031 51.5 20.933594 C 51.5 20.90625 51.476562 20.886719 51.441406 20.875 L 51.433594 20.652344 C 51.464844 20.648438 51.480469 20.628906 51.480469 20.605469 C 51.480469 20.585938 51.460938 20.566406 51.433594 20.5625 L 51.429688 20.339844 C 51.460938 20.324219 51.480469 20.292969 51.480469 20.257812 C 51.480469 20.207031 51.40625 20.171875 51.40625 20.171875 C 51.40625 20.171875 51.328125 20.207031 51.328125 20.257812 C 51.328125 20.292969 51.347656 20.324219 51.378906 20.339844 L 51.378906 20.5625 C 51.347656 20.566406 51.328125 20.585938 51.328125 20.605469 C 51.328125 20.628906 51.347656 20.648438 51.371094 20.652344 L 51.367188 20.875 C 51.332031 20.886719 51.304688 20.90625 51.304688 20.933594 C 51.304688 20.957031 51.332031 20.984375 51.367188 20.988281 L 51.359375 21.566406 L 50.605469 28.808594 L 50.605469 33.113281 L 49.863281 33.113281 L 49.863281 33.644531 C 49.863281 34.121094 50.085938 34.550781 50.425781 34.832031 L 50.425781 39.15625 L 49.8125 39.15625 L 49.8125 39.660156 C 49.8125 40.109375 50.015625 40.511719 50.332031 40.785156 L 50.332031 45.277344 L 49.667969 45.277344 L 49.667969 45.9375 C 49.308594 45.984375 48.933594 46.191406 48.65625 46.535156 C 48.457031 46.777344 48.335938 47.050781 48.292969 47.316406 L 48.179688 47.316406 L 48.175781 47.09375 C 48.199219 47.089844 48.222656 47.074219 48.222656 47.054688 C 48.222656 47.035156 48.199219 47.019531 48.175781 47.011719 L 48.171875 46.84375 C 48.195312 46.839844 48.214844 46.828125 48.214844 46.8125 C 48.214844 46.792969 48.191406 46.78125 48.171875 46.777344 L 48.164062 46.605469 C 48.191406 46.601562 48.214844 46.574219 48.214844 46.546875 C 48.214844 46.507812 48.152344 46.390625 48.152344 46.390625 C 48.152344 46.390625 48.089844 46.507812 48.089844 46.546875 C 48.089844 46.574219 48.109375 46.601562 48.128906 46.605469 L 48.128906 46.777344 C 48.105469 46.78125 48.089844 46.792969 48.089844 46.8125 C 48.089844 46.828125 48.105469 46.839844 48.128906 46.84375 L 48.125 47.011719 C 48.097656 47.019531 48.078125 47.035156 48.078125 47.054688 C 48.078125 47.074219 48.09375 47.089844 48.125 47.09375 L 48.117188 47.316406 L 47.648438 47.316406 L 47.648438 48.773438 L 46.605469 48.96875 L 46.605469 49.660156 C 46.28125 49.789062 45.972656 50.082031 45.792969 50.488281 C 45.71875 50.660156 45.671875 50.828125 45.652344 50.992188 L 45.457031 50.992188 L 45.457031 52.269531 L 44.277344 52.269531 L 44.277344 48.636719 C 44.546875 48.507812 44.726562 48.238281 44.726562 47.917969 L 44.726562 47.253906 L 44.226562 47.253906 L 44.226562 43.875 C 44.46875 43.675781 44.617188 43.375 44.617188 43.035156 L 44.617188 42.652344 L 44.160156 42.652344 L 44.160156 39.402344 C 44.417969 39.191406 44.582031 38.875 44.582031 38.507812 L 44.582031 38.113281 L 44.023438 38.113281 L 44.023438 34.875 L 43.460938 29.429688 L 43.449219 29 C 43.472656 28.996094 43.496094 28.976562 43.496094 28.960938 C 43.496094 28.9375 43.472656 28.921875 43.449219 28.914062 L 43.445312 28.75 C 43.464844 28.742188 43.484375 28.726562 43.484375 28.710938 C 43.484375 28.695312 43.464844 28.6875 43.445312 28.675781 L 43.4375 28.511719 C 43.464844 28.5 43.484375 28.476562 43.484375 28.449219 C 43.484375 28.414062 43.425781 28.382812 43.425781 28.382812 C 43.425781 28.382812 43.363281 28.414062 43.363281 28.449219 C 43.363281 28.476562 43.382812 28.5 43.402344 28.511719 L 43.402344 28.675781 C 43.378906 28.6875 43.363281 28.695312 43.363281 28.710938 C 43.363281 28.726562 43.378906 28.742188 43.402344 28.75 L 43.398438 28.914062 C 43.371094 28.921875 43.351562 28.9375 43.351562 28.960938 C 43.351562 28.976562 43.371094 28.996094 43.398438 29 L 43.386719 29.429688 L 42.828125 34.875 L 42.828125 38.113281 L 42.265625 38.113281 L 42.265625 38.507812 C 42.265625 38.875 42.429688 39.191406 42.6875 39.402344 L 42.6875 42.652344 L 42.230469 42.652344 L 42.230469 43.035156 C 42.230469 43.375 42.378906 43.675781 42.617188 43.875 L 42.617188 47.253906 L 42.117188 47.253906 L 42.117188 47.917969 C 42.117188 48.238281 42.300781 48.507812 42.570312 48.636719 L 42.570312 54.738281 L 42.117188 57.066406 L 42.117188 61.917969 C 41.53125 62.234375 40.96875 62.570312 40.445312 62.925781 L 40.421875 62.925781 L 40.421875 44.078125 L 40.992188 44.078125 L 40.992188 40.21875 L 40.761719 40.21875 L 36.734375 28.105469 L 36.722656 27.667969 C 36.859375 27.636719 36.953125 27.539062 36.953125 27.425781 C 36.953125 27.308594 36.851562 27.210938 36.714844 27.183594 L 36.710938 26.9375 C 36.828125 26.90625 36.914062 26.8125 36.914062 26.707031 C 36.914062 26.59375 36.828125 26.5 36.699219 26.472656 L 36.6875 25.859375 C 36.777344 25.828125 36.839844 25.734375 36.839844 25.625 C 36.839844 25.496094 36.632812 25.25 36.632812 25.25 C 36.632812 25.25 36.425781 25.496094 36.425781 25.625 C 36.425781 25.734375 36.488281 25.828125 36.574219 25.859375 L 36.566406 26.472656 C 36.441406 26.5 36.347656 26.59375 36.347656 26.707031 C 36.347656 26.8125 36.4375 26.90625 36.554688 26.9375 L 36.550781 27.183594 C 36.417969 27.210938 36.3125 27.308594 36.3125 27.425781 C 36.3125 27.539062 36.410156 27.636719 36.539062 27.667969 L 36.53125 28.105469 L 32.503906 40.21875 L 32.269531 40.21875 L 32.269531 44.078125 L 32.84375 44.078125 L 32.84375 46.523438 L 32.78125 46.523438 L 32.78125 46.261719 C 32.78125 46.167969 32.707031 46.09375 32.609375 46.09375 C 32.519531 46.09375 32.445312 46.167969 32.445312 46.261719 L 32.445312 48.71875 L 32.101562 48.71875 L 32.101562 46.261719 C 32.101562 46.167969 32.023438 46.09375 31.929688 46.09375 C 31.839844 46.09375 31.761719 46.167969 31.761719 46.261719 L 31.761719 46.523438 L 30.601562 46.523438 L 30.601562 46.261719 C 30.601562 46.167969 30.527344 46.09375 30.433594 46.09375 C 30.339844 46.09375 30.261719 46.167969 30.261719 46.261719 L 30.261719 46.574219 L 30.269531 46.574219 L 30.269531 48.71875 L 29.679688 48.71875 L 29.679688 46.261719 C 29.679688 46.167969 29.605469 46.09375 29.511719 46.09375 C 29.414062 46.09375 29.339844 46.167969 29.339844 46.261719 L 29.339844 46.523438 L 28.183594 46.523438 L 28.183594 46.261719 C 28.183594 46.167969 28.105469 46.09375 28.011719 46.09375 C 27.914062 46.09375 27.84375 46.167969 27.84375 46.261719 L 27.84375 48.71875 L 27.253906 48.71875 L 27.253906 46.261719 C 27.253906 46.167969 27.179688 46.09375 27.085938 46.09375 C 26.992188 46.09375 26.914062 46.167969 26.914062 46.261719 L 26.914062 46.523438 L 25.757812 46.523438 L 25.757812 46.261719 C 25.757812 46.167969 25.679688 46.09375 25.585938 46.09375 C 25.496094 46.09375 25.417969 46.167969 25.417969 46.261719 L 25.417969 48.71875 L 24.835938 48.71875 L 24.835938 46.261719 C 24.835938 46.167969 24.757812 46.09375 24.667969 46.09375 C 24.566406 46.09375 24.496094 46.167969 24.496094 46.261719 L 24.496094 46.523438 L 23.335938 46.523438 L 23.335938 46.261719 C 23.335938 46.167969 23.261719 46.09375 23.167969 46.09375 C 23.074219 46.09375 22.996094 46.167969 22.996094 46.261719 L 22.996094 48.71875 L 22.410156 48.71875 L 22.410156 46.261719 C 22.410156 46.167969 22.332031 46.09375 22.242188 46.09375 C 22.148438 46.09375 22.070312 46.167969 22.070312 46.261719 L 22.070312 46.523438 L 20.910156 46.523438 L 20.910156 46.261719 C 20.910156 46.167969 20.835938 46.09375 20.742188 46.09375 C 20.648438 46.09375 20.570312 46.167969 20.570312 46.261719 L 20.570312 48.71875 L 19.992188 48.71875 L 19.992188 46.261719 C 19.992188 46.167969 19.914062 46.09375 19.820312 46.09375 C 19.773438 46.09375 19.730469 46.113281 19.695312 46.144531 C 19.667969 46.175781 19.648438 46.214844 19.648438 46.261719 L 19.648438 46.523438 L 18.492188 46.523438 L 18.492188 46.261719 C 18.492188 46.167969 18.414062 46.09375 18.324219 46.09375 C 18.230469 46.09375 18.152344 46.167969 18.152344 46.261719 L 18.152344 48.71875 L 17.566406 48.71875 L 17.566406 46.261719 C 17.566406 46.167969 17.488281 46.09375 17.394531 46.09375 C 17.347656 46.09375 17.308594 46.113281 17.277344 46.144531 C 17.246094 46.175781 17.226562 46.214844 17.226562 46.261719 L 17.226562 46.523438 L 16.066406 46.523438 L 16.066406 46.261719 C 16.066406 46.167969 15.988281 46.09375 15.898438 46.09375 C 15.804688 46.09375 15.726562 46.167969 15.726562 46.261719 L 15.726562 48.71875 L 15.144531 48.71875 L 15.144531 46.261719 C 15.144531 46.167969 15.070312 46.09375 14.976562 46.09375 C 14.882812 46.09375 14.804688 46.167969 14.804688 46.261719 L 14.804688 46.523438 L 13.648438 46.523438 L 13.648438 46.261719 C 13.648438 46.167969 13.570312 46.09375 13.476562 46.09375 C 13.386719 46.09375 13.304688 46.167969 13.304688 46.261719 L 13.304688 48.71875 L 12.734375 48.71875 L 12.734375 46.261719 C 12.734375 46.167969 12.660156 46.09375 12.566406 46.09375 C 12.472656 46.09375 12.394531 46.167969 12.394531 46.261719 L 12.394531 46.523438 L 12.339844 46.523438 L 12.339844 44.078125 L 12.910156 44.078125 L 12.910156 40.21875 L 12.671875 40.21875 L 8.648438 28.105469 L 8.640625 27.667969 C 8.769531 27.636719 8.863281 27.539062 8.863281 27.425781 C 8.863281 27.308594 8.765625 27.210938 8.632812 27.183594 L 8.625 26.9375 C 8.746094 26.90625 8.832031 26.8125 8.832031 26.707031 C 8.832031 26.59375 8.742188 26.5 8.617188 26.472656 L 8.601562 25.859375 C 8.6875 25.828125 8.753906 25.734375 8.753906 25.625 C 8.753906 25.496094 8.542969 25.25 8.542969 25.25 C 8.542969 25.25 8.339844 25.496094 8.339844 25.625 C 8.339844 25.734375 8.40625 25.828125 8.492188 25.859375 L 8.476562 26.472656 C 8.355469 26.5 8.261719 26.59375 8.261719 26.707031 C 8.261719 26.8125 8.347656 26.90625 8.46875 26.9375 L 8.460938 27.183594 C 8.328125 27.210938 8.230469 27.308594 8.230469 27.425781 C 8.230469 27.539062 8.324219 27.636719 8.453125 27.667969 L 8.449219 28.105469 L 4.414062 40.21875 L 4.183594 40.21875 L 4.183594 44.078125 L 4.753906 44.078125 L 4.753906 62.925781 L 2.289062 62.925781 L 2.207031 63.367188 L 0.207031 74.890625 L 241.265625 74.890625 L 239.464844 62.925781 " fill-opacity="1" fill-rule="nonzero"/></g><g fill="rgb(27.839661%, 20.779419%, 22.749329%)" fill-opacity="1"><g transform="translate(3.002423, 13.531184)"><g><path d="M 1 4.382812 L 1 4.398438 C 1.324219 4.8125 1.722656 5 2.121094 5 C 2.597656 5 3.074219 4.738281 3.351562 4.261719 C 3.582031 3.890625 4.089844 -3.800781 4.089844 -8.074219 C 4.089844 -9.042969 4.058594 -9.84375 4 -10.335938 C 3.890625 -11.105469 2.953125 -11.703125 2.03125 -11.703125 C 1.292969 -11.703125 0.570312 -11.304688 0.355469 -10.273438 C 0.230469 -9.351562 0.183594 -8.074219 0.183594 -6.660156 C 0.183594 -2.078125 0.691406 3.984375 1 4.382812 Z M 1.414062 4.089844 C 1.199219 3.566406 0.691406 -2.214844 0.691406 -6.660156 C 0.691406 -8.027344 0.738281 -9.257812 0.859375 -10.179688 C 1.015625 -10.917969 1.523438 -11.195312 2.046875 -11.195312 C 2.707031 -11.195312 3.429688 -10.75 3.492188 -10.273438 C 3.554688 -9.765625 3.582031 -8.980469 3.582031 -8.027344 C 3.582031 -3.8125 3.046875 3.582031 2.921875 4 C 2.738281 4.304688 2.445312 4.492188 2.136719 4.492188 C 1.890625 4.492188 1.628906 4.367188 1.414062 4.089844 Z M 1.414062 4.089844 "/></g></g></g><g fill="rgb(27.839661%, 20.779419%, 22.749329%)" fill-opacity="1"><g transform="translate(7.414822, 13.531184)"><g><path d="M 4.214844 5.691406 L 4.429688 5.691406 C 5.289062 5.691406 6.246094 5.320312 6.90625 4.707031 C 7.445312 4.214844 7.71875 3.628906 7.71875 3.015625 C 7.707031 1.476562 6.738281 0.832031 5.722656 0.152344 C 4.535156 -0.628906 3.199219 -1.523438 2.800781 -4.03125 C 2.785156 -4.167969 2.753906 -4.445312 2.753906 -4.8125 C 2.753906 -5.9375 2.984375 -7.84375 4.277344 -8.398438 C 4.382812 -8.445312 4.460938 -8.457031 4.523438 -8.457031 C 4.597656 -8.457031 4.644531 -8.429688 4.660156 -8.414062 C 5.015625 -8.183594 5.074219 -7.167969 5.074219 -6.121094 C 5.074219 -5.738281 5.074219 -5.351562 5.058594 -5 C 5.058594 -4.675781 5.042969 -4.367188 5.042969 -4.058594 C 5.042969 -3.582031 5.058594 -3.152344 5.121094 -2.828125 C 5.230469 -2.214844 5.582031 -1.816406 6.089844 -1.707031 C 6.183594 -1.691406 6.257812 -1.675781 6.351562 -1.675781 C 6.828125 -1.675781 7.320312 -1.9375 7.597656 -2.351562 C 8.121094 -3.121094 8.445312 -4.414062 8.445312 -5.765625 C 8.445312 -6.78125 8.257812 -7.828125 7.84375 -8.691406 C 7.242188 -9.921875 6.257812 -10.613281 4.984375 -10.6875 L 4.84375 -10.6875 C 3.582031 -10.6875 2.324219 -9.933594 1.351562 -8.550781 C 0.492188 -7.320312 -0.152344 -5.535156 -0.152344 -3.691406 C -0.152344 -2.738281 0.015625 -1.753906 0.414062 -0.832031 C 1.277344 1.183594 3.046875 1.753906 4.320312 2.167969 C 5.230469 2.460938 5.738281 2.644531 5.753906 3.046875 L 5.753906 3.0625 C 5.753906 3.367188 5.136719 3.738281 4.722656 3.738281 L 4.644531 3.738281 C 4.136719 3.738281 3.90625 3.460938 3.628906 3.089844 C 3.351562 2.707031 3.015625 2.261719 2.292969 2.261719 C 2.167969 2.261719 2.015625 2.277344 1.859375 2.308594 C 1.414062 2.398438 1.136719 2.785156 1.136719 3.308594 L 1.136719 3.382812 C 1.199219 4.382812 2.183594 5.519531 4.214844 5.691406 Z M 2.292969 2.785156 C 2.753906 2.785156 2.953125 3.046875 3.230469 3.398438 C 3.507812 3.785156 3.84375 4.261719 4.644531 4.261719 L 4.753906 4.261719 C 5.289062 4.246094 6.273438 3.753906 6.273438 3.046875 L 6.273438 3.03125 C 6.246094 2.246094 5.429688 1.984375 4.476562 1.675781 C 3.230469 1.261719 1.660156 0.753906 0.890625 -1.03125 C 0.523438 -1.890625 0.367188 -2.785156 0.367188 -3.675781 C 0.367188 -5.445312 0.984375 -7.136719 1.769531 -8.257812 C 2.644531 -9.488281 3.722656 -10.167969 4.8125 -10.167969 L 4.953125 -10.167969 C 6.042969 -10.105469 6.859375 -9.535156 7.382812 -8.457031 C 7.765625 -7.675781 7.9375 -6.707031 7.9375 -5.765625 C 7.9375 -4.523438 7.644531 -3.320312 7.183594 -2.644531 C 6.984375 -2.367188 6.644531 -2.183594 6.335938 -2.183594 C 6.289062 -2.183594 6.246094 -2.183594 6.199219 -2.199219 C 5.90625 -2.277344 5.707031 -2.523438 5.628906 -2.921875 C 5.582031 -3.199219 5.566406 -3.582031 5.566406 -4.03125 C 5.566406 -4.320312 5.582031 -4.660156 5.582031 -5 C 5.597656 -5.398438 5.597656 -5.796875 5.597656 -6.183594 C 5.597656 -7.445312 5.492188 -8.488281 4.953125 -8.84375 C 4.859375 -8.921875 4.722656 -8.980469 4.535156 -8.980469 C 4.398438 -8.980469 4.246094 -8.9375 4.058594 -8.859375 C 2.539062 -8.199219 2.230469 -6.089844 2.230469 -4.8125 C 2.230469 -4.429688 2.261719 -4.121094 2.292969 -3.9375 C 2.722656 -1.214844 4.230469 -0.214844 5.429688 0.585938 C 6.414062 1.230469 7.199219 1.753906 7.214844 3.015625 C 7.214844 3.597656 6.859375 4.042969 6.550781 4.320312 C 6 4.84375 5.152344 5.167969 4.429688 5.167969 L 4.246094 5.167969 C 2.414062 5.027344 1.707031 4.015625 1.660156 3.351562 L 1.660156 3.292969 C 1.660156 3.074219 1.738281 2.859375 1.953125 2.816406 C 2.078125 2.785156 2.183594 2.785156 2.292969 2.785156 Z M 2.292969 2.785156 "/></g></g></g><g fill="rgb(27.839661%, 20.779419%, 22.749329%)" fill-opacity="1"><g transform="translate(15.916763, 13.531184)"><g><path d="M 6.597656 7.675781 L 6.613281 7.675781 C 7.183594 7.675781 7.84375 7.429688 7.980469 6.96875 C 8.503906 5.199219 9.257812 -1.03125 9.257812 -5.566406 C 9.257812 -6.476562 9.226562 -7.289062 9.167969 -8.011719 C 10.210938 -8.152344 12.289062 -8.535156 12.964844 -8.828125 C 13.304688 -8.964844 13.519531 -9.289062 13.550781 -9.660156 L 13.550781 -9.703125 C 13.550781 -10.074219 13.363281 -10.382812 13.042969 -10.566406 C 12.320312 -10.996094 9.257812 -11.425781 6.183594 -11.425781 C 4.136719 -11.425781 2.089844 -11.226562 0.722656 -10.71875 C 0.308594 -10.550781 0.03125 -10.167969 0.03125 -9.734375 L 0.03125 -9.703125 C 0.0625 -9.210938 0.382812 -8.828125 0.90625 -8.675781 C 1.230469 -8.582031 3.398438 -8.042969 4.628906 -7.964844 C 4.507812 -6.089844 4.460938 -4.261719 4.460938 -2.570312 C 4.460938 2.445312 4.921875 6.273438 5.398438 6.96875 C 5.550781 7.414062 6 7.675781 6.597656 7.675781 Z M 6.246094 -10.90625 C 9.183594 -10.90625 12.105469 -10.503906 12.78125 -10.121094 C 12.933594 -10.027344 13.027344 -9.890625 13.027344 -9.734375 L 13.027344 -9.6875 C 13.011719 -9.519531 12.917969 -9.367188 12.765625 -9.304688 C 12.105469 -9.027344 9.828125 -8.597656 8.859375 -8.503906 C 8.796875 -8.488281 8.734375 -8.457031 8.691406 -8.414062 C 8.644531 -8.351562 8.628906 -8.289062 8.628906 -8.210938 C 8.703125 -7.445312 8.75 -6.535156 8.75 -5.535156 C 8.75 -1.0625 7.996094 5.058594 7.476562 6.828125 C 7.445312 6.9375 7.089844 7.152344 6.613281 7.152344 L 6.535156 7.152344 C 6.320312 7.152344 5.96875 7.089844 5.875 6.75 C 5.859375 6.722656 5.828125 6.675781 5.796875 6.660156 C 5.519531 6.304688 4.96875 2.785156 4.96875 -2.554688 C 4.96875 -4.261719 5.027344 -6.152344 5.167969 -8.199219 C 5.167969 -8.257812 5.152344 -8.335938 5.105469 -8.382812 C 5.042969 -8.445312 4.984375 -8.472656 4.90625 -8.472656 C 3.84375 -8.472656 1.367188 -9.089844 1.046875 -9.167969 C 0.753906 -9.257812 0.570312 -9.457031 0.554688 -9.71875 L 0.554688 -9.75 C 0.554688 -9.964844 0.691406 -10.152344 0.890625 -10.226562 C 2.214844 -10.71875 4.230469 -10.90625 6.246094 -10.90625 Z M 6.246094 -10.90625 "/></g></g></g><g fill="rgb(27.839661%, 20.779419%, 22.749329%)" fill-opacity="1"><g transform="translate(29.569057, 13.531184)"><g><path d="M 0.507812 3.292969 C 0.691406 4.167969 1.398438 4.566406 2.089844 4.566406 C 2.816406 4.566406 3.539062 4.152344 3.707031 3.414062 C 3.722656 3.398438 3.722656 3.367188 3.722656 3.335938 C 3.707031 3.089844 3.691406 2.753906 3.691406 2.382812 C 3.691406 1.539062 3.738281 0.585938 3.738281 0.460938 C 3.738281 0.398438 3.785156 0.292969 3.785156 0.292969 C 4.121094 0.09375 4.566406 0.015625 4.984375 0.015625 C 5.644531 0.015625 6.257812 0.183594 6.335938 0.324219 C 6.351562 0.601562 6.351562 0.832031 6.351562 1.0625 C 6.351562 1.890625 6.289062 2.523438 6.273438 3.445312 C 6.351562 4.03125 6.78125 4.289062 7.242188 4.289062 C 7.84375 4.289062 8.488281 3.875 8.535156 3.183594 C 8.675781 2.121094 8.78125 0.628906 8.78125 -0.96875 C 8.78125 -4.398438 8.304688 -8.367188 6.613281 -9.890625 C 6.152344 -10.304688 5.566406 -10.503906 4.984375 -10.503906 C 4.351562 -10.503906 3.722656 -10.273438 3.214844 -9.8125 C 1.445312 -8.183594 0.230469 -3.738281 0.230469 0.230469 C 0.230469 1.308594 0.308594 2.351562 0.507812 3.292969 Z M 1.015625 3.183594 C 0.832031 2.246094 0.738281 1.246094 0.738281 0.230469 C 0.738281 -3.769531 2.046875 -8.027344 3.566406 -9.441406 C 3.96875 -9.8125 4.476562 -9.996094 4.984375 -9.996094 C 5.445312 -9.996094 5.90625 -9.828125 6.273438 -9.503906 C 7.8125 -8.105469 8.257812 -4.289062 8.257812 -1 C 8.257812 0.613281 8.152344 2.105469 8.011719 3.121094 C 7.980469 3.523438 7.566406 3.785156 7.230469 3.785156 C 7.011719 3.785156 6.828125 3.675781 6.796875 3.429688 C 6.8125 2.539062 6.875 1.859375 6.875 1.0625 C 6.875 0.832031 6.875 0.601562 6.859375 0.339844 L 6.859375 0.292969 C 6.859375 0.167969 6.796875 0.015625 6.582031 -0.136719 C 6.257812 -0.339844 5.628906 -0.492188 4.984375 -0.492188 C 4.460938 -0.492188 3.921875 -0.398438 3.507812 -0.152344 C 3.320312 -0.015625 3.214844 0.261719 3.214844 0.460938 C 3.214844 0.554688 3.167969 1.523438 3.167969 2.382812 C 3.167969 2.738281 3.183594 3.074219 3.199219 3.335938 C 3.074219 3.800781 2.597656 4.058594 2.121094 4.058594 C 1.644531 4.058594 1.152344 3.785156 1.015625 3.183594 Z M 3.8125 -1 L 3.84375 -1 C 4.167969 -1.015625 5.042969 -1.046875 5.722656 -1.046875 C 6.105469 -1.046875 6.414062 -1.03125 6.519531 -1.015625 C 6.566406 -1 6.597656 -1 6.644531 -1 C 6.75 -1 6.828125 -1.046875 6.859375 -1.078125 C 6.9375 -1.121094 7.011719 -1.230469 7.011719 -1.398438 C 7.027344 -1.90625 7.042969 -2.492188 7.042969 -3.089844 C 7.042969 -5.566406 6.78125 -8.414062 5.320312 -8.414062 L 5.214844 -8.414062 C 3.675781 -8.289062 3.335938 -3.523438 3.335938 -1.722656 L 3.335938 -1.492188 C 3.335938 -1.367188 3.335938 -1.230469 3.445312 -1.121094 C 3.554688 -1 3.691406 -1 3.8125 -1 Z M 5.261719 -7.90625 L 5.304688 -7.90625 C 6.367188 -7.90625 6.519531 -4.335938 6.519531 -2.429688 C 6.519531 -2.0625 6.503906 -1.753906 6.503906 -1.539062 C 6.320312 -1.554688 6.058594 -1.554688 5.738281 -1.554688 C 5.027344 -1.554688 4.152344 -1.523438 3.859375 -1.507812 L 3.859375 -1.707031 C 3.859375 -3.246094 4.167969 -7.8125 5.261719 -7.90625 Z M 5.261719 -7.90625 "/></g></g></g><g fill="rgb(27.839661%, 20.779419%, 22.749329%)" fill-opacity="1"><g transform="translate(38.947328, 13.531184)"><g><path d="M 2.382812 6.460938 C 2.9375 6.460938 3.429688 6.074219 3.722656 5.382812 C 4.304688 4.015625 4.476562 -1.628906 4.550781 -4.335938 L 4.550781 -4.460938 C 4.644531 -4.214844 4.722656 -3.953125 4.8125 -3.691406 C 6.105469 0.0625 7.503906 3.738281 9.351562 3.953125 L 9.488281 3.953125 C 9.90625 3.953125 10.273438 3.769531 10.613281 3.414062 C 12.164062 1.722656 12.65625 -3.96875 12.65625 -7.550781 C 12.65625 -8.796875 12.597656 -9.796875 12.503906 -10.273438 C 12.273438 -11.382812 11.457031 -11.875 10.75 -11.875 L 10.734375 -11.875 C 9.90625 -11.875 9.226562 -11.242188 9.011719 -10.242188 C 8.675781 -8.675781 8.382812 -3.183594 8.242188 -0.570312 L 8.011719 -1.214844 C 6.796875 -4.445312 5.738281 -7.242188 4.398438 -9.921875 C 3.800781 -11.089844 3.089844 -11.351562 2.554688 -11.351562 L 2.414062 -11.351562 C 1.554688 -11.257812 0.890625 -10.519531 0.753906 -10.027344 C 0.324219 -8.488281 0.09375 -5.722656 0.09375 -2.875 C 0.09375 0.136719 0.355469 3.246094 0.921875 5.105469 C 1.136719 5.875 1.660156 6.398438 2.292969 6.445312 C 2.324219 6.460938 2.351562 6.460938 2.382812 6.460938 Z M 2.460938 -10.84375 L 2.570312 -10.84375 C 3.214844 -10.84375 3.675781 -10.226562 3.9375 -9.6875 C 5.273438 -7.042969 6.320312 -4.261719 7.519531 -1.03125 L 8.199219 0.769531 C 8.226562 0.847656 8.304688 0.90625 8.382812 0.921875 L 8.445312 0.921875 C 8.503906 0.921875 8.566406 0.90625 8.613281 0.859375 C 8.691406 0.785156 8.691406 0.785156 8.734375 -0.046875 C 8.84375 -2.136719 9.167969 -8.503906 9.519531 -10.136719 C 9.703125 -11.042969 10.273438 -11.351562 10.734375 -11.351562 C 11.242188 -11.351562 11.828125 -10.996094 11.996094 -10.179688 C 12.089844 -9.71875 12.148438 -8.75 12.148438 -7.550781 C 12.148438 -4.058594 11.671875 1.492188 10.226562 3.0625 C 10.011719 3.308594 9.765625 3.429688 9.503906 3.429688 L 9.414062 3.429688 C 7.734375 3.246094 6.152344 -1.367188 5.304688 -3.859375 C 4.8125 -5.304688 4.675781 -5.675781 4.492188 -5.8125 C 4.445312 -5.859375 4.382812 -5.875 4.320312 -5.875 C 4.304688 -5.875 4.277344 -5.875 4.246094 -5.859375 C 4.152344 -5.8125 4.089844 -5.738281 4.074219 -5.644531 C 4.058594 -5.550781 4.058594 -5.183594 4.03125 -4.351562 C 3.953125 -1.875 3.785156 3.90625 3.246094 5.183594 C 3.046875 5.660156 2.722656 5.9375 2.382812 5.9375 L 2.335938 5.9375 C 1.9375 5.90625 1.570312 5.519531 1.429688 4.96875 C 0.859375 3.136719 0.601562 0.078125 0.601562 -2.875 C 0.601562 -5.675781 0.832031 -8.382812 1.261719 -9.890625 C 1.351562 -10.226562 1.875 -10.78125 2.460938 -10.84375 Z M 2.460938 -10.84375 "/></g></g></g><g fill="rgb(27.839661%, 20.779419%, 22.749329%)" fill-opacity="1"><g transform="translate(51.800163, 13.531184)"><g><path d="M 1.046875 5.890625 C 1.246094 6.78125 2.03125 7.058594 2.785156 7.058594 C 3.445312 7.058594 4.058594 6.84375 4.230469 6.613281 L 4.289062 6.550781 C 4.320312 6.550781 4.382812 6.566406 4.460938 6.597656 C 5.015625 6.75 5.550781 6.828125 6.089844 6.828125 C 7.304688 6.828125 8.414062 6.429688 9.226562 5.628906 C 9.949219 4.921875 10.335938 4.03125 10.335938 3.074219 C 10.335938 2.769531 10.304688 2.476562 10.226562 2.167969 C 9.8125 0.523438 8.429688 -0.183594 6.9375 -0.570312 C 9.273438 -1.628906 10.519531 -4.167969 10.519531 -6.566406 C 10.519531 -8.613281 9.613281 -10.566406 7.707031 -11.441406 C 7.152344 -11.703125 6.628906 -11.796875 6.183594 -11.796875 C 5.460938 -11.796875 4.890625 -11.566406 4.566406 -11.382812 C 4.277344 -11.796875 3.445312 -12.058594 2.582031 -12.058594 C 1.539062 -12.058594 0.429688 -11.65625 0.261719 -10.582031 C 0.109375 -8.089844 0.015625 -5.84375 0.015625 -3.84375 C 0.015625 0.308594 0.367188 3.460938 1.046875 5.890625 Z M 0.769531 -10.519531 C 0.890625 -11.289062 1.753906 -11.535156 2.582031 -11.535156 C 3.398438 -11.535156 4.167969 -11.289062 4.167969 -11.027344 L 4.167969 -10.980469 C 4.167969 -10.890625 4.230469 -10.796875 4.304688 -10.75 C 4.335938 -10.734375 4.382812 -10.71875 4.414062 -10.71875 C 4.476562 -10.71875 4.535156 -10.75 4.582031 -10.78125 C 4.597656 -10.796875 5.214844 -11.289062 6.167969 -11.289062 C 6.550781 -11.289062 6.996094 -11.210938 7.488281 -10.980469 C 9.183594 -10.210938 9.996094 -8.429688 9.996094 -6.550781 C 9.996094 -4.089844 8.597656 -1.476562 5.953125 -0.769531 C 5.84375 -0.738281 5.765625 -0.644531 5.765625 -0.539062 L 5.765625 -0.507812 C 5.765625 -0.382812 5.84375 -0.277344 5.96875 -0.261719 C 7.582031 0.0625 9.304688 0.613281 9.734375 2.292969 C 9.796875 2.554688 9.828125 2.800781 9.828125 3.0625 C 9.828125 3.875 9.503906 4.660156 8.875 5.261719 C 8.152344 5.953125 7.167969 6.304688 6.089844 6.304688 C 5.597656 6.304688 5.089844 6.246094 4.566406 6.089844 C 4.492188 6.058594 4.382812 6.027344 4.277344 6.027344 C 4.136719 6.027344 3.96875 6.089844 3.828125 6.304688 C 3.691406 6.429688 3.261719 6.550781 2.816406 6.550781 C 2.261719 6.550781 1.675781 6.367188 1.539062 5.765625 C 0.859375 3.382812 0.539062 0.246094 0.539062 -3.828125 C 0.539062 -5.828125 0.613281 -8.042969 0.769531 -10.519531 Z M 3.9375 4.769531 C 3.953125 5.519531 4.8125 5.90625 5.722656 5.90625 C 6.335938 5.90625 6.96875 5.722656 7.367188 5.351562 C 7.875 4.875 8.152344 4.121094 8.152344 3.320312 C 8.152344 1.953125 7.335938 0.492188 5.550781 0.355469 C 5.476562 0.355469 5.367188 0.339844 5.261719 0.339844 C 4.890625 0.339844 4.382812 0.414062 4.074219 0.707031 C 3.90625 0.859375 3.800781 1.09375 3.800781 1.351562 L 3.800781 1.398438 C 3.800781 1.570312 3.785156 1.738281 3.785156 1.90625 C 3.785156 2.84375 3.890625 3.800781 3.9375 4.769531 Z M 5.261719 0.859375 C 5.335938 0.859375 5.429688 0.859375 5.519531 0.875 C 7.011719 1 7.628906 2.199219 7.628906 3.308594 C 7.628906 3.984375 7.398438 4.628906 7.011719 4.984375 C 6.707031 5.261719 6.246094 5.382812 5.796875 5.382812 C 5.105469 5.382812 4.460938 5.105469 4.445312 4.753906 C 4.398438 3.828125 4.289062 2.84375 4.289062 1.90625 C 4.289062 1.738281 4.304688 1.570312 4.304688 1.398438 C 4.304688 1.261719 4.351562 1.152344 4.429688 1.078125 C 4.582031 0.9375 4.875 0.859375 5.261719 0.859375 Z M 4.382812 -0.800781 C 4.628906 -0.800781 4.890625 -0.875 5.015625 -0.953125 C 6.984375 -2.089844 8.027344 -4.875 8.027344 -7.167969 C 8.027344 -8.949219 7.398438 -10.425781 6.042969 -10.597656 L 5.890625 -10.597656 C 5.167969 -10.597656 4.183594 -10.273438 4.089844 -9.6875 C 3.984375 -9.011719 3.859375 -5.535156 3.859375 -3.03125 C 3.859375 -2.308594 3.859375 -1.675781 3.890625 -1.199219 L 3.890625 -1.152344 C 3.890625 -1.046875 3.9375 -0.9375 4.03125 -0.875 C 4.121094 -0.816406 4.246094 -0.800781 4.382812 -0.800781 Z M 5.875 -10.089844 L 6 -10.089844 C 7.011719 -9.964844 7.503906 -8.71875 7.503906 -7.199219 C 7.503906 -5.089844 6.566406 -2.445312 4.753906 -1.398438 C 4.675781 -1.351562 4.507812 -1.324219 4.398438 -1.308594 C 4.382812 -1.738281 4.367188 -2.292969 4.367188 -2.90625 C 4.367188 -5.398438 4.507812 -8.964844 4.597656 -9.613281 C 4.628906 -9.796875 5.261719 -10.089844 5.875 -10.089844 Z M 5.875 -10.089844 "/></g></g></g><g fill="rgb(27.839661%, 20.779419%, 22.749329%)" fill-opacity="1"><g transform="translate(62.638985, 13.531184)"><g><path d="M 7.613281 5.121094 C 7.71875 5.121094 7.84375 5.105469 7.964844 5.058594 C 8.257812 4.96875 8.503906 4.78125 8.703125 4.507812 C 9.644531 3.152344 10.320312 -1.644531 10.320312 -5.214844 C 10.320312 -6.796875 10.179688 -8.136719 9.890625 -8.828125 C 9.703125 -9.304688 8.996094 -9.597656 8.367188 -9.597656 C 8.226562 -9.597656 8.089844 -9.582031 7.964844 -9.550781 C 7.488281 -9.457031 7.214844 -9.167969 7.214844 -8.75 L 7.214844 -8.71875 C 7.230469 -8.550781 7.230469 -8.351562 7.230469 -8.136719 C 7.230469 -5.644531 6.722656 0 6.722656 0.0625 C 6.628906 1.183594 6.058594 2.828125 5.121094 2.84375 C 4.78125 2.84375 4.507812 2.753906 4.304688 2.539062 C 3.921875 2.136719 3.800781 1.339844 3.800781 0.367188 C 3.800781 -0.601562 3.921875 -1.738281 4.042969 -2.84375 C 4.167969 -4.042969 4.289062 -5.273438 4.289062 -6.382812 C 4.289062 -7.503906 4.167969 -8.488281 3.769531 -9.195312 L 3.769531 -9.210938 C 3.492188 -9.6875 2.785156 -9.890625 2.167969 -9.890625 C 2.089844 -9.890625 2 -9.875 1.921875 -9.875 C 1.246094 -9.8125 0.785156 -9.535156 0.628906 -9.121094 C 0.214844 -8.152344 -0.015625 -6.152344 -0.015625 -4.03125 C -0.015625 -1.351562 0.355469 1.523438 1.199219 2.785156 C 1.859375 3.785156 3.03125 4.382812 4.304688 4.398438 L 4.429688 4.398438 C 5.320312 4.398438 6.121094 4.074219 6.722656 3.554688 C 6.738281 4.152344 6.828125 4.722656 7.183594 4.984375 C 7.273438 5.042969 7.429688 5.121094 7.613281 5.121094 Z M 6.984375 2.597656 C 6.90625 2.597656 6.828125 2.644531 6.78125 2.707031 C 6.273438 3.445312 5.351562 3.859375 4.304688 3.875 C 3.199219 3.875 2.199219 3.351562 1.628906 2.492188 C 0.847656 1.339844 0.507812 -1.398438 0.507812 -3.96875 C 0.507812 -6.042969 0.738281 -8.011719 1.121094 -8.9375 C 1.199219 -9.152344 1.523438 -9.320312 1.96875 -9.367188 C 2.046875 -9.367188 2.105469 -9.382812 2.183594 -9.382812 C 2.691406 -9.382812 3.167969 -9.195312 3.308594 -8.949219 C 3.660156 -8.335938 3.785156 -7.445312 3.785156 -6.398438 C 3.785156 -5.320312 3.644531 -4.089844 3.523438 -2.890625 C 3.398438 -1.753906 3.292969 -0.644531 3.292969 0.324219 C 3.292969 1.445312 3.445312 2.367188 3.921875 2.890625 C 4.230469 3.214844 4.628906 3.351562 5.136719 3.367188 C 6.476562 3.351562 7.136719 1.351562 7.230469 0.109375 C 7.242188 0.046875 7.734375 -5.613281 7.734375 -8.136719 C 7.734375 -8.367188 7.734375 -8.582031 7.71875 -8.75 C 7.71875 -8.796875 7.71875 -8.980469 8.074219 -9.058594 C 8.152344 -9.074219 8.242188 -9.089844 8.335938 -9.089844 C 8.796875 -9.089844 9.304688 -8.890625 9.414062 -8.644531 C 9.6875 -7.996094 9.8125 -6.75 9.8125 -5.261719 C 9.8125 -1.800781 9.152344 2.9375 8.273438 4.214844 C 8.152344 4.382812 7.996094 4.507812 7.796875 4.566406 C 7.71875 4.597656 7.675781 4.597656 7.628906 4.597656 C 7.550781 4.597656 7.503906 4.582031 7.488281 4.566406 C 7.273438 4.398438 7.230469 3.859375 7.230469 3.382812 C 7.230469 3.183594 7.242188 3.015625 7.242188 2.875 L 7.242188 2.84375 C 7.242188 2.738281 7.167969 2.644531 7.074219 2.613281 C 7.042969 2.597656 7.011719 2.597656 6.984375 2.597656 Z M 6.984375 2.597656 "/></g></g></g><g fill="rgb(27.839661%, 20.779419%, 22.749329%)" fill-opacity="1"><g transform="translate(73.078078, 13.531184)"><g><path d="M 4.074219 4.84375 C 5.042969 4.84375 6.199219 4.738281 7.429688 4.613281 C 7.828125 4.566406 8.074219 4.335938 8.089844 3.984375 L 8.089844 3.96875 C 8.089844 3.199219 6.8125 3.015625 5.476562 2.800781 C 4.921875 2.722656 4.351562 2.628906 3.9375 2.507812 C 3.769531 2.476562 3.707031 2.429688 3.707031 2.308594 C 3.707031 2.277344 3.722656 2.230469 3.722656 2.183594 L 3.722656 2.167969 C 3.828125 1.136719 4.246094 -3.828125 4.246094 -7.027344 C 4.246094 -8.167969 4.199219 -9.074219 4.058594 -9.503906 C 3.769531 -10.425781 2.96875 -10.734375 2.261719 -10.734375 L 2.105469 -10.734375 C 1.339844 -10.671875 0.492188 -10.210938 0.382812 -9.441406 C 0.246094 -8.414062 0.183594 -7.199219 0.183594 -5.90625 C 0.183594 -2.167969 0.675781 2.078125 1.03125 3.382812 C 1.292969 4.523438 2.429688 4.84375 4.074219 4.84375 Z M 2.277344 -10.226562 C 2.628906 -10.226562 3.335938 -10.121094 3.566406 -9.367188 C 3.675781 -8.996094 3.722656 -8.152344 3.722656 -7.089844 C 3.722656 -4.167969 3.398438 0.476562 3.214844 2.105469 C 3.214844 2.167969 3.199219 2.230469 3.199219 2.277344 C 3.199219 2.675781 3.398438 2.90625 3.800781 3.015625 C 4.230469 3.136719 4.796875 3.230469 5.398438 3.320312 C 6.167969 3.429688 7.582031 3.644531 7.582031 3.953125 C 7.566406 4 7.566406 4.074219 7.382812 4.105469 C 6.089844 4.230469 4.984375 4.320312 4.089844 4.320312 C 2.613281 4.320312 1.722656 4.058594 1.539062 3.261719 C 1.183594 1.96875 0.691406 -2.230469 0.691406 -5.90625 C 0.691406 -7.167969 0.753906 -8.367188 0.890625 -9.367188 C 0.953125 -9.796875 1.492188 -10.167969 2.152344 -10.210938 C 2.183594 -10.210938 2.230469 -10.226562 2.277344 -10.226562 Z M 2.277344 -10.226562 "/></g></g></g></svg>