<svg xmlns="http://www.w3.org/2000/svg" xmlns:xlink="http://www.w3.org/1999/xlink" width="150" zoomAndPan="magnify" viewBox="0 0 112.5 37.5" height="50" preserveAspectRatio="xMidYMid meet" version="1.0"><defs><g><g id="id1"/></g><clipPath id="id2"><path d="M 4 0 L 35 0 L 35 28.992188 L 4 28.992188 Z M 4 0 " clip-rule="nonzero"/></clipPath><clipPath id="id3"><path d="M 0.492188 31 L 5 31 L 5 37 L 0.492188 37 Z M 0.492188 31 " clip-rule="nonzero"/></clipPath></defs><g clip-path="url(#id2)"><path fill="rgb(27.839661%, 20.779419%, 22.749329%)" d="M 29.984375 6.917969 C 25.769531 6.425781 24.421875 8.1875 23.113281 9.921875 C 22.953125 10.128906 21.34375 12.15625 21.1875 11.953125 C 20.976562 11.605469 22.496094 9.378906 22.742188 9.050781 C 23.414062 8.15625 24.179688 7.289062 24.835938 6.476562 C 25.695312 5.410156 26.363281 4.433594 26.363281 3.605469 C 26.363281 2.398438 25.550781 1.433594 24.628906 1.3125 C 21.53125 0.910156 22.21875 0.00390625 18.761719 2.554688 C 16.710938 4.074219 16.789062 4.925781 16.921875 9.484375 C 16.933594 9.960938 16.660156 9.96875 16.429688 9.6875 C 14.640625 7.519531 15.171875 3.738281 12.359375 3.296875 C 11.832031 3.214844 11.371094 3.273438 10.96875 3.410156 C 10.5 3.574219 10.105469 3.84375 9.769531 4.121094 C 9.332031 4.480469 8.988281 4.851562 8.691406 5.011719 C 5.824219 6.546875 5.878906 10.640625 8.089844 13.023438 C 9.863281 14.929688 11.613281 14.257812 12.964844 15.359375 C 13.058594 15.433594 13.214844 15.511719 13.171875 15.644531 C 12.976562 16.226562 11.78125 15.433594 9.550781 15.433594 C 7.410156 15.433594 5.148438 16.089844 4.835938 17.9375 C 4.628906 19.140625 3.742188 19.925781 4.484375 21.644531 C 5.546875 24.113281 6.242188 23.539062 7.546875 24.421875 C 8.25 24.902344 9.035156 25.019531 9.832031 24.886719 C 12.710938 24.40625 15.789062 20.671875 16.238281 18.96875 C 16.308594 18.714844 16.339844 18.53125 16.28125 18.425781 C 16.191406 18.273438 16.039062 18.746094 15.957031 18.910156 C 15.5625 19.71875 15.234375 20.585938 14.5625 21.210938 C 12.085938 23.527344 10.820312 24.148438 9.894531 24.148438 C 8.945312 24.148438 8.347656 23.535156 7.175781 23.347656 C 5.214844 23.027344 5.035156 21.460938 5.035156 19.824219 C 5.035156 18.503906 5.425781 17.226562 6.027344 16.796875 C 9.207031 14.519531 11.59375 16.601562 13.417969 15.949219 C 13.691406 15.851562 13.757812 15.707031 13.554688 15.421875 C 12.578125 14.070312 10.476562 14.296875 9.015625 12.855469 C 8.089844 11.945312 7.34375 10.9375 7.449219 7.300781 C 7.46875 6.59375 7.65625 5.890625 10.355469 4.125 C 11.636719 3.285156 12.535156 3.378906 13.203125 3.941406 C 13.875 4.507812 14.316406 5.542969 14.675781 6.582031 C 15.074219 7.726562 15.378906 8.878906 15.785156 9.417969 C 17.703125 11.953125 17.492188 8.234375 17.796875 5.472656 C 17.910156 4.4375 18.261719 3.523438 19.230469 2.921875 C 19.800781 2.570312 20.328125 2.140625 20.851562 1.71875 C 21.972656 0.808594 22.597656 1.476562 24.367188 1.648438 C 25.664062 1.773438 26.421875 3.265625 25.835938 4.410156 C 25.519531 5.035156 20.886719 10.335938 20.769531 11.683594 C 20.769531 11.691406 20.769531 11.699219 20.765625 11.703125 C 20.765625 11.722656 20.769531 11.742188 20.769531 11.765625 C 20.769531 11.777344 20.769531 11.789062 20.769531 11.800781 C 20.777344 12.046875 20.847656 12.320312 21.089844 12.425781 C 21.097656 12.429688 21.097656 12.425781 21.101562 12.425781 C 21.351562 12.5625 22.503906 11.730469 23.691406 9.859375 C 25.5625 6.898438 30.257812 6.539062 32.242188 9.289062 C 34.96875 13.078125 32.132812 13.789062 31.945312 16.449219 C 31.734375 19.402344 24.628906 17.082031 22.957031 15.675781 C 22.230469 15.0625 21.054688 15.289062 21.332031 16.242188 C 21.980469 18.453125 26.128906 19.238281 26.242188 25.183594 C 26.304688 28.425781 22.078125 26.980469 21.605469 27.546875 C 21.234375 27.988281 20.789062 27.96875 20.335938 27.695312 C 15.105469 24.527344 17.71875 18.117188 17.996094 17.046875 C 18.378906 15.558594 16.773438 17.035156 16.019531 14.949219 C 15.492188 13.5 17.210938 12.1875 18.328125 12.1875 C 19.59375 12.1875 19.570312 15.101562 18.832031 15.859375 C 18.707031 15.984375 18.492188 16.121094 18.679688 16.320312 C 18.832031 16.480469 19 16.324219 19.140625 16.234375 C 21.230469 14.894531 20.457031 11.664062 18.648438 11.707031 C 17.382812 11.738281 15.46875 12.503906 15.523438 14.421875 C 15.542969 15.144531 15.773438 16.066406 16.539062 16.34375 C 17.132812 16.558594 17.757812 16.414062 17.5625 17.027344 C 16.261719 21.113281 16.125 25.480469 20.027344 28.070312 C 21.417969 28.992188 21.34375 27.792969 23.03125 27.859375 C 30.050781 28.117188 27.917969 19.554688 21.941406 16.179688 C 21.578125 15.976562 21.777344 15.605469 22.136719 15.726562 C 22.78125 15.945312 25.730469 17.753906 27.753906 17.992188 C 34.25 18.75 31.859375 16.515625 33.636719 14.203125 C 35.703125 11.523438 33.363281 7.3125 29.984375 6.917969 " fill-opacity="1" fill-rule="evenodd"/></g><g clip-path="url(#id3)"><g fill="rgb(27.839661%, 20.779419%, 22.749329%)" fill-opacity="1"><g transform="translate(0.689815, 36.354401)"><g><path d="M 3.878906 -4.871094 L 0.105469 -4.871094 L 0.105469 -4.839844 C 0.390625 -4.804688 0.632812 -4.726562 0.632812 -4.476562 L 0.632812 -0.535156 C 0.632812 -0.285156 0.390625 -0.140625 0.105469 -0.0351562 L 0.105469 0 L 1.871094 0 L 1.871094 -0.0351562 C 1.585938 -0.0703125 1.34375 -0.144531 1.34375 -0.398438 L 1.34375 -2.3125 L 2.351562 -2.3125 C 3.089844 -2.3125 3.300781 -2.125 3.464844 -1.609375 L 3.464844 -3.125 C 3.300781 -2.609375 3.089844 -2.421875 2.351562 -2.421875 L 1.34375 -2.421875 L 1.34375 -4.761719 L 2.554688 -4.761719 C 3.328125 -4.761719 3.613281 -4.414062 4.078125 -3.753906 L 4.105469 -3.765625 Z M 3.878906 -4.871094 "/></g></g></g></g><g fill="rgb(27.839661%, 20.779419%, 22.749329%)" fill-opacity="1"><g transform="translate(6.077732, 36.354401)"><g><path d="M 4.113281 -1.355469 C 3.597656 -0.550781 3.265625 -0.113281 2.304688 -0.113281 L 1.34375 -0.113281 L 1.34375 -4.476562 C 1.34375 -4.726562 1.585938 -4.804688 1.941406 -4.839844 L 1.941406 -4.871094 L 0.105469 -4.871094 L 0.105469 -4.839844 C 0.390625 -4.804688 0.632812 -4.726562 0.632812 -4.476562 L 0.632812 -0.535156 C 0.632812 -0.285156 0.390625 -0.140625 0.105469 -0.0351562 L 0.105469 0 L 3.523438 0 L 3.757812 0.152344 L 3.800781 0 L 4.140625 -1.34375 Z M 4.113281 -1.355469 "/></g></g></g><g fill="rgb(27.839661%, 20.779419%, 22.749329%)" fill-opacity="1"><g transform="translate(11.46565, 36.354401)"><g><path d="M 2.9375 -4.96875 C 1.484375 -4.96875 0.3125 -4.003906 0.3125 -2.4375 C 0.3125 -0.871094 1.484375 0.0976562 2.9375 0.0976562 C 4.386719 0.0976562 5.554688 -0.871094 5.554688 -2.4375 C 5.554688 -4.003906 4.386719 -4.96875 2.9375 -4.96875 Z M 3.214844 -0.0273438 C 1.964844 -0.0273438 1.066406 -1.449219 1.066406 -2.855469 C 1.066406 -4.03125 1.691406 -4.84375 2.652344 -4.84375 C 3.90625 -4.84375 4.804688 -3.425781 4.804688 -2.027344 C 4.804688 -0.84375 4.175781 -0.0273438 3.214844 -0.0273438 Z M 3.214844 -0.0273438 "/></g></g></g><g fill="rgb(27.839661%, 20.779419%, 22.749329%)" fill-opacity="1"><g transform="translate(18.475513, 36.354401)"><g><path d="M 3.871094 -0.917969 L 3.007812 -2.089844 C 3.863281 -2.296875 4.386719 -2.867188 4.386719 -3.59375 C 4.386719 -4.449219 3.667969 -4.871094 2.546875 -4.871094 L 0.105469 -4.871094 L 0.105469 -4.839844 C 0.390625 -4.804688 0.632812 -4.726562 0.632812 -4.476562 L 0.632812 -0.398438 C 0.632812 -0.144531 0.390625 -0.0703125 0.105469 -0.0351562 L 0.105469 0 L 1.871094 0 L 1.871094 -0.0351562 C 1.585938 -0.0703125 1.34375 -0.144531 1.34375 -0.398438 L 1.34375 -1.996094 L 2.289062 -1.996094 L 3.648438 -0.117188 L 3.648438 0 L 4.90625 0 L 4.90625 -0.0195312 C 4.546875 -0.203125 4.28125 -0.355469 3.871094 -0.917969 Z M 1.34375 -2.277344 L 1.34375 -4.746094 L 2.171875 -4.746094 C 3.480469 -4.746094 3.6875 -4.03125 3.6875 -3.335938 C 3.6875 -2.367188 3.300781 -2.125 2.4375 -2.125 C 2.058594 -2.125 1.710938 -2.171875 1.34375 -2.277344 Z M 1.34375 -2.277344 "/></g></g></g><g fill="rgb(27.839661%, 20.779419%, 22.749329%)" fill-opacity="1"><g transform="translate(24.455126, 36.354401)"><g><path d="M 0.105469 0 L 1.871094 0 L 1.871094 -0.0351562 C 1.585938 -0.0703125 1.34375 -0.144531 1.34375 -0.398438 L 1.34375 -4.476562 C 1.34375 -4.726562 1.585938 -4.804688 1.871094 -4.839844 L 1.871094 -4.871094 L 0.105469 -4.871094 L 0.105469 -4.839844 C 0.390625 -4.804688 0.632812 -4.726562 0.632812 -4.476562 L 0.632812 -0.398438 C 0.632812 -0.144531 0.390625 -0.0703125 0.105469 -0.0351562 Z M 0.105469 0 "/></g></g></g><g fill="rgb(27.839661%, 20.779419%, 22.749329%)" fill-opacity="1"><g transform="translate(27.573706, 36.354401)"><g><path d="M 2.386719 -2.777344 C 1.65625 -2.945312 0.980469 -3.179688 0.980469 -3.976562 C 0.980469 -4.449219 1.21875 -4.851562 1.878906 -4.851562 C 2.660156 -4.851562 3.375 -4.296875 3.265625 -3.355469 L 3.882812 -4.335938 C 3.515625 -4.691406 2.984375 -4.96875 2.191406 -4.96875 C 1.101562 -4.96875 0.417969 -4.441406 0.417969 -3.632812 C 0.417969 -3.070312 0.746094 -2.414062 2.058594 -2.101562 C 2.890625 -1.90625 3.417969 -1.71875 3.417969 -1.015625 C 3.417969 -0.5625 3.203125 -0.0273438 2.402344 -0.0273438 C 1.574219 -0.0273438 0.78125 -0.585938 0.882812 -1.523438 L 0.277344 -0.558594 C 0.65625 -0.195312 1.28125 0.0976562 2.09375 0.0976562 C 3.320312 0.0976562 3.96875 -0.570312 3.96875 -1.355469 C 3.96875 -1.84375 3.722656 -2.472656 2.386719 -2.777344 Z M 2.386719 -2.777344 "/></g></g></g><g fill="rgb(27.839661%, 20.779419%, 22.749329%)" fill-opacity="1"><g transform="translate(32.961622, 36.354401)"><g><path d="M 4.734375 -4.871094 L 0.300781 -4.871094 L 0.0703125 -3.4375 L 0.0976562 -3.4375 C 0.5 -4.386719 0.792969 -4.769531 1.851562 -4.769531 L 2.011719 -4.769531 L 2.011719 -0.464844 C 2.011719 -0.144531 1.769531 -0.0703125 1.34375 -0.0351562 L 1.34375 0 L 3.390625 0 L 3.390625 -0.0351562 C 2.964844 -0.0703125 2.722656 -0.144531 2.722656 -0.464844 L 2.722656 -4.769531 L 3.230469 -4.769531 C 3.945312 -4.769531 4.351562 -4.386719 4.261719 -3.4375 L 4.289062 -3.4375 Z M 4.734375 -4.871094 "/></g></g></g><g fill="rgb(27.839661%, 20.779419%, 22.749329%)" fill-opacity="1"><g transform="translate(41.079561, 23.789473)"><g><path d="M 12.234375 -2.75 C 12.273438 -2.738281 12.296875 -2.707031 12.296875 -2.65625 C 12.296875 -2.601562 12.285156 -2.546875 12.265625 -2.484375 C 12.242188 -2.429688 12.226562 -2.390625 12.21875 -2.359375 C 11.8125 -1.410156 11.332031 -0.503906 10.78125 0.359375 C 10.226562 1.222656 9.566406 1.988281 8.796875 2.65625 C 8.378906 2.988281 7.941406 3.289062 7.484375 3.5625 C 7.035156 3.84375 6.550781 4.078125 6.03125 4.265625 C 5.695312 4.378906 5.394531 4.457031 5.125 4.5 C 4.851562 4.550781 4.535156 4.578125 4.171875 4.578125 C 3.972656 4.578125 3.769531 4.566406 3.5625 4.546875 C 3.363281 4.535156 3.15625 4.503906 2.9375 4.453125 C 1.976562 4.171875 1.257812 3.582031 0.78125 2.6875 C 0.625 2.375 0.5 2.054688 0.40625 1.734375 C 0.320312 1.410156 0.257812 1.085938 0.21875 0.765625 C 0.101562 -0.109375 0.0976562 -0.96875 0.203125 -1.8125 C 0.335938 -2.976562 0.570312 -4.097656 0.90625 -5.171875 C 1.25 -6.253906 1.679688 -7.296875 2.203125 -8.296875 C 2.765625 -9.398438 3.457031 -10.410156 4.28125 -11.328125 C 4.84375 -11.972656 5.488281 -12.519531 6.21875 -12.96875 C 6.757812 -13.3125 7.363281 -13.539062 8.03125 -13.65625 C 8.320312 -13.707031 8.617188 -13.691406 8.921875 -13.609375 C 9.390625 -13.492188 9.6875 -13.207031 9.8125 -12.75 C 9.90625 -12.375 9.90625 -11.910156 9.8125 -11.359375 C 9.726562 -10.804688 9.585938 -10.226562 9.390625 -9.625 C 9.191406 -9.019531 8.972656 -8.460938 8.734375 -7.953125 C 8.503906 -7.441406 8.289062 -7.03125 8.09375 -6.71875 C 8.03125 -6.644531 7.957031 -6.597656 7.875 -6.578125 C 7.789062 -6.566406 7.703125 -6.570312 7.609375 -6.59375 C 7.554688 -6.613281 7.507812 -6.644531 7.46875 -6.6875 C 7.4375 -6.726562 7.429688 -6.769531 7.453125 -6.8125 C 7.472656 -6.875 7.5 -6.929688 7.53125 -6.984375 C 7.539062 -7.023438 7.554688 -7.0625 7.578125 -7.09375 C 7.648438 -7.269531 7.734375 -7.460938 7.828125 -7.671875 C 8.035156 -8.140625 8.253906 -8.648438 8.484375 -9.203125 C 8.710938 -9.765625 8.894531 -10.320312 9.03125 -10.875 C 9.175781 -11.425781 9.226562 -11.925781 9.1875 -12.375 C 9.125 -13.125 8.742188 -13.40625 8.046875 -13.21875 C 7.734375 -13.132812 7.441406 -13.019531 7.171875 -12.875 C 6.910156 -12.738281 6.660156 -12.582031 6.421875 -12.40625 C 5.929688 -12.050781 5.488281 -11.660156 5.09375 -11.234375 C 4.695312 -10.804688 4.332031 -10.351562 4 -9.875 C 2.363281 -7.488281 1.359375 -4.785156 0.984375 -1.765625 C 0.867188 -0.890625 0.867188 0 0.984375 0.90625 C 1.046875 1.425781 1.203125 1.941406 1.453125 2.453125 C 1.691406 2.941406 1.976562 3.316406 2.3125 3.578125 C 2.644531 3.847656 2.992188 4.023438 3.359375 4.109375 C 3.722656 4.191406 4.0625 4.210938 4.375 4.171875 C 4.9375 4.109375 5.46875 3.960938 5.96875 3.734375 C 6.945312 3.285156 7.75 2.804688 8.375 2.296875 C 9 1.796875 9.519531 1.265625 9.9375 0.703125 C 10.363281 0.148438 10.757812 -0.425781 11.125 -1.03125 C 11.269531 -1.269531 11.398438 -1.503906 11.515625 -1.734375 C 11.640625 -1.992188 11.804688 -2.285156 12.015625 -2.609375 C 12.078125 -2.710938 12.148438 -2.757812 12.234375 -2.75 Z M 12.234375 -2.75 "/></g></g><g transform="translate(52.80151, 23.789473)"><g><path d="M 3.34375 -2.390625 C 3.382812 -2.429688 3.40625 -2.375 3.40625 -2.21875 C 3.414062 -2.070312 3.28125 -1.863281 3 -1.59375 C 2.726562 -1.320312 2.445312 -1.195312 2.15625 -1.21875 C 2.09375 -1.21875 2.035156 -1.207031 1.984375 -1.1875 C 1.941406 -1.175781 1.90625 -1.144531 1.875 -1.09375 C 1.84375 -1.039062 1.804688 -0.992188 1.765625 -0.953125 C 1.765625 -0.953125 1.757812 -0.945312 1.75 -0.9375 C 1.570312 -0.75 1.363281 -0.625 1.125 -0.5625 C 0.882812 -0.5 0.65625 -0.515625 0.4375 -0.609375 C 0.21875 -0.710938 0.0546875 -0.898438 -0.046875 -1.171875 C -0.109375 -1.421875 -0.113281 -1.671875 -0.0625 -1.921875 C -0.0078125 -2.140625 0.0703125 -2.34375 0.1875 -2.53125 C 0.320312 -2.789062 0.492188 -2.972656 0.703125 -3.078125 C 0.921875 -3.179688 1.160156 -3.238281 1.421875 -3.25 C 1.828125 -3.269531 2.082031 -3.082031 2.1875 -2.6875 C 2.25 -2.457031 2.265625 -2.222656 2.234375 -1.984375 C 2.222656 -1.929688 2.210938 -1.878906 2.203125 -1.828125 C 2.191406 -1.785156 2.179688 -1.75 2.171875 -1.71875 C 2.160156 -1.582031 2.21875 -1.519531 2.34375 -1.53125 C 2.675781 -1.59375 3.007812 -1.878906 3.34375 -2.390625 Z M 0.96875 -0.890625 C 1.175781 -0.992188 1.320312 -1.160156 1.40625 -1.390625 C 1.0625 -1.609375 0.832031 -1.921875 0.71875 -2.328125 C 0.613281 -2.128906 0.546875 -1.898438 0.515625 -1.640625 C 0.492188 -1.390625 0.519531 -1.179688 0.59375 -1.015625 C 0.664062 -0.847656 0.789062 -0.804688 0.96875 -0.890625 Z M 1.5625 -1.84375 C 1.613281 -1.914062 1.644531 -2.007812 1.65625 -2.125 C 1.664062 -2.25 1.660156 -2.367188 1.640625 -2.484375 C 1.617188 -2.609375 1.585938 -2.703125 1.546875 -2.765625 C 1.515625 -2.835938 1.472656 -2.859375 1.421875 -2.828125 C 1.347656 -2.765625 1.304688 -2.664062 1.296875 -2.53125 C 1.285156 -2.394531 1.300781 -2.257812 1.34375 -2.125 C 1.394531 -2 1.46875 -1.90625 1.5625 -1.84375 Z M 1.5625 -1.84375 "/></g></g><g transform="translate(56.046717, 23.789473)"><g><path d="M 6.828125 -2.125 C 6.859375 -2.175781 6.898438 -2.203125 6.953125 -2.203125 C 7.003906 -2.203125 7.050781 -2.171875 7.09375 -2.109375 C 7.101562 -2.085938 7.085938 -2.035156 7.046875 -1.953125 C 7.003906 -1.878906 6.945312 -1.789062 6.875 -1.6875 C 6.8125 -1.582031 6.75 -1.488281 6.6875 -1.40625 C 6.625 -1.332031 6.578125 -1.28125 6.546875 -1.25 C 6.253906 -0.925781 5.960938 -0.691406 5.671875 -0.546875 C 5.390625 -0.398438 5.078125 -0.367188 4.734375 -0.453125 C 4.390625 -0.535156 4.007812 -0.773438 3.59375 -1.171875 C 3.53125 -1.242188 3.46875 -1.316406 3.40625 -1.390625 C 3.382812 -1.410156 3.367188 -1.425781 3.359375 -1.4375 C 3.285156 -1.519531 3.207031 -1.53125 3.125 -1.46875 C 3.039062 -1.40625 2.953125 -1.34375 2.859375 -1.28125 C 2.773438 -1.21875 2.695312 -1.164062 2.625 -1.125 C 2.351562 -0.9375 2.066406 -0.78125 1.765625 -0.65625 C 1.441406 -0.507812 1.109375 -0.453125 0.765625 -0.484375 C 0.210938 -0.546875 -0.0703125 -0.847656 -0.09375 -1.390625 C -0.101562 -1.773438 -0.0234375 -2.117188 0.140625 -2.421875 C 0.316406 -2.722656 0.554688 -2.945312 0.859375 -3.09375 C 1.160156 -3.238281 1.507812 -3.269531 1.90625 -3.1875 C 1.945312 -3.175781 2.003906 -3.160156 2.078125 -3.140625 C 2.117188 -3.128906 2.175781 -3.117188 2.25 -3.109375 C 2.207031 -3.191406 2.171875 -3.269531 2.140625 -3.34375 C 2.078125 -3.457031 2.023438 -3.5625 1.984375 -3.65625 C 1.722656 -4.195312 1.507812 -4.816406 1.34375 -5.515625 C 1.175781 -6.210938 1.09375 -6.929688 1.09375 -7.671875 C 1.101562 -8.410156 1.226562 -9.09375 1.46875 -9.71875 C 1.707031 -10.351562 2.109375 -10.875 2.671875 -11.28125 C 3.023438 -11.53125 3.394531 -11.660156 3.78125 -11.671875 C 4.164062 -11.691406 4.523438 -11.609375 4.859375 -11.421875 C 5.191406 -11.242188 5.46875 -10.96875 5.6875 -10.59375 C 5.957031 -10.082031 6.125 -9.546875 6.1875 -8.984375 C 6.300781 -8.066406 6.28125 -7.210938 6.125 -6.421875 C 5.976562 -5.628906 5.707031 -4.878906 5.3125 -4.171875 C 4.925781 -3.460938 4.429688 -2.773438 3.828125 -2.109375 C 3.773438 -2.046875 3.742188 -1.992188 3.734375 -1.953125 C 3.734375 -1.921875 3.765625 -1.867188 3.828125 -1.796875 C 3.953125 -1.640625 4.082031 -1.484375 4.21875 -1.328125 C 4.363281 -1.179688 4.523438 -1.054688 4.703125 -0.953125 C 4.953125 -0.847656 5.21875 -0.847656 5.5 -0.953125 C 5.789062 -1.054688 6.054688 -1.21875 6.296875 -1.4375 C 6.535156 -1.65625 6.710938 -1.882812 6.828125 -2.125 Z M 2.5625 -1.75 C 2.632812 -1.8125 2.640625 -1.878906 2.578125 -1.953125 C 2.535156 -2.003906 2.5 -2.054688 2.46875 -2.109375 C 2.363281 -2.234375 2.242188 -2.363281 2.109375 -2.5 C 1.972656 -2.632812 1.832031 -2.734375 1.6875 -2.796875 C 1.550781 -2.867188 1.40625 -2.878906 1.25 -2.828125 C 1.050781 -2.722656 0.882812 -2.550781 0.75 -2.3125 C 0.625 -2.070312 0.546875 -1.820312 0.515625 -1.5625 C 0.492188 -1.3125 0.546875 -1.117188 0.671875 -0.984375 C 0.796875 -0.847656 1.003906 -0.835938 1.296875 -0.953125 C 1.753906 -1.148438 2.175781 -1.414062 2.5625 -1.75 Z M 3.53125 -2.6875 C 4.144531 -3.40625 4.601562 -4.113281 4.90625 -4.8125 C 5.207031 -5.519531 5.410156 -6.34375 5.515625 -7.28125 C 5.546875 -7.507812 5.5625 -7.804688 5.5625 -8.171875 C 5.5625 -8.546875 5.523438 -8.9375 5.453125 -9.34375 C 5.390625 -9.75 5.273438 -10.117188 5.109375 -10.453125 C 4.953125 -10.785156 4.722656 -11.023438 4.421875 -11.171875 C 4.128906 -11.316406 3.75 -11.316406 3.28125 -11.171875 C 2.769531 -10.867188 2.390625 -10.46875 2.140625 -9.96875 C 1.890625 -9.476562 1.75 -8.929688 1.71875 -8.328125 C 1.6875 -7.722656 1.726562 -7.101562 1.84375 -6.46875 C 1.957031 -5.832031 2.113281 -5.226562 2.3125 -4.65625 C 2.519531 -4.09375 2.742188 -3.601562 2.984375 -3.1875 C 3.003906 -3.132812 3.03125 -3.078125 3.0625 -3.015625 C 3.125 -2.847656 3.222656 -2.695312 3.359375 -2.5625 C 3.378906 -2.570312 3.398438 -2.585938 3.421875 -2.609375 C 3.460938 -2.628906 3.5 -2.65625 3.53125 -2.6875 Z M 3.53125 -2.6875 "/></g></g><g transform="translate(62.842049, 23.789473)"><g><path d="M 2.25 -1.765625 C 2.164062 -1.578125 2.015625 -1.367188 1.796875 -1.140625 C 1.585938 -0.921875 1.34375 -0.78125 1.0625 -0.71875 C 0.789062 -0.65625 0.53125 -0.75 0.28125 -1 C 0.1875 -1.113281 0.113281 -1.238281 0.0625 -1.375 C 0.0195312 -1.519531 0.00390625 -1.664062 0.015625 -1.8125 C 0.015625 -1.84375 0.015625 -1.890625 0.015625 -1.953125 C 0.015625 -2.097656 0.0195312 -2.265625 0.03125 -2.453125 C 0.0507812 -2.648438 0.0820312 -2.828125 0.125 -2.984375 C 0.164062 -3.148438 0.234375 -3.25 0.328125 -3.28125 C 0.609375 -3.34375 0.757812 -3.242188 0.78125 -2.984375 C 0.78125 -2.898438 0.78125 -2.816406 0.78125 -2.734375 C 0.769531 -2.691406 0.765625 -2.648438 0.765625 -2.609375 C 0.765625 -2.492188 0.757812 -2.375 0.75 -2.25 C 0.75 -2.15625 0.742188 -2.054688 0.734375 -1.953125 C 0.734375 -1.535156 0.828125 -1.285156 1.015625 -1.203125 C 1.210938 -1.128906 1.4375 -1.21875 1.6875 -1.46875 C 1.9375 -1.71875 2.097656 -1.921875 2.171875 -2.078125 C 2.253906 -2.242188 2.3125 -2.28125 2.34375 -2.1875 C 2.375 -2.09375 2.34375 -1.953125 2.25 -1.765625 Z M 0.734375 -4.171875 C 0.691406 -4.140625 0.644531 -4.117188 0.59375 -4.109375 C 0.539062 -4.097656 0.492188 -4.101562 0.453125 -4.125 C 0.421875 -4.15625 0.398438 -4.191406 0.390625 -4.234375 C 0.378906 -4.273438 0.375 -4.320312 0.375 -4.375 C 0.375 -4.382812 0.378906 -4.394531 0.390625 -4.40625 C 0.390625 -4.457031 0.398438 -4.507812 0.421875 -4.5625 C 0.484375 -4.707031 0.601562 -4.773438 0.78125 -4.765625 C 0.84375 -4.753906 0.890625 -4.726562 0.921875 -4.6875 C 0.960938 -4.644531 0.972656 -4.59375 0.953125 -4.53125 C 0.910156 -4.382812 0.835938 -4.265625 0.734375 -4.171875 Z M 0.734375 -4.171875 "/></g></g><g transform="translate(64.980837, 23.789473)"><g><path d="M 3.59375 -1.671875 C 3.820312 -2.023438 3.957031 -2.25 4 -2.34375 C 4.039062 -2.445312 4.070312 -2.445312 4.09375 -2.34375 C 4.125 -2.238281 4.054688 -2 3.890625 -1.625 C 3.722656 -1.257812 3.515625 -0.976562 3.265625 -0.78125 C 3.015625 -0.582031 2.78125 -0.507812 2.5625 -0.5625 C 2.34375 -0.613281 2.1875 -0.765625 2.09375 -1.015625 C 2 -1.265625 1.972656 -1.578125 2.015625 -1.953125 C 2.015625 -1.953125 2.015625 -1.96875 2.015625 -2 C 2.023438 -2.0625 2.035156 -2.15625 2.046875 -2.28125 C 2.066406 -2.40625 2.078125 -2.535156 2.078125 -2.671875 C 2.085938 -2.804688 2.082031 -2.914062 2.0625 -3 C 2.050781 -3.082031 2.015625 -3.113281 1.953125 -3.09375 C 1.796875 -3.007812 1.644531 -2.84375 1.5 -2.59375 C 1.351562 -2.351562 1.21875 -2.097656 1.09375 -1.828125 C 0.976562 -1.554688 0.898438 -1.335938 0.859375 -1.171875 C 0.835938 -1.117188 0.816406 -1.066406 0.796875 -1.015625 C 0.773438 -0.929688 0.742188 -0.851562 0.703125 -0.78125 C 0.617188 -0.5625 0.472656 -0.476562 0.265625 -0.53125 C 0.148438 -0.5625 0.0820312 -0.632812 0.0625 -0.75 C 0.0625 -0.832031 0.0625 -0.914062 0.0625 -1 C 0.0625 -1.050781 0.0546875 -1.097656 0.046875 -1.140625 C 0.0351562 -1.785156 0.0195312 -2.4375 0 -3.09375 C 0.0078125 -3.164062 0.0390625 -3.21875 0.09375 -3.25 C 0.15625 -3.28125 0.226562 -3.296875 0.3125 -3.296875 C 0.375 -3.296875 0.429688 -3.273438 0.484375 -3.234375 C 0.546875 -3.203125 0.585938 -3.128906 0.609375 -3.015625 C 0.609375 -2.984375 0.609375 -2.945312 0.609375 -2.90625 C 0.617188 -2.882812 0.625 -2.867188 0.625 -2.859375 C 0.632812 -2.765625 0.640625 -2.6875 0.640625 -2.625 C 0.640625 -2.53125 0.644531 -2.460938 0.65625 -2.421875 C 0.664062 -2.390625 0.691406 -2.390625 0.734375 -2.421875 C 0.785156 -2.460938 0.859375 -2.554688 0.953125 -2.703125 C 1.117188 -2.953125 1.320312 -3.164062 1.5625 -3.34375 C 1.789062 -3.507812 2.035156 -3.578125 2.296875 -3.546875 C 2.523438 -3.523438 2.679688 -3.40625 2.765625 -3.1875 C 2.796875 -3.070312 2.8125 -2.957031 2.8125 -2.84375 C 2.8125 -2.738281 2.800781 -2.628906 2.78125 -2.515625 C 2.78125 -2.398438 2.773438 -2.28125 2.765625 -2.15625 C 2.753906 -2.125 2.742188 -2.085938 2.734375 -2.046875 C 2.703125 -1.628906 2.71875 -1.347656 2.78125 -1.203125 C 2.84375 -1.066406 2.9375 -1.019531 3.0625 -1.0625 C 3.195312 -1.113281 3.375 -1.316406 3.59375 -1.671875 Z M 3.59375 -1.671875 "/></g></g><g transform="translate(68.814101, 23.789473)"><g><path d="M 4.734375 -2.203125 C 4.796875 -2.210938 4.84375 -2.210938 4.875 -2.203125 C 4.914062 -2.203125 4.9375 -2.191406 4.9375 -2.171875 C 4.945312 -2.148438 4.914062 -2.113281 4.84375 -2.0625 C 4.8125 -2.039062 4.773438 -2.015625 4.734375 -1.984375 C 4.578125 -1.867188 4.394531 -1.742188 4.1875 -1.609375 C 3.96875 -1.460938 3.769531 -1.328125 3.59375 -1.203125 C 3.414062 -1.085938 3.296875 -0.992188 3.234375 -0.921875 C 3.171875 -0.835938 3.128906 -0.738281 3.109375 -0.625 C 3.097656 -0.519531 3.09375 -0.410156 3.09375 -0.296875 C 3.082031 -0.191406 3.070312 -0.09375 3.0625 0 C 2.894531 1.019531 2.613281 1.894531 2.21875 2.625 C 1.820312 3.351562 1.378906 3.929688 0.890625 4.359375 C 0.398438 4.796875 -0.078125 5.078125 -0.546875 5.203125 C -1.015625 5.335938 -1.410156 5.320312 -1.734375 5.15625 C -2.054688 4.988281 -2.25 4.675781 -2.3125 4.21875 C -2.34375 3.832031 -2.265625 3.441406 -2.078125 3.046875 C -1.890625 2.660156 -1.640625 2.285156 -1.328125 1.921875 C -1.023438 1.566406 -0.695312 1.238281 -0.34375 0.9375 C 0 0.632812 0.316406 0.382812 0.609375 0.1875 C 0.691406 0.125 0.773438 0.0664062 0.859375 0.015625 C 1.273438 -0.273438 1.695312 -0.550781 2.125 -0.8125 C 2.40625 -0.96875 2.535156 -1.191406 2.515625 -1.484375 C 2.515625 -1.515625 2.515625 -1.5625 2.515625 -1.625 C 2.503906 -1.707031 2.5 -1.796875 2.5 -1.890625 C 2.332031 -1.628906 2.097656 -1.390625 1.796875 -1.171875 C 1.492188 -0.960938 1.1875 -0.8125 0.875 -0.71875 C 0.5625 -0.632812 0.289062 -0.640625 0.0625 -0.734375 C -0.15625 -0.835938 -0.269531 -1.078125 -0.28125 -1.453125 C -0.269531 -1.648438 -0.210938 -1.828125 -0.109375 -1.984375 C 0.128906 -2.410156 0.460938 -2.742188 0.890625 -2.984375 C 1.046875 -3.078125 1.238281 -3.140625 1.46875 -3.171875 C 1.695312 -3.210938 1.914062 -3.210938 2.125 -3.171875 C 2.332031 -3.128906 2.503906 -3.023438 2.640625 -2.859375 C 2.671875 -2.910156 2.710938 -2.941406 2.765625 -2.953125 C 2.828125 -2.972656 2.882812 -2.984375 2.9375 -2.984375 C 2.957031 -2.984375 2.96875 -2.984375 2.96875 -2.984375 C 3.207031 -3.003906 3.320312 -2.894531 3.3125 -2.65625 C 3.300781 -2.488281 3.296875 -2.316406 3.296875 -2.140625 C 3.285156 -2.015625 3.273438 -1.890625 3.265625 -1.765625 C 3.273438 -1.617188 3.351562 -1.570312 3.5 -1.625 C 3.65625 -1.675781 3.84375 -1.765625 4.0625 -1.890625 C 4.3125 -2.035156 4.535156 -2.140625 4.734375 -2.203125 Z M 1.9375 -1.953125 C 2.207031 -2.222656 2.351562 -2.429688 2.375 -2.578125 C 2.3125 -2.691406 2.210938 -2.757812 2.078125 -2.78125 C 1.941406 -2.8125 1.800781 -2.8125 1.65625 -2.78125 C 1.519531 -2.757812 1.40625 -2.71875 1.3125 -2.65625 C 1.050781 -2.488281 0.859375 -2.285156 0.734375 -2.046875 C 0.609375 -1.816406 0.5625 -1.617188 0.59375 -1.453125 C 0.625 -1.285156 0.75 -1.226562 0.96875 -1.28125 C 1.1875 -1.332031 1.507812 -1.554688 1.9375 -1.953125 Z M 2.296875 -0.046875 C 2.296875 -0.0546875 2.300781 -0.0664062 2.3125 -0.078125 C 2.320312 -0.109375 2.328125 -0.15625 2.328125 -0.21875 C 2.335938 -0.28125 2.335938 -0.328125 2.328125 -0.359375 C 2.316406 -0.398438 2.289062 -0.40625 2.25 -0.375 C 1.976562 -0.1875 1.695312 0.015625 1.40625 0.234375 C 1.238281 0.359375 1.078125 0.476562 0.921875 0.59375 C 0.703125 0.75 0.445312 0.953125 0.15625 1.203125 C -0.125 1.460938 -0.398438 1.75 -0.671875 2.0625 C -0.953125 2.382812 -1.179688 2.710938 -1.359375 3.046875 C -1.535156 3.378906 -1.625 3.695312 -1.625 4 C -1.601562 4.4375 -1.476562 4.695312 -1.25 4.78125 C -1.03125 4.875 -0.75 4.820312 -0.40625 4.625 C -0.0703125 4.425781 0.273438 4.101562 0.640625 3.65625 C 1.003906 3.21875 1.332031 2.679688 1.625 2.046875 C 1.925781 1.421875 2.148438 0.722656 2.296875 -0.046875 Z M 2.296875 -0.046875 "/></g></g><g transform="translate(73.427087, 23.789473)"><g/></g><g transform="translate(75.639926, 23.789473)"><g><path d="M 14.5625 -2.296875 C 14.625 -2.265625 14.644531 -2.210938 14.625 -2.140625 C 14.601562 -2.066406 14.566406 -1.992188 14.515625 -1.921875 C 14.460938 -1.847656 14.414062 -1.785156 14.375 -1.734375 C 14.351562 -1.703125 14.34375 -1.679688 14.34375 -1.671875 C 13.957031 -1.148438 13.625 -0.597656 13.34375 -0.015625 C 13.070312 0.554688 12.816406 1.140625 12.578125 1.734375 C 12.472656 1.960938 12.375 2.191406 12.28125 2.421875 C 12.050781 2.921875 11.832031 3.425781 11.625 3.9375 C 11.269531 4.8125 10.890625 5.679688 10.484375 6.546875 C 10.335938 6.847656 10.175781 7.144531 10 7.4375 C 9.863281 7.664062 9.648438 7.78125 9.359375 7.78125 C 9.109375 7.78125 8.957031 7.664062 8.90625 7.4375 C 8.851562 7.238281 8.828125 7.035156 8.828125 6.828125 C 8.796875 6.054688 8.8125 5.285156 8.875 4.515625 C 8.925781 3.972656 8.972656 3.4375 9.015625 2.90625 C 9.046875 2.332031 9.085938 1.757812 9.140625 1.1875 C 9.253906 -0.125 9.378906 -1.4375 9.515625 -2.75 C 9.679688 -4.25 9.847656 -5.742188 10.015625 -7.234375 C 10.316406 -9.773438 10.582031 -12.316406 10.8125 -14.859375 C 10.820312 -15.015625 10.820312 -15.144531 10.8125 -15.25 C 10.8125 -15.351562 10.789062 -15.390625 10.75 -15.359375 C 10.707031 -15.335938 10.648438 -15.21875 10.578125 -15 C 9.816406 -12.832031 9.117188 -10.644531 8.484375 -8.4375 C 8.453125 -8.351562 8.429688 -8.273438 8.421875 -8.203125 C 8.035156 -6.890625 7.644531 -5.582031 7.25 -4.28125 C 7.101562 -3.78125 6.929688 -3.269531 6.734375 -2.75 C 6.546875 -2.226562 6.328125 -1.738281 6.078125 -1.28125 C 6.003906 -1.144531 5.90625 -1.050781 5.78125 -1 C 5.664062 -0.957031 5.53125 -0.945312 5.375 -0.96875 C 5.21875 -0.976562 5.097656 -1.050781 5.015625 -1.1875 C 4.953125 -1.320312 4.914062 -1.46875 4.90625 -1.625 C 4.882812 -1.800781 4.863281 -1.984375 4.84375 -2.171875 C 4.800781 -2.578125 4.765625 -2.984375 4.734375 -3.390625 C 4.640625 -4.515625 4.519531 -5.644531 4.375 -6.78125 C 4.226562 -7.925781 4.035156 -9.050781 3.796875 -10.15625 C 3.734375 -10.445312 3.640625 -10.441406 3.515625 -10.140625 C 3.398438 -9.847656 3.257812 -9.351562 3.09375 -8.65625 C 2.9375 -7.957031 2.769531 -7.15625 2.59375 -6.25 C 2.425781 -5.34375 2.257812 -4.414062 2.09375 -3.46875 C 1.925781 -2.53125 1.773438 -1.671875 1.640625 -0.890625 C 1.441406 0.316406 1.304688 1.082031 1.234375 1.40625 C 1.179688 1.644531 1.101562 1.875 1 2.09375 C 0.945312 2.1875 0.878906 2.25 0.796875 2.28125 C 0.710938 2.3125 0.625 2.320312 0.53125 2.3125 C 0.320312 2.289062 0.195312 2.171875 0.15625 1.953125 C 0.132812 1.847656 0.125 1.738281 0.125 1.625 C 0.113281 1.53125 0.109375 1.441406 0.109375 1.359375 C 0.0976562 1.003906 0.0859375 0.648438 0.078125 0.296875 C 0.0234375 -2.453125 0.0390625 -5.195312 0.125 -7.9375 C 0.175781 -9.675781 0.226562 -11.421875 0.28125 -13.171875 C 0.28125 -13.347656 0.28125 -13.535156 0.28125 -13.734375 C 0.269531 -13.910156 0.269531 -14.09375 0.28125 -14.28125 C 0.28125 -14.414062 0.328125 -14.507812 0.421875 -14.5625 C 0.523438 -14.625 0.644531 -14.625 0.78125 -14.5625 C 0.832031 -14.539062 0.867188 -14.507812 0.890625 -14.46875 C 0.910156 -14.4375 0.921875 -14.394531 0.921875 -14.34375 C 0.984375 -13.863281 1.003906 -13.382812 0.984375 -12.90625 C 0.972656 -12.625 0.960938 -12.335938 0.953125 -12.046875 C 0.929688 -11.253906 0.90625 -10.46875 0.875 -9.6875 C 0.84375 -8.664062 0.820312 -7.648438 0.8125 -6.640625 C 0.789062 -5.898438 0.773438 -5.15625 0.765625 -4.40625 C 0.742188 -3.613281 0.734375 -2.820312 0.734375 -2.03125 C 0.734375 -1.488281 0.734375 -0.9375 0.734375 -0.375 C 0.734375 -0.34375 0.734375 -0.289062 0.734375 -0.21875 C 0.742188 -0.15625 0.753906 -0.0859375 0.765625 -0.015625 C 0.785156 0.0546875 0.800781 0.113281 0.8125 0.15625 C 0.832031 0.195312 0.851562 0.207031 0.875 0.1875 C 0.894531 0.164062 0.914062 0.09375 0.9375 -0.03125 C 1 -0.375 1.0625 -0.769531 1.125 -1.21875 C 1.289062 -2.257812 1.484375 -3.40625 1.703125 -4.65625 C 1.921875 -5.90625 2.164062 -7.085938 2.4375 -8.203125 C 2.71875 -9.316406 3.019531 -10.179688 3.34375 -10.796875 C 3.46875 -11.023438 3.628906 -11.132812 3.828125 -11.125 C 4.023438 -11.113281 4.1875 -10.992188 4.3125 -10.765625 C 4.46875 -10.378906 4.597656 -9.914062 4.703125 -9.375 C 4.816406 -8.832031 4.910156 -8.265625 4.984375 -7.671875 C 5.054688 -7.078125 5.117188 -6.519531 5.171875 -6 C 5.203125 -5.71875 5.226562 -5.460938 5.25 -5.234375 C 5.289062 -4.867188 5.328125 -4.535156 5.359375 -4.234375 C 5.429688 -3.515625 5.5 -2.953125 5.5625 -2.546875 C 5.625 -2.140625 5.707031 -1.9375 5.8125 -1.9375 C 5.925781 -1.9375 6.078125 -2.1875 6.265625 -2.6875 C 6.460938 -3.195312 6.722656 -3.992188 7.046875 -5.078125 C 7.335938 -6.085938 7.613281 -7.0625 7.875 -8 C 8.21875 -9.25 8.570312 -10.484375 8.9375 -11.703125 C 9.3125 -12.929688 9.75 -14.207031 10.25 -15.53125 C 10.40625 -15.914062 10.5625 -16.234375 10.71875 -16.484375 C 10.875 -16.734375 11.03125 -16.863281 11.1875 -16.875 C 11.238281 -16.882812 11.289062 -16.875 11.34375 -16.84375 C 11.40625 -16.820312 11.457031 -16.753906 11.5 -16.640625 C 11.550781 -16.535156 11.582031 -16.359375 11.59375 -16.109375 C 11.601562 -15.679688 11.59375 -15.253906 11.5625 -14.828125 C 11.53125 -14.398438 11.5 -13.972656 11.46875 -13.546875 C 11.457031 -13.492188 11.453125 -13.441406 11.453125 -13.390625 C 11.242188 -11.203125 11.007812 -9.015625 10.75 -6.828125 C 10.582031 -5.398438 10.421875 -3.976562 10.265625 -2.5625 C 10.265625 -2.53125 10.257812 -2.492188 10.25 -2.453125 C 10.113281 -1.117188 9.984375 0.207031 9.859375 1.53125 C 9.753906 2.707031 9.660156 3.878906 9.578125 5.046875 C 9.578125 5.148438 9.570312 5.253906 9.5625 5.359375 C 9.539062 5.660156 9.53125 5.960938 9.53125 6.265625 C 9.53125 6.367188 9.53125 6.472656 9.53125 6.578125 C 9.519531 6.609375 9.519531 6.632812 9.53125 6.65625 C 9.539062 6.675781 9.566406 6.6875 9.609375 6.6875 C 9.617188 6.6875 9.632812 6.679688 9.65625 6.671875 C 9.675781 6.671875 9.6875 6.660156 9.6875 6.640625 C 10.070312 5.847656 10.445312 5.054688 10.8125 4.265625 C 11.15625 3.503906 11.503906 2.742188 11.859375 1.984375 C 12.222656 1.222656 12.609375 0.46875 13.015625 -0.28125 C 13.347656 -0.90625 13.65625 -1.40625 13.9375 -1.78125 C 14.21875 -2.15625 14.425781 -2.328125 14.5625 -2.296875 Z M 14.5625 -2.296875 "/></g></g><g transform="translate(89.853496, 23.789473)"><g><path d="M 4.921875 -2.234375 C 4.847656 -1.992188 4.691406 -1.710938 4.453125 -1.390625 C 4.210938 -1.078125 3.914062 -0.875 3.5625 -0.78125 C 3.207031 -0.695312 2.898438 -0.710938 2.640625 -0.828125 C 2.390625 -0.941406 2.25 -1.25 2.21875 -1.75 C 1.925781 -1.175781 1.644531 -0.8125 1.375 -0.65625 C 1.113281 -0.5 0.835938 -0.4375 0.546875 -0.46875 C 0.222656 -0.519531 0.00390625 -0.644531 -0.109375 -0.84375 C -0.222656 -1.050781 -0.257812 -1.285156 -0.21875 -1.546875 C -0.1875 -1.804688 -0.109375 -2.054688 0.015625 -2.296875 C 0.109375 -2.484375 0.238281 -2.648438 0.40625 -2.796875 C 0.582031 -2.953125 0.765625 -3.078125 0.953125 -3.171875 C 1.179688 -3.285156 1.410156 -3.335938 1.640625 -3.328125 C 1.867188 -3.328125 2.117188 -3.253906 2.390625 -3.109375 C 2.390625 -3.097656 2.390625 -3.101562 2.390625 -3.125 C 2.390625 -3.144531 2.394531 -3.175781 2.40625 -3.21875 C 2.425781 -3.257812 2.453125 -3.289062 2.484375 -3.3125 C 2.566406 -3.375 2.664062 -3.40625 2.78125 -3.40625 C 2.90625 -3.40625 3 -3.347656 3.0625 -3.234375 C 3.070312 -3.078125 3.054688 -2.878906 3.015625 -2.640625 C 2.921875 -2.117188 2.921875 -1.742188 3.015625 -1.515625 C 3.109375 -1.285156 3.273438 -1.175781 3.515625 -1.1875 C 3.765625 -1.207031 4.082031 -1.445312 4.46875 -1.90625 C 4.851562 -2.375 5.003906 -2.484375 4.921875 -2.234375 Z M 0.640625 -1.015625 C 0.773438 -0.910156 0.925781 -0.921875 1.09375 -1.046875 C 1.269531 -1.171875 1.4375 -1.34375 1.59375 -1.5625 C 1.757812 -1.789062 1.894531 -2.015625 2 -2.234375 C 2.113281 -2.460938 2.175781 -2.628906 2.1875 -2.734375 C 1.851562 -2.910156 1.570312 -2.941406 1.34375 -2.828125 C 1.113281 -2.710938 0.925781 -2.523438 0.78125 -2.265625 C 0.644531 -2.003906 0.5625 -1.75 0.53125 -1.5 C 0.507812 -1.257812 0.546875 -1.097656 0.640625 -1.015625 Z M 0.640625 -1.015625 "/></g></g><g transform="translate(94.470838, 23.789473)"><g><path d="M 3.390625 -2.140625 C 3.441406 -2.160156 3.484375 -2.164062 3.515625 -2.15625 C 3.546875 -2.15625 3.566406 -2.144531 3.578125 -2.125 C 3.597656 -2.101562 3.609375 -2.082031 3.609375 -2.0625 C 3.609375 -2.039062 3.609375 -2.023438 3.609375 -2.015625 C 3.484375 -1.890625 3.347656 -1.753906 3.203125 -1.609375 C 3.003906 -1.410156 2.804688 -1.210938 2.609375 -1.015625 C 2.410156 -0.816406 2.25 -0.628906 2.125 -0.453125 C 2.050781 -0.367188 2.050781 -0.285156 2.125 -0.203125 C 2.25 -0.0664062 2.367188 0.117188 2.484375 0.359375 C 2.597656 0.609375 2.675781 0.875 2.71875 1.15625 C 2.769531 1.4375 2.765625 1.6875 2.703125 1.90625 C 2.648438 2.132812 2.507812 2.300781 2.28125 2.40625 C 1.9375 2.519531 1.625 2.488281 1.34375 2.3125 C 1.0625 2.144531 0.898438 1.875 0.859375 1.5 C 0.835938 1.164062 0.898438 0.847656 1.046875 0.546875 C 1.109375 0.421875 1.175781 0.300781 1.25 0.1875 C 1.28125 0.113281 1.3125 0.046875 1.34375 -0.015625 C 1.414062 -0.128906 1.394531 -0.210938 1.28125 -0.265625 C 1.039062 -0.367188 0.800781 -0.40625 0.5625 -0.375 C 0.40625 -0.34375 0.253906 -0.351562 0.109375 -0.40625 C 0.0664062 -0.425781 0.0390625 -0.457031 0.03125 -0.5 C 0.0195312 -0.539062 0.03125 -0.582031 0.0625 -0.625 C 0.164062 -0.726562 0.273438 -0.832031 0.390625 -0.9375 C 0.671875 -1.175781 0.929688 -1.457031 1.171875 -1.78125 C 1.410156 -2.101562 1.59375 -2.445312 1.71875 -2.8125 C 1.726562 -2.851562 1.722656 -2.894531 1.703125 -2.9375 C 1.679688 -2.976562 1.65625 -3.007812 1.625 -3.03125 C 1.519531 -3.113281 1.40625 -3.148438 1.28125 -3.140625 C 1.0625 -3.128906 0.863281 -3.054688 0.6875 -2.921875 C 0.570312 -2.847656 0.519531 -2.769531 0.53125 -2.6875 C 0.550781 -2.613281 0.59375 -2.539062 0.65625 -2.46875 C 0.707031 -2.40625 0.753906 -2.335938 0.796875 -2.265625 C 0.804688 -2.242188 0.796875 -2.21875 0.765625 -2.1875 C 0.742188 -2.15625 0.710938 -2.125 0.671875 -2.09375 C 0.628906 -2.070312 0.59375 -2.0625 0.5625 -2.0625 C 0.445312 -2.03125 0.335938 -2.054688 0.234375 -2.140625 C 0.0859375 -2.265625 0.0078125 -2.414062 0 -2.59375 C 0 -2.769531 0.0664062 -2.925781 0.203125 -3.0625 C 0.296875 -3.144531 0.398438 -3.210938 0.515625 -3.265625 C 0.703125 -3.359375 0.894531 -3.410156 1.09375 -3.421875 C 1.289062 -3.441406 1.492188 -3.4375 1.703125 -3.40625 C 1.816406 -3.382812 1.929688 -3.34375 2.046875 -3.28125 C 2.285156 -3.132812 2.363281 -2.925781 2.28125 -2.65625 C 2.1875 -2.375 2.035156 -2.082031 1.828125 -1.78125 C 1.628906 -1.476562 1.429688 -1.226562 1.234375 -1.03125 C 1.203125 -1.007812 1.175781 -0.988281 1.15625 -0.96875 C 1.113281 -0.925781 1.078125 -0.890625 1.046875 -0.859375 C 1.023438 -0.828125 1.019531 -0.796875 1.03125 -0.765625 C 1.164062 -0.773438 1.285156 -0.757812 1.390625 -0.71875 C 1.492188 -0.6875 1.585938 -0.640625 1.671875 -0.578125 C 1.734375 -0.585938 1.832031 -0.65625 1.96875 -0.78125 C 2.101562 -0.90625 2.25 -1.054688 2.40625 -1.234375 C 2.582031 -1.421875 2.753906 -1.597656 2.921875 -1.765625 C 3.097656 -1.929688 3.253906 -2.054688 3.390625 -2.140625 Z M 1.71875 2.140625 C 1.90625 2.210938 2.023438 2.179688 2.078125 2.046875 C 2.128906 1.910156 2.144531 1.722656 2.125 1.484375 C 2.101562 1.242188 2.0625 1.015625 2 0.796875 C 1.945312 0.578125 1.90625 0.425781 1.875 0.34375 C 1.851562 0.3125 1.828125 0.28125 1.796875 0.25 C 1.773438 0.226562 1.738281 0.207031 1.6875 0.1875 C 1.445312 0.507812 1.3125 0.867188 1.28125 1.265625 C 1.257812 1.460938 1.289062 1.640625 1.375 1.796875 C 1.457031 1.953125 1.570312 2.066406 1.71875 2.140625 Z M 1.71875 2.140625 "/></g></g></g></svg>