<svg xmlns="http://www.w3.org/2000/svg" xmlns:xlink="http://www.w3.org/1999/xlink" width="500" zoomAndPan="magnify" viewBox="0 0 375 374.999991" height="500" preserveAspectRatio="xMidYMid meet" version="1.0"><defs><g><g id="id1"/></g></defs><path fill="rgb(0%, 0%, 0%)" d="M 262.058594 50.816406 C 231.496094 47.214844 221.703125 60.160156 212.214844 72.886719 C 211.078125 74.402344 199.398438 89.320312 198.265625 87.8125 C 196.722656 85.253906 207.742188 68.902344 209.523438 66.492188 C 214.398438 59.90625 219.964844 53.550781 224.707031 47.589844 C 230.960938 39.746094 235.800781 32.582031 235.800781 26.476562 C 235.800781 17.625 229.910156 10.523438 223.207031 9.644531 C 200.742188 6.679688 205.742188 0.0195312 180.679688 18.769531 C 165.792969 29.921875 166.378906 36.183594 167.339844 69.675781 C 167.429688 73.171875 165.4375 73.238281 163.765625 71.171875 C 150.800781 55.253906 154.644531 27.449219 134.257812 24.222656 C 130.421875 23.617188 127.097656 24.050781 124.183594 25.066406 C 120.773438 26.257812 117.921875 28.242188 115.480469 30.277344 C 112.304688 32.914062 109.820312 35.632812 107.660156 36.804688 C 86.863281 48.089844 87.253906 78.167969 103.300781 95.664062 C 116.160156 109.675781 128.851562 104.738281 138.652344 112.824219 C 139.324219 113.382812 140.46875 113.96875 140.144531 114.917969 C 138.730469 119.214844 130.046875 113.382812 113.890625 113.382812 C 98.367188 113.382812 81.964844 118.191406 79.691406 131.769531 C 78.203125 140.613281 71.757812 146.375 77.144531 159.015625 C 84.855469 177.140625 89.902344 172.925781 99.347656 179.425781 C 104.46875 182.945312 110.136719 183.808594 115.921875 182.832031 C 136.792969 179.308594 159.125 151.863281 162.386719 139.367188 C 162.878906 137.492188 163.125 136.136719 162.6875 135.363281 C 162.050781 134.242188 160.933594 137.710938 160.347656 138.914062 C 157.480469 144.855469 155.09375 151.222656 150.238281 155.824219 C 132.273438 172.847656 123.101562 177.410156 116.386719 177.410156 C 109.496094 177.410156 105.15625 172.914062 96.660156 171.515625 C 82.457031 169.183594 81.160156 157.65625 81.160156 145.625 C 81.160156 135.953125 83.96875 126.558594 88.332031 123.398438 C 111.382812 106.679688 128.695312 121.949219 141.925781 117.171875 C 143.921875 116.453125 144.40625 115.382812 142.921875 113.296875 C 135.847656 103.359375 120.609375 105.035156 110.003906 94.449219 C 103.296875 87.757812 97.894531 80.359375 98.648438 53.632812 C 98.800781 48.441406 100.160156 43.289062 119.730469 30.292969 C 129.003906 24.136719 135.519531 24.824219 140.378906 28.957031 C 145.242188 33.105469 148.441406 40.714844 151.0625 48.363281 C 153.945312 56.765625 156.136719 65.21875 159.085938 69.191406 C 172.996094 87.8125 171.46875 60.480469 173.675781 40.199219 C 174.496094 32.597656 177.046875 25.886719 184.058594 21.472656 C 188.203125 18.878906 192.023438 15.722656 195.816406 12.617188 C 203.957031 5.9375 208.484375 10.859375 221.316406 12.105469 C 230.734375 13.023438 236.210938 23.984375 231.972656 32.398438 C 229.660156 36.988281 196.074219 75.933594 195.238281 85.847656 C 195.230469 85.886719 195.21875 85.945312 195.21875 85.980469 C 195.210938 86.121094 195.230469 86.277344 195.230469 86.425781 C 195.238281 86.511719 195.226562 86.613281 195.238281 86.699219 C 195.285156 88.503906 195.792969 90.515625 197.566406 91.292969 C 197.601562 91.304688 197.621094 91.277344 197.65625 91.292969 C 199.457031 92.296875 207.820312 86.175781 216.40625 72.425781 C 229.976562 50.667969 264.03125 48.03125 278.40625 68.238281 C 298.183594 96.066406 277.621094 101.308594 276.257812 120.851562 C 274.742188 142.546875 223.230469 125.492188 211.105469 115.148438 C 205.839844 110.65625 197.304688 112.335938 199.320312 119.324219 C 204.011719 135.566406 234.105469 141.335938 234.917969 185.023438 C 235.355469 208.824219 204.734375 198.222656 201.289062 202.386719 C 198.609375 205.609375 195.363281 205.488281 192.078125 203.46875 C 154.175781 180.195312 173.101562 133.105469 175.113281 125.222656 C 177.914062 114.300781 166.246094 125.15625 160.785156 109.839844 C 156.980469 99.164062 169.421875 89.542969 177.53125 89.542969 C 186.722656 89.542969 186.539062 110.953125 181.175781 116.503906 C 180.292969 117.425781 178.707031 118.421875 180.070312 119.882812 C 181.191406 121.085938 182.390625 119.929688 183.414062 119.261719 C 198.585938 109.417969 192.957031 85.679688 179.84375 86 C 170.6875 86.222656 156.8125 91.847656 157.203125 105.960938 C 157.351562 111.265625 158.996094 118.035156 164.546875 120.0625 C 168.855469 121.632812 173.398438 120.585938 171.988281 125.082031 C 162.542969 155.105469 161.550781 187.1875 189.847656 206.207031 C 199.949219 212.980469 199.382812 204.195312 211.621094 204.664062 C 262.519531 206.570312 247.074219 143.671875 203.730469 118.871094 C 201.101562 117.375 202.527344 114.640625 205.148438 115.550781 C 209.828125 117.152344 231.191406 130.429688 245.882812 132.179688 C 292.96875 137.734375 275.628906 121.339844 288.539062 104.335938 C 303.519531 84.65625 286.558594 53.710938 262.058594 50.816406 " fill-opacity="1" fill-rule="evenodd"/><g fill="rgb(0%, 0%, 0%)" fill-opacity="1"><g transform="translate(24.179681, 283.362163)"><g><path d="M 70.59375 -15.859375 C 70.8125 -15.773438 70.921875 -15.59375 70.921875 -15.3125 C 70.921875 -15.03125 70.851562 -14.726562 70.71875 -14.40625 C 70.582031 -14.082031 70.484375 -13.800781 70.421875 -13.5625 C 68.085938 -8.125 65.328125 -2.910156 62.140625 2.078125 C 58.960938 7.078125 55.148438 11.476562 50.703125 15.28125 C 48.335938 17.238281 45.84375 19.007812 43.21875 20.59375 C 40.601562 22.175781 37.785156 23.503906 34.765625 24.578125 C 32.859375 25.253906 31.117188 25.734375 29.546875 26.015625 C 27.984375 26.296875 26.164062 26.414062 24.09375 26.375 C 22.914062 26.414062 21.738281 26.390625 20.5625 26.296875 C 19.382812 26.203125 18.191406 25.992188 16.984375 25.671875 C 11.410156 24.085938 7.265625 20.695312 4.546875 15.5 C 3.628906 13.6875 2.910156 11.847656 2.390625 9.984375 C 1.867188 8.128906 1.484375 6.265625 1.234375 4.390625 C 0.597656 -0.628906 0.570312 -5.566406 1.15625 -10.421875 C 1.945312 -17.171875 3.316406 -23.65625 5.265625 -29.875 C 7.210938 -36.101562 9.675781 -42.085938 12.65625 -47.828125 C 15.90625 -54.210938 19.898438 -60.0625 24.640625 -65.375 C 27.929688 -69.0625 31.675781 -72.207031 35.875 -74.8125 C 39.007812 -76.8125 42.492188 -78.117188 46.328125 -78.734375 C 48.015625 -79.035156 49.722656 -78.960938 51.453125 -78.515625 C 54.148438 -77.859375 55.867188 -76.195312 56.609375 -73.53125 C 57.117188 -71.375 57.113281 -68.695312 56.59375 -65.5 C 56.082031 -62.3125 55.265625 -58.984375 54.140625 -55.515625 C 53.015625 -52.054688 51.769531 -48.84375 50.40625 -45.875 C 49.039062 -42.90625 47.789062 -40.546875 46.65625 -38.796875 C 46.320312 -38.335938 45.914062 -38.0625 45.4375 -37.96875 C 44.957031 -37.882812 44.425781 -37.914062 43.84375 -38.0625 C 43.539062 -38.125 43.296875 -38.285156 43.109375 -38.546875 C 42.921875 -38.804688 42.890625 -39.046875 43.015625 -39.265625 C 43.109375 -39.640625 43.25 -39.992188 43.4375 -40.328125 C 43.519531 -40.503906 43.613281 -40.703125 43.71875 -40.921875 C 44.132812 -41.929688 44.617188 -43.039062 45.171875 -44.25 C 46.378906 -46.9375 47.632812 -49.882812 48.9375 -53.09375 C 50.25 -56.300781 51.3125 -59.492188 52.125 -62.671875 C 52.9375 -65.859375 53.234375 -68.742188 53.015625 -71.328125 C 52.609375 -75.679688 50.394531 -77.304688 46.375 -76.203125 C 44.601562 -75.710938 42.953125 -75.066406 41.421875 -74.265625 C 39.898438 -73.460938 38.4375 -72.554688 37.03125 -71.546875 C 34.238281 -69.523438 31.6875 -67.273438 29.375 -64.796875 C 27.070312 -62.328125 24.96875 -59.695312 23.0625 -56.90625 C 13.613281 -43.164062 7.8125 -27.597656 5.65625 -10.203125 C 5.019531 -5.160156 5.035156 -0.0195312 5.703125 5.21875 C 6.066406 8.238281 6.945312 11.207031 8.34375 14.125 C 9.75 16.988281 11.414062 19.175781 13.34375 20.6875 C 15.28125 22.207031 17.289062 23.203125 19.375 23.671875 C 21.46875 24.148438 23.4375 24.28125 25.28125 24.0625 C 28.507812 23.695312 31.546875 22.851562 34.390625 21.53125 C 40.054688 18.945312 44.679688 16.195312 48.265625 13.28125 C 51.859375 10.375 54.875 7.316406 57.3125 4.109375 C 59.75 0.898438 62.035156 -2.453125 64.171875 -5.953125 C 65.023438 -7.347656 65.757812 -8.6875 66.375 -9.96875 C 67.113281 -11.5 68.078125 -13.203125 69.265625 -15.078125 C 69.671875 -15.660156 70.113281 -15.921875 70.59375 -15.859375 Z M 70.59375 -15.859375 "/></g></g></g><g fill="rgb(0%, 0%, 0%)" fill-opacity="1"><g transform="translate(91.777041, 283.362163)"><g><path d="M 19.296875 -13.75 C 19.546875 -14 19.675781 -13.691406 19.6875 -12.828125 C 19.707031 -11.960938 18.925781 -10.753906 17.34375 -9.203125 C 15.757812 -7.660156 14.125 -6.929688 12.4375 -7.015625 C 12.070312 -7.046875 11.757812 -7.015625 11.5 -6.921875 C 11.238281 -6.828125 11.015625 -6.613281 10.828125 -6.28125 C 10.640625 -5.976562 10.421875 -5.703125 10.171875 -5.453125 C 10.171875 -5.453125 10.15625 -5.4375 10.125 -5.40625 C 9.082031 -4.300781 7.863281 -3.570312 6.46875 -3.21875 C 5.070312 -2.863281 3.742188 -2.96875 2.484375 -3.53125 C 1.234375 -4.101562 0.332031 -5.1875 -0.21875 -6.78125 C -0.625 -8.21875 -0.660156 -9.648438 -0.328125 -11.078125 C -0.046875 -12.335938 0.414062 -13.519531 1.0625 -14.625 C 1.820312 -16.09375 2.816406 -17.132812 4.046875 -17.75 C 5.285156 -18.363281 6.679688 -18.703125 8.234375 -18.765625 C 10.546875 -18.878906 12.003906 -17.789062 12.609375 -15.5 C 12.984375 -14.175781 13.078125 -12.835938 12.890625 -11.484375 C 12.835938 -11.179688 12.78125 -10.863281 12.71875 -10.53125 C 12.644531 -10.3125 12.582031 -10.09375 12.53125 -9.875 C 12.46875 -9.132812 12.785156 -8.800781 13.484375 -8.875 C 15.429688 -9.207031 17.367188 -10.832031 19.296875 -13.75 Z M 5.625 -5.171875 C 6.8125 -5.722656 7.640625 -6.660156 8.109375 -7.984375 C 6.140625 -9.242188 4.816406 -11.054688 4.140625 -13.421875 C 3.523438 -12.316406 3.148438 -11.023438 3.015625 -9.546875 C 2.878906 -8.078125 3.023438 -6.859375 3.453125 -5.890625 C 3.878906 -4.929688 4.601562 -4.691406 5.625 -5.171875 Z M 9.015625 -10.609375 C 9.335938 -11.078125 9.523438 -11.648438 9.578125 -12.328125 C 9.640625 -13.015625 9.609375 -13.695312 9.484375 -14.375 C 9.359375 -15.0625 9.179688 -15.597656 8.953125 -15.984375 C 8.734375 -16.367188 8.492188 -16.484375 8.234375 -16.328125 C 7.785156 -15.929688 7.535156 -15.351562 7.484375 -14.59375 C 7.429688 -13.84375 7.539062 -13.085938 7.8125 -12.328125 C 8.09375 -11.578125 8.492188 -11.003906 9.015625 -10.609375 Z M 9.015625 -10.609375 "/></g></g></g><g fill="rgb(0%, 0%, 0%)" fill-opacity="1"><g transform="translate(110.491287, 283.362163)"><g><path d="M 39.421875 -12.265625 C 39.566406 -12.546875 39.796875 -12.691406 40.109375 -12.703125 C 40.421875 -12.722656 40.6875 -12.535156 40.90625 -12.140625 C 40.988281 -12.035156 40.90625 -11.753906 40.65625 -11.296875 C 40.414062 -10.835938 40.09375 -10.316406 39.6875 -9.734375 C 39.289062 -9.160156 38.90625 -8.632812 38.53125 -8.15625 C 38.164062 -7.675781 37.910156 -7.359375 37.765625 -7.203125 C 36.109375 -5.367188 34.441406 -4.019531 32.765625 -3.15625 C 31.085938 -2.289062 29.269531 -2.101562 27.3125 -2.59375 C 25.351562 -3.09375 23.160156 -4.488281 20.734375 -6.78125 C 20.359375 -7.1875 19.988281 -7.585938 19.625 -7.984375 C 19.519531 -8.109375 19.425781 -8.21875 19.34375 -8.3125 C 18.945312 -8.769531 18.503906 -8.828125 18.015625 -8.484375 C 17.515625 -8.117188 17.003906 -7.753906 16.484375 -7.390625 C 16.023438 -7.054688 15.5625 -6.742188 15.09375 -6.453125 C 13.539062 -5.378906 11.898438 -4.476562 10.171875 -3.75 C 8.328125 -2.925781 6.394531 -2.601562 4.375 -2.78125 C 1.207031 -3.15625 -0.429688 -4.910156 -0.546875 -8.046875 C -0.585938 -10.253906 -0.117188 -12.234375 0.859375 -13.984375 C 1.847656 -15.734375 3.21875 -17.019531 4.96875 -17.84375 C 6.71875 -18.675781 8.726562 -18.84375 11 -18.34375 C 11.25 -18.289062 11.585938 -18.210938 12.015625 -18.109375 C 12.265625 -18.023438 12.570312 -17.953125 12.9375 -17.890625 C 12.71875 -18.410156 12.515625 -18.867188 12.328125 -19.265625 C 11.992188 -19.941406 11.703125 -20.554688 11.453125 -21.109375 C 9.929688 -24.234375 8.691406 -27.8125 7.734375 -31.84375 C 6.785156 -35.875 6.316406 -40.003906 6.328125 -44.234375 C 6.347656 -48.472656 7.054688 -52.414062 8.453125 -56.0625 C 9.847656 -59.71875 12.171875 -62.726562 15.421875 -65.09375 C 17.484375 -66.488281 19.609375 -67.242188 21.796875 -67.359375 C 23.992188 -67.472656 26.066406 -66.992188 28.015625 -65.921875 C 29.972656 -64.847656 31.5625 -63.238281 32.78125 -61.09375 C 34.351562 -58.144531 35.328125 -55.039062 35.703125 -51.78125 C 36.367188 -46.5 36.257812 -41.570312 35.375 -37 C 34.488281 -32.425781 32.921875 -28.101562 30.671875 -24.03125 C 28.429688 -19.96875 25.578125 -16.019531 22.109375 -12.1875 C 21.773438 -11.8125 21.597656 -11.515625 21.578125 -11.296875 C 21.566406 -11.085938 21.726562 -10.78125 22.0625 -10.375 C 22.757812 -9.457031 23.519531 -8.5625 24.34375 -7.6875 C 25.175781 -6.8125 26.109375 -6.082031 27.140625 -5.5 C 28.578125 -4.882812 30.113281 -4.875 31.75 -5.46875 C 33.394531 -6.070312 34.914062 -7.007812 36.3125 -8.28125 C 37.707031 -9.5625 38.742188 -10.890625 39.421875 -12.265625 Z M 14.765625 -10.046875 C 15.203125 -10.421875 15.238281 -10.84375 14.875 -11.3125 C 14.65625 -11.570312 14.4375 -11.847656 14.21875 -12.140625 C 13.613281 -12.867188 12.925781 -13.625 12.15625 -14.40625 C 11.382812 -15.1875 10.582031 -15.773438 9.75 -16.171875 C 8.925781 -16.578125 8.085938 -16.613281 7.234375 -16.28125 C 6.066406 -15.726562 5.101562 -14.75 4.34375 -13.34375 C 3.59375 -11.945312 3.148438 -10.507812 3.015625 -9.03125 C 2.878906 -7.5625 3.160156 -6.441406 3.859375 -5.671875 C 4.566406 -4.898438 5.769531 -4.828125 7.46875 -5.453125 C 10.125 -6.617188 12.554688 -8.148438 14.765625 -10.046875 Z M 20.34375 -15.5 C 23.882812 -19.664062 26.53125 -23.765625 28.28125 -27.796875 C 30.03125 -31.835938 31.210938 -36.566406 31.828125 -41.984375 C 32.015625 -43.304688 32.097656 -45.035156 32.078125 -47.171875 C 32.066406 -49.316406 31.875 -51.554688 31.5 -53.890625 C 31.132812 -56.234375 30.472656 -58.363281 29.515625 -60.28125 C 28.566406 -62.195312 27.234375 -63.578125 25.515625 -64.421875 C 23.796875 -65.273438 21.597656 -65.273438 18.921875 -64.421875 C 15.972656 -62.691406 13.785156 -60.398438 12.359375 -57.546875 C 10.929688 -54.691406 10.117188 -51.515625 9.921875 -48.015625 C 9.722656 -44.515625 9.953125 -40.9375 10.609375 -37.28125 C 11.273438 -33.632812 12.195312 -30.171875 13.375 -26.890625 C 14.5625 -23.617188 15.832031 -20.769531 17.1875 -18.34375 C 17.332031 -18.039062 17.484375 -17.738281 17.640625 -17.4375 C 18.035156 -16.445312 18.617188 -15.550781 19.390625 -14.75 C 19.515625 -14.84375 19.632812 -14.9375 19.75 -15.03125 C 19.96875 -15.15625 20.164062 -15.3125 20.34375 -15.5 Z M 20.34375 -15.5 "/></g></g></g><g fill="rgb(0%, 0%, 0%)" fill-opacity="1"><g transform="translate(149.678162, 283.362163)"><g><path d="M 13.03125 -10.203125 C 12.519531 -9.128906 11.640625 -7.9375 10.390625 -6.625 C 9.140625 -5.320312 7.722656 -4.492188 6.140625 -4.140625 C 4.554688 -3.796875 3.046875 -4.34375 1.609375 -5.78125 C 1.054688 -6.414062 0.648438 -7.144531 0.390625 -7.96875 C 0.128906 -8.800781 0.03125 -9.617188 0.09375 -10.421875 C 0.09375 -10.640625 0.09375 -10.914062 0.09375 -11.25 C 0.09375 -12.101562 0.128906 -13.09375 0.203125 -14.21875 C 0.285156 -15.34375 0.457031 -16.351562 0.71875 -17.25 C 0.976562 -18.15625 1.382812 -18.703125 1.9375 -18.890625 C 3.53125 -19.296875 4.390625 -18.742188 4.515625 -17.234375 C 4.515625 -16.742188 4.5 -16.257812 4.46875 -15.78125 C 4.4375 -15.53125 4.421875 -15.296875 4.421875 -15.078125 C 4.390625 -14.367188 4.359375 -13.664062 4.328125 -12.96875 C 4.328125 -12.414062 4.300781 -11.863281 4.25 -11.3125 C 4.21875 -8.875 4.757812 -7.425781 5.875 -6.96875 C 7 -6.507812 8.28125 -7 9.71875 -8.4375 C 11.164062 -9.882812 12.109375 -11.082031 12.546875 -12.03125 C 12.992188 -12.988281 13.316406 -13.191406 13.515625 -12.640625 C 13.710938 -12.085938 13.550781 -11.273438 13.03125 -10.203125 Z M 4.203125 -24.0625 C 3.984375 -23.882812 3.71875 -23.769531 3.40625 -23.71875 C 3.09375 -23.664062 2.820312 -23.691406 2.59375 -23.796875 C 2.40625 -23.941406 2.285156 -24.132812 2.234375 -24.375 C 2.179688 -24.625 2.15625 -24.914062 2.15625 -25.25 C 2.15625 -25.3125 2.171875 -25.378906 2.203125 -25.453125 C 2.242188 -25.753906 2.320312 -26.054688 2.4375 -26.359375 C 2.769531 -27.160156 3.460938 -27.523438 4.515625 -27.453125 C 4.890625 -27.410156 5.179688 -27.257812 5.390625 -27 C 5.597656 -26.75 5.644531 -26.457031 5.53125 -26.125 C 5.28125 -25.300781 4.835938 -24.613281 4.203125 -24.0625 Z M 4.203125 -24.0625 "/></g></g></g><g fill="rgb(0%, 0%, 0%)" fill-opacity="1"><g transform="translate(162.01198, 283.362163)"><g><path d="M 20.78125 -9.671875 C 22.070312 -11.710938 22.835938 -13.007812 23.078125 -13.5625 C 23.316406 -14.113281 23.507812 -14.085938 23.65625 -13.484375 C 23.800781 -12.890625 23.382812 -11.53125 22.40625 -9.40625 C 21.4375 -7.289062 20.226562 -5.65625 18.78125 -4.5 C 17.34375 -3.351562 16 -2.929688 14.75 -3.234375 C 13.507812 -3.535156 12.617188 -4.398438 12.078125 -5.828125 C 11.546875 -7.265625 11.390625 -9.070312 11.609375 -11.25 C 11.609375 -11.289062 11.625 -11.382812 11.65625 -11.53125 C 11.6875 -11.894531 11.75 -12.4375 11.84375 -13.15625 C 11.9375 -13.882812 12.003906 -14.632812 12.046875 -15.40625 C 12.085938 -16.175781 12.0625 -16.8125 11.96875 -17.3125 C 11.875 -17.8125 11.644531 -17.988281 11.28125 -17.84375 C 10.394531 -17.351562 9.523438 -16.398438 8.671875 -14.984375 C 7.828125 -13.566406 7.0625 -12.082031 6.375 -10.53125 C 5.6875 -8.988281 5.203125 -7.738281 4.921875 -6.78125 C 4.804688 -6.476562 4.695312 -6.160156 4.59375 -5.828125 C 4.445312 -5.390625 4.28125 -4.953125 4.09375 -4.515625 C 3.601562 -3.265625 2.757812 -2.78125 1.5625 -3.0625 C 0.882812 -3.21875 0.488281 -3.628906 0.375 -4.296875 C 0.34375 -4.816406 0.328125 -5.3125 0.328125 -5.78125 C 0.328125 -6.082031 0.3125 -6.359375 0.28125 -6.609375 C 0.207031 -10.328125 0.113281 -14.070312 0 -17.84375 C 0.03125 -18.269531 0.222656 -18.566406 0.578125 -18.734375 C 0.929688 -18.910156 1.347656 -19 1.828125 -19 C 2.203125 -19 2.550781 -18.894531 2.875 -18.6875 C 3.195312 -18.488281 3.398438 -18.070312 3.484375 -17.4375 C 3.523438 -17.21875 3.546875 -17 3.546875 -16.78125 C 3.578125 -16.664062 3.59375 -16.554688 3.59375 -16.453125 C 3.65625 -15.929688 3.6875 -15.488281 3.6875 -15.125 C 3.6875 -14.570312 3.722656 -14.191406 3.796875 -13.984375 C 3.878906 -13.785156 4.039062 -13.796875 4.28125 -14.015625 C 4.519531 -14.234375 4.921875 -14.753906 5.484375 -15.578125 C 6.429688 -17.046875 7.609375 -18.289062 9.015625 -19.3125 C 10.304688 -20.238281 11.722656 -20.625 13.265625 -20.46875 C 14.585938 -20.34375 15.472656 -19.648438 15.921875 -18.390625 C 16.109375 -17.753906 16.203125 -17.113281 16.203125 -16.46875 C 16.203125 -15.820312 16.160156 -15.171875 16.078125 -14.515625 C 16.046875 -13.847656 15.992188 -13.164062 15.921875 -12.46875 C 15.878906 -12.25 15.835938 -12.03125 15.796875 -11.8125 C 15.578125 -9.414062 15.648438 -7.8125 16.015625 -7 C 16.390625 -6.1875 16.953125 -5.914062 17.703125 -6.1875 C 18.460938 -6.46875 19.488281 -7.628906 20.78125 -9.671875 Z M 20.78125 -9.671875 "/></g></g></g><g fill="rgb(0%, 0%, 0%)" fill-opacity="1"><g transform="translate(184.117397, 283.362163)"><g><path d="M 27.3125 -12.6875 C 27.644531 -12.769531 27.925781 -12.796875 28.15625 -12.765625 C 28.394531 -12.742188 28.523438 -12.660156 28.546875 -12.515625 C 28.578125 -12.378906 28.363281 -12.160156 27.90625 -11.859375 C 27.726562 -11.753906 27.515625 -11.613281 27.265625 -11.4375 C 26.367188 -10.789062 25.335938 -10.085938 24.171875 -9.328125 C 22.910156 -8.472656 21.765625 -7.6875 20.734375 -6.96875 C 19.703125 -6.257812 19.019531 -5.71875 18.6875 -5.34375 C 18.320312 -4.832031 18.09375 -4.269531 18 -3.65625 C 17.90625 -3.039062 17.84375 -2.382812 17.8125 -1.6875 C 17.757812 -1.132812 17.703125 -0.582031 17.640625 -0.03125 C 16.679688 5.90625 15.066406 10.96875 12.796875 15.15625 C 10.523438 19.351562 7.96875 22.695312 5.125 25.1875 C 2.289062 27.675781 -0.472656 29.300781 -3.171875 30.0625 C -5.878906 30.820312 -8.160156 30.71875 -10.015625 29.75 C -11.878906 28.789062 -12.976562 26.972656 -13.3125 24.296875 C -13.5 22.117188 -13.054688 19.894531 -11.984375 17.625 C -10.910156 15.351562 -9.484375 13.175781 -7.703125 11.09375 C -5.921875 9.019531 -4.03125 7.113281 -2.03125 5.375 C -0.0390625 3.644531 1.796875 2.210938 3.484375 1.078125 C 3.960938 0.742188 4.457031 0.410156 4.96875 0.078125 C 7.363281 -1.578125 9.800781 -3.175781 12.28125 -4.71875 C 13.851562 -5.613281 14.59375 -6.90625 14.5 -8.59375 C 14.5 -8.78125 14.5 -9.039062 14.5 -9.375 C 14.445312 -9.851562 14.421875 -10.367188 14.421875 -10.921875 C 13.460938 -9.421875 12.113281 -8.054688 10.375 -6.828125 C 8.644531 -5.609375 6.875 -4.734375 5.0625 -4.203125 C 3.25 -3.679688 1.695312 -3.710938 0.40625 -4.296875 C -0.882812 -4.878906 -1.554688 -6.242188 -1.609375 -8.390625 C -1.554688 -9.492188 -1.238281 -10.507812 -0.65625 -11.4375 C 0.738281 -13.894531 2.675781 -15.828125 5.15625 -17.234375 C 6.070312 -17.734375 7.179688 -18.097656 8.484375 -18.328125 C 9.796875 -18.554688 11.054688 -18.539062 12.265625 -18.28125 C 13.484375 -18.019531 14.460938 -17.425781 15.203125 -16.5 C 15.378906 -16.800781 15.644531 -17 16 -17.09375 C 16.351562 -17.1875 16.679688 -17.234375 16.984375 -17.234375 C 17.046875 -17.234375 17.097656 -17.234375 17.140625 -17.234375 C 18.503906 -17.367188 19.144531 -16.738281 19.0625 -15.34375 C 19.03125 -14.34375 19 -13.347656 18.96875 -12.359375 C 18.9375 -11.617188 18.894531 -10.898438 18.84375 -10.203125 C 18.894531 -9.359375 19.359375 -9.082031 20.234375 -9.375 C 21.117188 -9.675781 22.1875 -10.175781 23.4375 -10.875 C 24.875 -11.71875 26.164062 -12.320312 27.3125 -12.6875 Z M 11.1875 -11.3125 C 12.71875 -12.863281 13.5625 -14.054688 13.71875 -14.890625 C 13.351562 -15.566406 12.78125 -15.972656 12 -16.109375 C 11.21875 -16.253906 10.425781 -16.25 9.625 -16.09375 C 8.820312 -15.9375 8.144531 -15.6875 7.59375 -15.34375 C 6.0625 -14.394531 4.941406 -13.238281 4.234375 -11.875 C 3.523438 -10.507812 3.257812 -9.34375 3.4375 -8.375 C 3.625 -7.414062 4.34375 -7.085938 5.59375 -7.390625 C 6.84375 -7.691406 8.707031 -9 11.1875 -11.3125 Z M 13.265625 -0.296875 C 13.265625 -0.347656 13.28125 -0.390625 13.3125 -0.421875 C 13.363281 -0.640625 13.40625 -0.914062 13.4375 -1.25 C 13.46875 -1.59375 13.453125 -1.867188 13.390625 -2.078125 C 13.335938 -2.296875 13.203125 -2.332031 12.984375 -2.1875 C 11.441406 -1.113281 9.828125 0.0664062 8.140625 1.359375 C 7.128906 2.097656 6.179688 2.773438 5.296875 3.390625 C 4.054688 4.316406 2.609375 5.515625 0.953125 6.984375 C -0.703125 8.453125 -2.328125 10.097656 -3.921875 11.921875 C -5.515625 13.753906 -6.820312 15.628906 -7.84375 17.546875 C -8.875 19.460938 -9.390625 21.300781 -9.390625 23.0625 C -9.273438 25.570312 -8.570312 27.082031 -7.28125 27.59375 C -5.988281 28.101562 -4.367188 27.789062 -2.421875 26.65625 C -0.472656 25.519531 1.550781 23.675781 3.65625 21.125 C 5.757812 18.582031 7.675781 15.488281 9.40625 11.84375 C 11.144531 8.195312 12.429688 4.148438 13.265625 -0.296875 Z M 13.265625 -0.296875 "/></g></g></g><g fill="rgb(0%, 0%, 0%)" fill-opacity="1"><g transform="translate(210.719257, 283.362163)"><g/></g></g><g fill="rgb(0%, 0%, 0%)" fill-opacity="1"><g transform="translate(223.480112, 283.362163)"><g><path d="M 83.96875 -13.234375 C 84.332031 -13.054688 84.457031 -12.765625 84.34375 -12.359375 C 84.238281 -11.960938 84.035156 -11.539062 83.734375 -11.09375 C 83.429688 -10.644531 83.15625 -10.269531 82.90625 -9.96875 C 82.789062 -9.832031 82.71875 -9.722656 82.6875 -9.640625 C 80.507812 -6.628906 78.617188 -3.460938 77.015625 -0.140625 C 75.410156 3.171875 73.90625 6.539062 72.5 9.96875 C 71.914062 11.289062 71.347656 12.613281 70.796875 13.9375 C 69.503906 16.851562 68.257812 19.785156 67.0625 22.734375 C 64.976562 27.773438 62.78125 32.785156 60.46875 37.765625 C 59.644531 39.503906 58.722656 41.203125 57.703125 42.859375 C 56.890625 44.210938 55.632812 44.875 53.9375 44.84375 C 52.550781 44.875 51.707031 44.226562 51.40625 42.90625 C 51.101562 41.769531 50.9375 40.609375 50.90625 39.421875 C 50.71875 34.929688 50.828125 30.457031 51.234375 26 C 51.492188 22.90625 51.734375 19.820312 51.953125 16.75 C 52.171875 13.4375 52.429688 10.125 52.734375 6.8125 C 53.390625 -0.738281 54.109375 -8.296875 54.890625 -15.859375 C 55.816406 -24.515625 56.773438 -33.144531 57.765625 -41.75 C 59.484375 -56.351562 61.015625 -71.003906 62.359375 -85.703125 C 62.421875 -86.617188 62.4375 -87.375 62.40625 -87.96875 C 62.375 -88.5625 62.242188 -88.78125 62.015625 -88.625 C 61.785156 -88.476562 61.4375 -87.78125 60.96875 -86.53125 C 56.613281 -74 52.597656 -61.378906 48.921875 -48.671875 C 48.765625 -48.203125 48.632812 -47.738281 48.53125 -47.28125 C 46.320312 -39.726562 44.085938 -32.203125 41.828125 -24.703125 C 40.992188 -21.785156 40.023438 -18.832031 38.921875 -15.84375 C 37.816406 -12.851562 36.539062 -10.035156 35.09375 -7.390625 C 34.65625 -6.617188 34.082031 -6.09375 33.375 -5.8125 C 32.675781 -5.539062 31.882812 -5.453125 31 -5.546875 C 30.082031 -5.628906 29.40625 -6.078125 28.96875 -6.890625 C 28.601562 -7.660156 28.378906 -8.488281 28.296875 -9.375 C 28.191406 -10.40625 28.082031 -11.457031 27.96875 -12.53125 C 27.675781 -14.875 27.441406 -17.210938 27.265625 -19.546875 C 26.742188 -26.054688 26.054688 -32.59375 25.203125 -39.15625 C 24.359375 -45.726562 23.269531 -52.210938 21.9375 -58.609375 C 21.5625 -60.234375 21.019531 -60.191406 20.3125 -58.484375 C 19.601562 -56.773438 18.796875 -53.910156 17.890625 -49.890625 C 16.984375 -45.867188 16.019531 -41.238281 15 -36 C 13.988281 -30.769531 13.015625 -25.445312 12.078125 -20.03125 C 11.140625 -14.613281 10.28125 -9.660156 9.5 -5.171875 C 8.320312 1.796875 7.535156 6.234375 7.140625 8.140625 C 6.796875 9.515625 6.332031 10.820312 5.75 12.0625 C 5.476562 12.613281 5.101562 12.976562 4.625 13.15625 C 4.15625 13.34375 3.628906 13.40625 3.046875 13.34375 C 1.867188 13.1875 1.144531 12.507812 0.875 11.3125 C 0.78125 10.664062 0.734375 10.019531 0.734375 9.375 C 0.679688 8.851562 0.65625 8.332031 0.65625 7.8125 C 0.550781 5.789062 0.484375 3.75 0.453125 1.6875 C 0.148438 -14.125 0.242188 -29.953125 0.734375 -45.796875 C 1.046875 -55.816406 1.335938 -65.859375 1.609375 -75.921875 C 1.609375 -76.992188 1.609375 -78.082031 1.609375 -79.1875 C 1.578125 -80.207031 1.578125 -81.253906 1.609375 -82.328125 C 1.640625 -83.148438 1.9375 -83.710938 2.5 -84.015625 C 3.070312 -84.328125 3.742188 -84.316406 4.515625 -83.984375 C 4.816406 -83.890625 5.019531 -83.726562 5.125 -83.5 C 5.238281 -83.269531 5.3125 -83.015625 5.34375 -82.734375 C 5.6875 -79.972656 5.804688 -77.207031 5.703125 -74.4375 C 5.648438 -72.78125 5.59375 -71.125 5.53125 -69.46875 C 5.40625 -64.925781 5.253906 -60.382812 5.078125 -55.84375 C 4.859375 -50 4.710938 -44.164062 4.640625 -38.34375 C 4.554688 -34.03125 4.46875 -29.71875 4.375 -25.40625 C 4.257812 -20.832031 4.21875 -16.265625 4.25 -11.703125 C 4.25 -8.578125 4.234375 -5.40625 4.203125 -2.1875 C 4.203125 -2 4.222656 -1.710938 4.265625 -1.328125 C 4.304688 -0.941406 4.367188 -0.535156 4.453125 -0.109375 C 4.546875 0.316406 4.640625 0.65625 4.734375 0.90625 C 4.828125 1.15625 4.9375 1.21875 5.0625 1.09375 C 5.1875 0.96875 5.304688 0.550781 5.421875 -0.15625 C 5.742188 -2.175781 6.113281 -4.460938 6.53125 -7.015625 C 7.445312 -13.003906 8.535156 -19.613281 9.796875 -26.84375 C 11.066406 -34.070312 12.5 -40.894531 14.09375 -47.3125 C 15.6875 -53.738281 17.40625 -58.726562 19.25 -62.28125 C 20.019531 -63.570312 20.972656 -64.195312 22.109375 -64.15625 C 23.242188 -64.113281 24.164062 -63.414062 24.875 -62.0625 C 25.789062 -59.882812 26.5625 -57.21875 27.1875 -54.0625 C 27.820312 -50.914062 28.347656 -47.640625 28.765625 -44.234375 C 29.179688 -40.828125 29.539062 -37.628906 29.84375 -34.640625 C 30 -33.015625 30.148438 -31.539062 30.296875 -30.21875 C 30.515625 -28.113281 30.71875 -26.179688 30.90625 -24.421875 C 31.34375 -20.253906 31.742188 -17.007812 32.109375 -14.6875 C 32.472656 -12.363281 32.96875 -11.203125 33.59375 -11.203125 C 34.226562 -11.203125 35.085938 -12.644531 36.171875 -15.53125 C 37.265625 -18.425781 38.75 -23.019531 40.625 -29.3125 C 42.3125 -35.144531 43.910156 -40.765625 45.421875 -46.171875 C 47.410156 -53.328125 49.472656 -60.429688 51.609375 -67.484375 C 53.742188 -74.546875 56.253906 -81.90625 59.140625 -89.5625 C 59.992188 -91.769531 60.878906 -93.59375 61.796875 -95.03125 C 62.722656 -96.476562 63.625 -97.234375 64.5 -97.296875 C 64.832031 -97.347656 65.164062 -97.304688 65.5 -97.171875 C 65.832031 -97.046875 66.128906 -96.664062 66.390625 -96.03125 C 66.648438 -95.40625 66.796875 -94.351562 66.828125 -92.875 C 66.890625 -90.414062 66.835938 -87.953125 66.671875 -85.484375 C 66.503906 -83.015625 66.3125 -80.546875 66.09375 -78.078125 C 66.0625 -77.773438 66.046875 -77.5 66.046875 -77.25 C 64.828125 -64.601562 63.460938 -51.984375 61.953125 -39.390625 C 60.992188 -31.171875 60.070312 -22.957031 59.1875 -14.75 C 59.1875 -14.5625 59.171875 -14.351562 59.140625 -14.125 C 58.335938 -6.46875 57.582031 1.195312 56.875 8.875 C 56.289062 15.601562 55.753906 22.34375 55.265625 29.09375 C 55.234375 29.675781 55.203125 30.285156 55.171875 30.921875 C 55.054688 32.648438 54.976562 34.378906 54.9375 36.109375 C 54.9375 36.742188 54.9375 37.351562 54.9375 37.9375 C 54.90625 38.125 54.921875 38.28125 54.984375 38.40625 C 55.054688 38.53125 55.210938 38.59375 55.453125 38.59375 C 55.515625 38.59375 55.59375 38.566406 55.6875 38.515625 C 55.78125 38.460938 55.84375 38.378906 55.875 38.265625 C 58.082031 33.691406 60.242188 29.128906 62.359375 24.578125 C 64.335938 20.179688 66.367188 15.796875 68.453125 11.421875 C 70.535156 7.054688 72.738281 2.722656 75.0625 -1.578125 C 76.976562 -5.203125 78.75 -8.097656 80.375 -10.265625 C 82 -12.429688 83.195312 -13.421875 83.96875 -13.234375 Z M 83.96875 -13.234375 "/></g></g></g><g fill="rgb(0%, 0%, 0%)" fill-opacity="1"><g transform="translate(305.445995, 283.362163)"><g><path d="M 28.421875 -12.90625 C 27.960938 -11.5 27.050781 -9.882812 25.6875 -8.0625 C 24.320312 -6.25 22.617188 -5.082031 20.578125 -4.5625 C 18.535156 -4.050781 16.769531 -4.125 15.28125 -4.78125 C 13.789062 -5.445312 12.96875 -7.21875 12.8125 -10.09375 C 11.125 -6.8125 9.507812 -4.707031 7.96875 -3.78125 C 6.4375 -2.863281 4.84375 -2.515625 3.1875 -2.734375 C 1.3125 -3.035156 0.046875 -3.765625 -0.609375 -4.921875 C -1.273438 -6.078125 -1.5 -7.410156 -1.28125 -8.921875 C -1.0625 -10.441406 -0.601562 -11.898438 0.09375 -13.296875 C 0.644531 -14.328125 1.410156 -15.285156 2.390625 -16.171875 C 3.378906 -17.066406 4.410156 -17.765625 5.484375 -18.265625 C 6.804688 -18.929688 8.132812 -19.25 9.46875 -19.21875 C 10.8125 -19.1875 12.242188 -18.742188 13.765625 -17.890625 C 13.796875 -17.859375 13.8125 -17.890625 13.8125 -17.984375 C 13.8125 -18.140625 13.847656 -18.328125 13.921875 -18.546875 C 14.003906 -18.773438 14.140625 -18.957031 14.328125 -19.09375 C 14.828125 -19.457031 15.421875 -19.640625 16.109375 -19.640625 C 16.796875 -19.640625 17.320312 -19.296875 17.6875 -18.609375 C 17.75 -17.722656 17.65625 -16.59375 17.40625 -15.21875 C 16.851562 -12.207031 16.851562 -10.039062 17.40625 -8.71875 C 17.957031 -7.394531 18.929688 -6.78125 20.328125 -6.875 C 21.734375 -6.96875 23.550781 -8.347656 25.78125 -11.015625 C 28.007812 -13.691406 28.890625 -14.320312 28.421875 -12.90625 Z M 3.6875 -5.828125 C 4.457031 -5.273438 5.34375 -5.347656 6.34375 -6.046875 C 7.34375 -6.753906 8.300781 -7.753906 9.21875 -9.046875 C 10.144531 -10.335938 10.921875 -11.625 11.546875 -12.90625 C 12.171875 -14.195312 12.519531 -15.15625 12.59375 -15.78125 C 10.707031 -16.78125 9.09375 -16.945312 7.75 -16.28125 C 6.414062 -15.625 5.347656 -14.546875 4.546875 -13.046875 C 3.753906 -11.546875 3.285156 -10.085938 3.140625 -8.671875 C 2.992188 -7.265625 3.175781 -6.316406 3.6875 -5.828125 Z M 3.6875 -5.828125 "/></g></g></g><g fill="rgb(0%, 0%, 0%)" fill-opacity="1"><g transform="translate(332.072975, 283.362163)"><g><path d="M 19.578125 -12.3125 C 19.859375 -12.457031 20.085938 -12.519531 20.265625 -12.5 C 20.453125 -12.476562 20.59375 -12.398438 20.6875 -12.265625 C 20.78125 -12.140625 20.828125 -12.015625 20.828125 -11.890625 C 20.828125 -11.765625 20.8125 -11.675781 20.78125 -11.625 C 20.070312 -10.894531 19.300781 -10.109375 18.46875 -9.265625 C 17.320312 -8.160156 16.179688 -7.023438 15.046875 -5.859375 C 13.921875 -4.703125 12.972656 -3.613281 12.203125 -2.59375 C 11.804688 -2.101562 11.828125 -1.640625 12.265625 -1.203125 C 12.992188 -0.378906 13.679688 0.734375 14.328125 2.140625 C 14.972656 3.554688 15.429688 5.066406 15.703125 6.671875 C 15.984375 8.285156 15.953125 9.742188 15.609375 11.046875 C 15.265625 12.359375 14.453125 13.289062 13.171875 13.84375 C 11.171875 14.539062 9.359375 14.382812 7.734375 13.375 C 6.109375 12.363281 5.171875 10.800781 4.921875 8.6875 C 4.804688 6.75 5.191406 4.890625 6.078125 3.109375 C 6.410156 2.410156 6.78125 1.734375 7.1875 1.078125 C 7.40625 0.660156 7.601562 0.269531 7.78125 -0.09375 C 8.1875 -0.75 8.046875 -1.226562 7.359375 -1.53125 C 6.015625 -2.15625 4.648438 -2.375 3.265625 -2.1875 C 2.378906 -2 1.507812 -2.039062 0.65625 -2.3125 C 0.40625 -2.445312 0.238281 -2.632812 0.15625 -2.875 C 0.0820312 -3.113281 0.140625 -3.34375 0.328125 -3.5625 C 0.960938 -4.195312 1.609375 -4.8125 2.265625 -5.40625 C 3.890625 -6.757812 5.390625 -8.378906 6.765625 -10.265625 C 8.148438 -12.148438 9.195312 -14.117188 9.90625 -16.171875 C 9.96875 -16.429688 9.941406 -16.679688 9.828125 -16.921875 C 9.722656 -17.160156 9.5625 -17.359375 9.34375 -17.515625 C 8.757812 -17.953125 8.097656 -18.148438 7.359375 -18.109375 C 6.109375 -18.023438 4.976562 -17.617188 3.96875 -16.890625 C 3.3125 -16.410156 3.03125 -15.957031 3.125 -15.53125 C 3.21875 -15.101562 3.445312 -14.675781 3.8125 -14.25 C 4.101562 -13.875 4.363281 -13.488281 4.59375 -13.09375 C 4.625 -12.9375 4.566406 -12.765625 4.421875 -12.578125 C 4.273438 -12.398438 4.09375 -12.242188 3.875 -12.109375 C 3.65625 -11.972656 3.453125 -11.890625 3.265625 -11.859375 C 2.554688 -11.703125 1.910156 -11.867188 1.328125 -12.359375 C 0.503906 -13.097656 0.078125 -13.972656 0.046875 -14.984375 C 0.015625 -15.992188 0.382812 -16.882812 1.15625 -17.65625 C 1.707031 -18.144531 2.300781 -18.53125 2.9375 -18.8125 C 4.039062 -19.363281 5.160156 -19.6875 6.296875 -19.78125 C 7.441406 -19.875 8.625 -19.828125 9.84375 -19.640625 C 10.5 -19.515625 11.144531 -19.265625 11.78125 -18.890625 C 13.175781 -18.066406 13.640625 -16.867188 13.171875 -15.296875 C 12.609375 -13.703125 11.738281 -12.03125 10.5625 -10.28125 C 9.382812 -8.53125 8.222656 -7.085938 7.078125 -5.953125 C 6.929688 -5.804688 6.800781 -5.695312 6.6875 -5.625 C 6.4375 -5.351562 6.234375 -5.125 6.078125 -4.9375 C 5.929688 -4.757812 5.875 -4.578125 5.90625 -4.390625 C 6.726562 -4.472656 7.429688 -4.410156 8.015625 -4.203125 C 8.597656 -3.992188 9.148438 -3.707031 9.671875 -3.34375 C 10.035156 -3.425781 10.59375 -3.828125 11.34375 -4.546875 C 12.101562 -5.265625 12.960938 -6.117188 13.921875 -7.109375 C 14.921875 -8.179688 15.921875 -9.191406 16.921875 -10.140625 C 17.921875 -11.097656 18.804688 -11.820312 19.578125 -12.3125 Z M 9.90625 12.328125 C 10.96875 12.785156 11.65625 12.613281 11.96875 11.8125 C 12.28125 11.019531 12.375 9.929688 12.25 8.546875 C 12.125 7.171875 11.898438 5.859375 11.578125 4.609375 C 11.265625 3.359375 11 2.492188 10.78125 2.015625 C 10.664062 1.828125 10.539062 1.648438 10.40625 1.484375 C 10.28125 1.316406 10.066406 1.179688 9.765625 1.078125 C 8.378906 2.921875 7.578125 5 7.359375 7.3125 C 7.242188 8.414062 7.425781 9.421875 7.90625 10.328125 C 8.382812 11.234375 9.050781 11.898438 9.90625 12.328125 Z M 9.90625 12.328125 "/></g></g></g><g fill="rgb(0%, 0%, 0%)" fill-opacity="1"><g transform="translate(49.457632, 367.022886)"><g><path d="M 20.058594 -25.210938 L 0.539062 -25.210938 L 0.539062 -25.027344 C 2.015625 -24.847656 3.277344 -24.453125 3.277344 -23.15625 L 3.277344 -2.773438 C 3.277344 -1.476562 2.015625 -0.71875 0.539062 -0.179688 L 0.539062 0 L 9.6875 0 L 9.6875 -0.179688 C 8.210938 -0.359375 6.949219 -0.757812 6.949219 -2.054688 L 6.949219 -11.957031 L 12.171875 -11.957031 C 15.988281 -11.957031 17.070312 -10.984375 17.933594 -8.320312 L 17.933594 -16.167969 C 17.070312 -13.503906 15.988281 -12.53125 12.171875 -12.53125 L 6.949219 -12.53125 L 6.949219 -24.632812 L 13.214844 -24.632812 C 17.214844 -24.632812 18.691406 -22.832031 21.105469 -19.410156 L 21.246094 -19.484375 Z M 20.058594 -25.210938 "/></g></g></g><g fill="rgb(0%, 0%, 0%)" fill-opacity="1"><g transform="translate(91.379654, 367.022886)"><g><path d="M 21.285156 -7.023438 C 18.617188 -2.84375 16.890625 -0.578125 11.921875 -0.578125 L 6.949219 -0.578125 L 6.949219 -23.15625 C 6.949219 -24.453125 8.210938 -24.847656 10.046875 -25.027344 L 10.046875 -25.210938 L 0.539062 -25.210938 L 0.539062 -25.027344 C 2.015625 -24.847656 3.277344 -24.453125 3.277344 -23.15625 L 3.277344 -2.773438 C 3.277344 -1.476562 2.015625 -0.71875 0.539062 -0.179688 L 0.539062 0 L 18.222656 0 L 19.445312 0.792969 L 19.664062 0 L 21.425781 -6.949219 Z M 21.285156 -7.023438 "/></g></g></g><g fill="rgb(0%, 0%, 0%)" fill-opacity="1"><g transform="translate(133.301675, 367.022886)"><g><path d="M 15.199219 -25.714844 C 7.671875 -25.714844 1.621094 -20.707031 1.621094 -12.605469 C 1.621094 -4.5 7.671875 0.503906 15.199219 0.503906 C 22.6875 0.503906 28.738281 -4.5 28.738281 -12.605469 C 28.738281 -20.707031 22.6875 -25.714844 15.199219 -25.714844 Z M 16.636719 -0.144531 C 10.15625 -0.144531 5.511719 -7.492188 5.511719 -14.765625 C 5.511719 -20.851562 8.75 -25.066406 13.722656 -25.066406 C 20.203125 -25.066406 24.847656 -17.71875 24.847656 -10.480469 C 24.847656 -4.359375 21.609375 -0.144531 16.636719 -0.144531 Z M 16.636719 -0.144531 "/></g></g></g><g fill="rgb(0%, 0%, 0%)" fill-opacity="1"><g transform="translate(183.613035, 367.022886)"><g><path d="M 20.023438 -4.753906 L 15.558594 -10.804688 C 19.988281 -11.882812 22.6875 -14.835938 22.6875 -18.582031 C 22.6875 -23.011719 18.980469 -25.210938 13.179688 -25.210938 L 0.539062 -25.210938 L 0.539062 -25.027344 C 2.015625 -24.847656 3.277344 -24.453125 3.277344 -23.15625 L 3.277344 -2.054688 C 3.277344 -0.757812 2.015625 -0.359375 0.539062 -0.179688 L 0.539062 0 L 9.6875 0 L 9.6875 -0.179688 C 8.210938 -0.359375 6.949219 -0.757812 6.949219 -2.054688 L 6.949219 -10.335938 L 11.847656 -10.335938 L 18.871094 -0.613281 L 18.871094 0 L 25.390625 0 L 25.390625 -0.109375 C 23.515625 -1.042969 22.148438 -1.835938 20.023438 -4.753906 Z M 6.949219 -11.777344 L 6.949219 -24.5625 L 11.234375 -24.5625 C 18.007812 -24.5625 19.085938 -20.851562 19.085938 -17.25 C 19.085938 -12.246094 17.070312 -10.984375 12.605469 -10.984375 C 10.660156 -10.984375 8.859375 -11.234375 6.949219 -11.777344 Z M 6.949219 -11.777344 "/></g></g></g><g fill="rgb(0%, 0%, 0%)" fill-opacity="1"><g transform="translate(228.595544, 367.022886)"><g><path d="M 0.539062 0 L 9.6875 0 L 9.6875 -0.179688 C 8.210938 -0.359375 6.949219 -0.757812 6.949219 -2.054688 L 6.949219 -23.15625 C 6.949219 -24.453125 8.210938 -24.847656 9.6875 -25.027344 L 9.6875 -25.210938 L 0.539062 -25.210938 L 0.539062 -25.027344 C 2.015625 -24.847656 3.277344 -24.453125 3.277344 -23.15625 L 3.277344 -2.054688 C 3.277344 -0.757812 2.015625 -0.359375 0.539062 -0.179688 Z M 0.539062 0 "/></g></g></g><g fill="rgb(0%, 0%, 0%)" fill-opacity="1"><g transform="translate(258.779699, 367.022886)"><g><path d="M 12.351562 -14.371094 C 8.570312 -15.234375 5.078125 -16.457031 5.078125 -20.5625 C 5.078125 -23.011719 6.300781 -25.101562 9.722656 -25.101562 C 13.757812 -25.101562 17.464844 -22.21875 16.890625 -17.359375 L 20.09375 -22.4375 C 18.1875 -24.273438 15.449219 -25.714844 11.34375 -25.714844 C 5.691406 -25.714844 2.160156 -22.976562 2.160156 -18.796875 C 2.160156 -15.882812 3.851562 -12.496094 10.660156 -10.875 C 14.945312 -9.867188 17.683594 -8.894531 17.683594 -5.257812 C 17.683594 -2.917969 16.566406 -0.144531 12.425781 -0.144531 C 8.140625 -0.144531 4.035156 -3.023438 4.574219 -7.886719 L 1.441406 -2.882812 C 3.386719 -1.007812 6.625 0.503906 10.839844 0.503906 C 17.179688 0.503906 20.527344 -2.953125 20.527344 -7.023438 C 20.527344 -9.542969 19.265625 -12.785156 12.351562 -14.371094 Z M 12.351562 -14.371094 "/></g></g></g><g fill="rgb(0%, 0%, 0%)" fill-opacity="1"><g transform="translate(300.701732, 367.022886)"><g><path d="M 24.488281 -25.210938 L 1.546875 -25.210938 L 0.359375 -17.789062 L 0.503906 -17.789062 C 2.59375 -22.6875 4.105469 -24.667969 9.578125 -24.667969 L 10.40625 -24.667969 L 10.40625 -2.414062 C 10.40625 -0.757812 9.148438 -0.359375 6.949219 -0.179688 L 6.949219 0 L 17.539062 0 L 17.539062 -0.179688 C 15.339844 -0.359375 14.082031 -0.757812 14.082031 -2.414062 L 14.082031 -24.667969 L 16.710938 -24.667969 C 20.417969 -24.667969 22.507812 -22.6875 22.039062 -17.789062 L 22.183594 -17.789062 Z M 24.488281 -25.210938 "/></g></g></g></svg>