<svg xmlns="http://www.w3.org/2000/svg" xmlns:xlink="http://www.w3.org/1999/xlink" width="135" zoomAndPan="magnify" viewBox="0 0 101.25 74.999997" height="100" preserveAspectRatio="xMidYMid meet" version="1.0"><defs><clipPath id="id1"><path d="M 26 4 L 43 4 L 43 74.722656 L 26 74.722656 Z M 26 4 " clip-rule="nonzero"/></clipPath><clipPath id="id2"><path d="M 44 3 L 59 3 L 59 74.722656 L 44 74.722656 Z M 44 3 " clip-rule="nonzero"/></clipPath><clipPath id="id3"><path d="M 0 3 L 23 3 L 23 74.722656 L 0 74.722656 Z M 0 3 " clip-rule="nonzero"/></clipPath><clipPath id="id4"><path d="M 84 4 L 100.503906 4 L 100.503906 74.722656 L 84 74.722656 Z M 84 4 " clip-rule="nonzero"/></clipPath><clipPath id="id5"><path d="M 60 0.277344 L 83 0.277344 L 83 74.722656 L 60 74.722656 Z M 60 0.277344 " clip-rule="nonzero"/></clipPath></defs><g clip-path="url(#id1)"><path fill="rgb(27.839661%, 20.779419%, 22.749329%)" d="M 37.914062 43.277344 C 37.613281 30.292969 37.316406 17.3125 36.984375 4.09375 C 38.875 4.09375 40.46875 4.09375 42.257812 4.09375 C 42.257812 27.539062 42.257812 50.882812 42.257812 74.65625 C 40.964844 74.65625 37.480469 74.625 37.480469 74.625 L 37.183594 73.261719 C 35.625 63.933594 34.199219 54.601562 32.671875 45.269531 C 32.042969 41.386719 31.347656 37.53125 30.285156 33.679688 C 30.617188 47.230469 30.914062 60.777344 31.246094 74.492188 C 29.488281 74.492188 27.863281 74.492188 26.039062 74.492188 C 26.039062 51.082031 26.039062 27.671875 26.039062 4.261719 L 30.914062 4.226562 C 32.40625 13.890625 34.664062 27.304688 36.253906 36.96875 C 36.621094 39.09375 36.886719 41.253906 37.183594 43.378906 C 37.414062 43.34375 37.679688 43.3125 37.914062 43.277344 Z M 37.914062 43.277344 " fill-opacity="1" fill-rule="nonzero"/></g><g clip-path="url(#id2)"><path fill="rgb(27.839661%, 20.779419%, 22.749329%)" d="M 44.214844 74.625 C 44.214844 50.949219 44.214844 27.570312 44.214844 3.996094 C 47.398438 3.996094 50.519531 3.695312 53.535156 4.0625 C 56.886719 4.460938 58.941406 7.648438 58.976562 11.796875 C 59.007812 20.132812 58.976562 28.433594 58.976562 36.769531 C 58.976562 46.433594 58.976562 56.09375 58.976562 65.757812 C 58.976562 72.035156 56.390625 74.625 50.121094 74.65625 C 48.230469 74.625 46.304688 74.625 44.214844 74.625 Z M 49.6875 68.914062 C 53.238281 69.34375 53.503906 69.144531 53.503906 65.957031 C 53.503906 53.371094 53.503906 40.753906 53.503906 28.167969 C 53.503906 22.722656 53.535156 17.246094 53.46875 11.796875 C 53.46875 11 53.105469 9.871094 52.507812 9.472656 C 50.785156 8.3125 49.554688 9.242188 49.554688 11.632812 C 49.554688 30.027344 49.554688 48.425781 49.554688 66.820312 C 49.554688 67.453125 49.65625 68.117188 49.6875 68.914062 Z M 49.6875 68.914062 " fill-opacity="1" fill-rule="nonzero"/></g><path fill="rgb(27.839661%, 20.779419%, 22.749329%)" d="M 22.988281 36.371094 C 22.988281 44.539062 22.988281 52.675781 22.988281 60.84375 C 22.988281 65.394531 20.300781 68.214844 15.953125 68.347656 C 11.3125 68.480469 8.390625 65.957031 8.359375 61.242188 C 8.257812 44.507812 8.257812 27.769531 8.359375 11.035156 C 8.390625 6.550781 11.445312 3.894531 15.789062 3.996094 C 20.132812 4.09375 22.953125 6.949219 22.953125 11.398438 C 23.019531 19.734375 22.988281 28.035156 22.988281 36.371094 Z M 13.535156 36.238281 C 13.535156 41.351562 13.535156 46.5 13.535156 51.613281 C 13.535156 54.734375 13.402344 57.820312 13.632812 60.945312 C 13.699219 61.707031 14.894531 62.902344 15.558594 62.902344 C 16.253906 62.9375 17.148438 61.808594 17.613281 61.011719 C 17.945312 60.445312 17.714844 59.550781 17.714844 58.785156 C 17.714844 47.527344 17.714844 36.269531 17.714844 25.015625 C 17.714844 20.730469 17.8125 16.445312 17.648438 12.164062 C 17.613281 11.199219 16.851562 9.707031 16.121094 9.472656 C 14.230469 8.910156 13.5 10.171875 13.5 12.03125 C 13.566406 20.132812 13.535156 28.203125 13.535156 36.238281 Z M 13.535156 36.238281 " fill-opacity="1" fill-rule="nonzero"/><g clip-path="url(#id3)"><path fill="rgb(27.839661%, 20.779419%, 22.749329%)" d="M 0.101562 3.996094 C 1.824219 3.996094 3.382812 3.996094 5.273438 3.996094 C 5.273438 25.8125 5.273438 47.5625 5.273438 69.609375 C 11.3125 69.609375 17.050781 69.609375 22.988281 69.609375 C 22.988281 71.402344 22.988281 72.863281 22.988281 74.492188 C 15.390625 74.492188 7.863281 74.492188 0.101562 74.492188 C 0.101562 51.113281 0.101562 27.703125 0.101562 3.996094 Z M 0.101562 3.996094 " fill-opacity="1" fill-rule="nonzero"/></g><g clip-path="url(#id4)"><path fill="rgb(27.839661%, 20.779419%, 22.749329%)" d="M 96.058594 43.34375 C 95.761719 30.359375 95.464844 17.378906 95.132812 4.160156 C 97.023438 4.160156 98.613281 4.160156 100.40625 4.160156 C 100.40625 27.605469 100.40625 50.949219 100.40625 74.722656 C 99.113281 74.722656 95.628906 74.691406 95.628906 74.691406 L 95.296875 73.328125 C 93.738281 64 92.3125 54.667969 90.785156 45.335938 C 90.15625 41.453125 89.460938 37.601562 88.398438 33.746094 C 88.730469 47.296875 89.027344 60.84375 89.359375 74.558594 C 87.601562 74.558594 85.976562 74.558594 84.152344 74.558594 C 84.152344 51.148438 84.152344 27.738281 84.152344 4.328125 L 89.027344 4.292969 C 90.519531 13.957031 92.777344 27.371094 94.367188 37.035156 C 94.734375 39.160156 95 41.320312 95.296875 43.445312 C 95.53125 43.410156 95.796875 43.378906 96.058594 43.34375 Z M 96.058594 43.34375 " fill-opacity="1" fill-rule="nonzero"/></g><path fill="rgb(27.839661%, 20.779419%, 22.749329%)" d="M 70.949219 29.132812 L 71.515625 29.132812 L 71.515625 34.808594 L 70.949219 34.808594 Z M 70.949219 29.132812 " fill-opacity="1" fill-rule="nonzero"/><path fill="rgb(27.839661%, 20.779419%, 22.749329%)" d="M 70.949219 34.046875 L 74.5 34.046875 L 74.5 34.808594 L 70.949219 34.808594 Z M 70.949219 34.046875 " fill-opacity="1" fill-rule="nonzero"/><g clip-path="url(#id5)"><path fill="rgb(27.839661%, 20.779419%, 22.749329%)" d="M 81.398438 23.753906 C 81.398438 23.519531 81.367188 23.023438 81.398438 22.988281 C 81.132812 22.921875 80.867188 22.890625 80.503906 22.824219 L 80.503906 19.800781 C 80.339844 19.667969 80.171875 19.503906 80.074219 19.335938 C 79.078125 18.207031 78.382812 17.042969 78.148438 15.683594 C 77.917969 14.121094 77.816406 12.496094 77.75 10.902344 C 77.75 10.335938 77.71875 9.738281 77.71875 9.175781 C 77.550781 9.074219 77.417969 8.941406 77.320312 8.808594 L 77.320312 8.910156 C 76.886719 8.511719 76.621094 8.277344 76.390625 8.011719 C 74.730469 6.253906 73.539062 4.195312 72.542969 2.003906 C 72.277344 1.4375 72.078125 0.875 71.945312 0.277344 L 71.117188 0.277344 C 70.882812 1.171875 70.554688 2.035156 70.121094 2.898438 C 69.824219 3.496094 69.492188 4.128906 69.160156 4.726562 C 68.398438 6.019531 67.535156 7.25 66.308594 8.410156 C 66.042969 8.742188 65.710938 9.007812 65.34375 9.242188 C 65.34375 10.269531 65.34375 11.265625 65.34375 12.296875 C 65.34375 14.585938 65.011719 16.777344 63.621094 18.671875 C 63.421875 19.039062 63.15625 19.402344 62.855469 19.636719 C 62.757812 19.703125 62.691406 19.769531 62.59375 19.835938 L 62.59375 22.921875 C 62.195312 22.957031 61.929688 22.988281 61.664062 23.023438 C 61.628906 23.253906 61.597656 23.488281 61.5625 23.753906 L 60.867188 23.917969 C 60.867188 29.828125 60.898438 36.933594 60.867188 42.847656 L 61.496094 43.078125 C 61.730469 43.808594 61.929688 44.472656 62.09375 45.136719 C 62.261719 45.933594 62.527344 46.699219 62.527344 47.496094 C 62.558594 56.261719 62.558594 64.996094 62.558594 73.761719 L 62.558594 74.65625 L 80.535156 74.65625 C 80.535156 74.292969 80.535156 73.992188 80.535156 73.695312 C 80.535156 65.359375 80.535156 56.992188 80.535156 48.65625 C 80.535156 47.828125 80.535156 46.964844 80.636719 46.132812 C 80.769531 45.070312 81.300781 44.109375 81.53125 43.046875 C 81.730469 43.011719 81.929688 42.980469 82.164062 42.914062 L 82.164062 23.851562 Z M 77.085938 19.769531 C 77.085938 19.601562 77.21875 19.4375 77.417969 19.4375 C 77.617188 19.4375 77.75 19.570312 77.75 19.769531 L 77.75 24.050781 L 77.121094 24.050781 L 77.121094 19.769531 Z M 74.300781 19.800781 C 74.300781 19.636719 74.433594 19.46875 74.632812 19.46875 C 74.796875 19.46875 74.964844 19.601562 74.964844 19.800781 L 74.964844 24.085938 L 74.335938 24.085938 L 74.335938 19.800781 Z M 71.613281 19.800781 C 71.613281 19.636719 71.746094 19.46875 71.945312 19.46875 C 72.144531 19.46875 72.277344 19.601562 72.277344 19.800781 L 72.277344 24.085938 L 71.648438 24.085938 L 71.648438 19.800781 Z M 68.660156 19.769531 C 68.660156 19.601562 68.792969 19.4375 68.992188 19.4375 C 69.191406 19.4375 69.324219 19.570312 69.324219 19.769531 L 69.324219 24.050781 L 68.695312 24.050781 L 68.695312 19.769531 Z M 65.976562 19.800781 C 65.976562 19.636719 66.109375 19.46875 66.308594 19.46875 C 66.507812 19.46875 66.640625 19.601562 66.640625 19.800781 L 66.640625 24.085938 L 66.007812 24.085938 L 66.007812 19.800781 Z M 66.507812 72.796875 L 65.875 72.796875 L 65.875 47.5625 C 65.875 47.394531 66.007812 47.261719 66.175781 47.261719 L 66.207031 47.261719 C 66.375 47.261719 66.507812 47.394531 66.507812 47.5625 Z M 69.191406 72.796875 L 68.5625 72.796875 L 68.5625 47.394531 C 68.5625 47.230469 68.695312 47.097656 68.859375 47.097656 L 68.894531 47.097656 C 69.058594 47.097656 69.191406 47.230469 69.191406 47.394531 Z M 72.144531 72.796875 L 71.515625 72.796875 L 71.515625 47.394531 C 71.515625 47.230469 71.648438 47.097656 71.8125 47.097656 L 71.847656 47.097656 C 72.011719 47.097656 72.144531 47.230469 72.144531 47.394531 Z M 75.164062 72.796875 L 74.53125 72.796875 L 74.53125 47.429688 C 74.53125 47.261719 74.664062 47.097656 74.863281 47.097656 C 75.03125 47.097656 75.195312 47.230469 75.195312 47.429688 L 75.195312 72.796875 Z M 77.617188 72.632812 L 76.988281 72.632812 L 76.988281 47.394531 C 76.988281 47.230469 77.121094 47.097656 77.285156 47.097656 L 77.320312 47.097656 C 77.484375 47.097656 77.617188 47.230469 77.617188 47.394531 Z M 78.976562 33.582031 C 78.746094 37.898438 75.296875 41.21875 71.28125 41.019531 C 67.035156 40.789062 63.851562 37.234375 64.050781 32.949219 C 64.285156 28.765625 67.734375 25.480469 71.679688 25.644531 C 75.894531 25.84375 79.210938 29.464844 78.976562 33.582031 Z M 78.976562 33.582031 " fill-opacity="1" fill-rule="nonzero"/></g></svg>