<svg xmlns="http://www.w3.org/2000/svg" xmlns:xlink="http://www.w3.org/1999/xlink" width="200" zoomAndPan="magnify" viewBox="0 0 150 74.999997" height="100" preserveAspectRatio="xMidYMid meet" version="1.0"><defs><clipPath id="id1"><path d="M 4 0.9375 L 145 0.9375 L 145 50 L 4 50 Z M 4 0.9375 " clip-rule="nonzero"/></clipPath><clipPath id="id2"><path d="M 0 67 L 149 67 L 149 74.4375 L 0 74.4375 Z M 0 67 " clip-rule="nonzero"/></clipPath></defs><path fill="rgb(27.839661%, 20.779419%, 22.749329%)" d="M 18.113281 66.605469 L 15.851562 66.605469 L 8.421875 56.695312 C 8.363281 56.632812 8.273438 56.503906 8.144531 56.308594 C 8.015625 56.117188 7.878906 55.910156 7.734375 55.679688 C 7.589844 55.453125 7.449219 55.226562 7.316406 55.007812 C 7.183594 54.785156 7.085938 54.617188 7.023438 54.5 L 7.023438 66.601562 L 4.890625 66.601562 L 4.890625 51.335938 L 7.320312 51.335938 L 14.40625 60.902344 C 14.523438 61.070312 14.660156 61.269531 14.820312 61.5 C 14.976562 61.734375 15.128906 61.96875 15.277344 62.207031 C 15.425781 62.445312 15.566406 62.675781 15.695312 62.890625 C 15.824219 63.109375 15.921875 63.285156 15.992188 63.417969 L 15.992188 51.339844 L 18.117188 51.339844 L 18.117188 66.605469 Z M 18.113281 66.605469 " fill-opacity="1" fill-rule="nonzero"/><path fill="rgb(27.839661%, 20.779419%, 22.749329%)" d="M 34.859375 66.605469 L 27.269531 66.605469 L 27.269531 51.339844 L 34.839844 51.339844 L 34.839844 53.320312 L 29.558594 53.320312 L 29.558594 57.957031 L 34.863281 57.957031 L 34.863281 59.914062 L 29.558594 59.914062 L 29.558594 64.644531 L 34.863281 64.644531 L 34.863281 66.605469 Z M 34.859375 66.605469 " fill-opacity="1" fill-rule="nonzero"/><path fill="rgb(27.839661%, 20.779419%, 22.749329%)" d="M 63.824219 51.339844 L 59.011719 66.605469 L 56.761719 66.605469 L 53.050781 55.832031 C 52.964844 55.550781 52.894531 55.289062 52.835938 55.050781 C 52.777344 54.808594 52.738281 54.566406 52.722656 54.308594 L 52.679688 54.308594 C 52.597656 54.808594 52.488281 55.304688 52.335938 55.808594 L 48.898438 66.605469 L 46.644531 66.605469 L 41.695312 51.339844 L 44.015625 51.339844 L 47.480469 62.25 C 47.554688 62.492188 47.621094 62.738281 47.679688 62.988281 C 47.734375 63.234375 47.773438 63.496094 47.796875 63.769531 L 47.84375 63.769531 C 47.867188 63.589844 47.914062 63.375 47.976562 63.121094 C 48.046875 62.871094 48.121094 62.582031 48.207031 62.25 L 51.691406 51.339844 L 53.78125 51.339844 L 57.5 62.378906 C 57.5625 62.589844 57.625 62.808594 57.6875 63.03125 C 57.75 63.257812 57.792969 63.503906 57.816406 63.769531 L 57.839844 63.769531 C 57.867188 63.589844 57.914062 63.378906 57.976562 63.140625 C 58.042969 62.902344 58.121094 62.628906 58.207031 62.332031 L 61.511719 51.339844 Z M 63.824219 51.339844 " fill-opacity="1" fill-rule="nonzero"/><path fill="rgb(27.839661%, 20.779419%, 22.749329%)" d="M 86.800781 51.339844 L 81.613281 60.175781 L 81.613281 66.605469 L 79.304688 66.605469 L 79.304688 60.246094 L 74.117188 51.339844 L 76.683594 51.339844 L 79.851562 57.035156 C 79.902344 57.113281 79.953125 57.210938 80.007812 57.320312 C 80.058594 57.429688 80.117188 57.542969 80.175781 57.660156 C 80.234375 57.777344 80.292969 57.898438 80.347656 58.019531 C 80.402344 58.140625 80.449219 58.25 80.488281 58.34375 C 80.527344 58.242188 80.570312 58.132812 80.617188 58.015625 C 80.664062 57.898438 80.714844 57.777344 80.765625 57.664062 C 80.816406 57.542969 80.867188 57.433594 80.917969 57.328125 C 80.96875 57.21875 81.019531 57.132812 81.0625 57.0625 L 84.375 51.339844 Z M 86.800781 51.339844 " fill-opacity="1" fill-rule="nonzero"/><path fill="rgb(27.839661%, 20.779419%, 22.749329%)" d="M 107.417969 58.769531 C 107.417969 60.003906 107.253906 61.117188 106.921875 62.113281 C 106.589844 63.109375 106.113281 63.957031 105.492188 64.648438 C 104.867188 65.34375 104.113281 65.882812 103.21875 66.253906 C 102.328125 66.628906 101.316406 66.816406 100.191406 66.816406 C 99.113281 66.816406 98.136719 66.632812 97.257812 66.265625 C 96.382812 65.902344 95.636719 65.382812 95.019531 64.710938 C 94.402344 64.039062 93.921875 63.230469 93.585938 62.289062 C 93.25 61.34375 93.082031 60.292969 93.082031 59.140625 C 93.082031 57.929688 93.25 56.832031 93.578125 55.84375 C 93.914062 54.855469 94.394531 54.011719 95.027344 53.320312 C 95.664062 52.625 96.4375 52.085938 97.347656 51.707031 C 98.257812 51.328125 99.292969 51.144531 100.449219 51.144531 C 101.507812 51.144531 102.464844 51.328125 103.328125 51.699219 C 104.1875 52.066406 104.921875 52.585938 105.527344 53.257812 C 106.132812 53.933594 106.601562 54.738281 106.929688 55.671875 C 107.257812 56.601562 107.417969 57.636719 107.417969 58.769531 Z M 105.050781 59.019531 C 105.050781 58.089844 104.945312 57.257812 104.746094 56.523438 C 104.542969 55.789062 104.238281 55.167969 103.84375 54.65625 C 103.441406 54.144531 102.949219 53.75 102.363281 53.480469 C 101.777344 53.210938 101.101562 53.074219 100.332031 53.074219 C 99.597656 53.074219 98.929688 53.21875 98.332031 53.503906 C 97.734375 53.792969 97.222656 54.195312 96.800781 54.714844 C 96.378906 55.234375 96.050781 55.855469 95.820312 56.582031 C 95.589844 57.3125 95.476562 58.113281 95.476562 58.996094 C 95.476562 59.878906 95.582031 60.679688 95.800781 61.402344 C 96.023438 62.125 96.339844 62.742188 96.746094 63.253906 C 97.160156 63.765625 97.65625 64.160156 98.238281 64.445312 C 98.820312 64.730469 99.472656 64.871094 100.191406 64.871094 C 100.960938 64.871094 101.644531 64.742188 102.246094 64.476562 C 102.847656 64.210938 103.359375 63.832031 103.773438 63.332031 C 104.183594 62.832031 104.503906 62.214844 104.722656 61.488281 C 104.941406 60.761719 105.050781 59.9375 105.050781 59.019531 Z M 105.050781 59.019531 " fill-opacity="1" fill-rule="nonzero"/><path fill="rgb(27.839661%, 20.779419%, 22.749329%)" d="M 126.125 66.605469 L 123.402344 66.605469 L 119.179688 59.867188 L 118.121094 59.867188 L 118.121094 66.605469 L 115.808594 66.605469 L 115.808594 51.339844 L 119.25 51.339844 C 120.054688 51.339844 120.804688 51.402344 121.503906 51.53125 C 122.199219 51.664062 122.804688 51.882812 123.316406 52.191406 C 123.828125 52.503906 124.230469 52.917969 124.523438 53.425781 C 124.820312 53.9375 124.964844 54.578125 124.964844 55.347656 C 124.964844 55.914062 124.863281 56.429688 124.667969 56.894531 C 124.464844 57.359375 124.203125 57.761719 123.878906 58.109375 C 123.554688 58.457031 123.183594 58.742188 122.761719 58.976562 C 122.335938 59.207031 121.902344 59.375 121.457031 59.476562 Z M 122.546875 55.417969 C 122.546875 54.6875 122.285156 54.15625 121.765625 53.820312 C 121.246094 53.488281 120.445312 53.320312 119.367188 53.320312 L 118.121094 53.320312 L 118.121094 57.980469 L 119.246094 57.980469 C 120.3125 57.980469 121.128906 57.753906 121.695312 57.300781 C 122.265625 56.851562 122.546875 56.222656 122.546875 55.417969 Z M 122.546875 55.417969 " fill-opacity="1" fill-rule="nonzero"/><path fill="rgb(27.839661%, 20.779419%, 22.749329%)" d="M 144.9375 66.605469 L 141.957031 66.605469 L 136.546875 60.730469 C 136.4375 60.617188 136.316406 60.488281 136.183594 60.34375 C 136.050781 60.199219 135.925781 60.054688 135.808594 59.914062 L 135.808594 66.601562 L 133.496094 66.601562 L 133.496094 51.335938 L 135.808594 51.335938 L 135.828125 58.050781 C 135.996094 57.84375 136.167969 57.636719 136.347656 57.429688 C 136.527344 57.222656 136.667969 57.050781 136.769531 56.917969 L 141.59375 51.335938 L 144.386719 51.335938 L 137.757812 58.851562 Z M 144.9375 66.605469 " fill-opacity="1" fill-rule="nonzero"/><g clip-path="url(#id1)"><path fill="rgb(27.839661%, 20.779419%, 22.749329%)" d="M 138.765625 44.4375 L 138.765625 35.644531 L 139.191406 35.421875 L 137.570312 33.929688 L 137.570312 33.667969 L 136.992188 33.667969 L 136.992188 32.964844 L 136.664062 32.585938 L 136.355469 31.601562 L 135.96875 31.601562 L 135.660156 32.585938 L 135.332031 32.964844 L 135.332031 33.667969 L 134.753906 33.667969 L 134.753906 33.929688 L 133.132812 35.421875 L 133.558594 35.644531 L 133.558594 42.589844 L 132.480469 42.589844 L 132.480469 40.648438 L 131.859375 40.648438 L 131.859375 41.203125 L 131.261719 41.203125 L 131.261719 39.636719 L 130.558594 39.636719 L 130.558594 40.648438 L 128.148438 40.648438 L 128.148438 33.476562 L 127.769531 33.476562 L 127.769531 28.835938 L 128.148438 28.835938 L 128.148438 27.929688 L 126.003906 27.929688 L 126.003906 27.027344 L 125.214844 27.027344 L 125.214844 27.441406 L 124.167969 27.441406 L 124.167969 28.042969 L 122.402344 28.042969 L 122.402344 29.328125 L 122.703125 29.328125 L 122.703125 36.398438 L 121.515625 36.398438 L 121.515625 37.363281 L 120.835938 37.363281 L 120.835938 35.433594 L 120.214844 35.433594 L 120.214844 36.839844 L 119.632812 36.839844 L 119.632812 23.113281 L 118.460938 23.113281 L 117.816406 22.605469 L 117.816406 21.792969 L 117.480469 21.792969 C 117.480469 21.792969 117.421875 21.199219 116.472656 21.199219 L 115.882812 19.90625 L 115.292969 21.199219 C 114.34375 21.199219 114.289062 21.792969 114.289062 21.792969 L 113.953125 21.792969 L 113.953125 22.605469 L 113.308594 23.113281 L 112.136719 23.113281 L 112.136719 35.546875 L 110.601562 35.546875 L 110.601562 33.671875 L 109.867188 33.671875 L 109.867188 34.800781 L 109.128906 34.800781 L 109.128906 32.707031 L 108.734375 32.707031 L 108.734375 34.125 L 108.019531 34.125 L 108.019531 37.816406 L 106.777344 37.816406 L 106.777344 30.71875 L 107.210938 30.449219 L 107.210938 29.976562 L 106.421875 29.976562 L 106.421875 19.386719 L 106.949219 19.386719 L 106.949219 18.203125 L 106.675781 18.203125 L 106.425781 18.550781 L 105.988281 18.550781 L 105.988281 14.476562 L 105.664062 14.476562 L 105.339844 14.765625 L 105.339844 12.746094 L 105.847656 12.425781 L 105.847656 11.890625 L 105.59375 11.210938 L 105.132812 11.210938 L 105.132812 11.71875 L 104.789062 11.71875 L 103.800781 9.722656 L 103.800781 9.105469 L 103.476562 9.105469 L 103.476562 8.28125 L 103.109375 8.019531 L 102.925781 7.382812 L 102.648438 7.382812 L 102.464844 8.019531 L 102.097656 8.28125 L 102.097656 9.105469 L 101.773438 9.105469 L 101.773438 9.722656 L 100.785156 11.71875 L 100.441406 11.71875 L 100.441406 11.210938 L 99.980469 11.210938 L 99.726562 11.890625 L 99.726562 12.425781 L 100.234375 12.746094 L 100.234375 14.765625 L 99.910156 14.476562 L 99.585938 14.476562 L 99.585938 18.550781 L 99.148438 18.550781 L 98.898438 18.203125 L 98.617188 18.203125 L 98.617188 19.386719 L 99.148438 19.386719 L 99.148438 29.976562 L 98.363281 29.976562 L 98.363281 30.449219 L 98.796875 30.71875 L 98.796875 36.339844 L 97.941406 36.339844 L 97.941406 37.25 L 97.035156 37.25 L 97.035156 35.203125 L 96.695312 35.203125 L 96.695312 36.394531 L 96.015625 36.394531 L 96.015625 39.238281 L 94.964844 39.238281 L 93.5 8.90625 C 93.5 8.90625 92.640625 7.523438 90.980469 7.523438 L 90.980469 7.003906 L 91.304688 7.003906 C 91.304688 7.003906 91.375 6.484375 90.980469 6.300781 L 90.980469 5.691406 C 90.980469 5.691406 91.234375 5.5 90.980469 5.335938 L 90.980469 4.765625 C 90.980469 4.765625 91.148438 4.550781 90.980469 4.496094 L 90.980469 2.464844 L 90.886719 3.480469 L 90.796875 2.464844 L 90.796875 4.5 C 90.628906 4.554688 90.796875 4.769531 90.796875 4.769531 L 90.796875 5.339844 C 90.539062 5.503906 90.796875 5.695312 90.796875 5.695312 L 90.796875 6.304688 C 90.402344 6.488281 90.472656 7.007812 90.472656 7.007812 L 90.796875 7.007812 L 90.796875 7.527344 C 89.136719 7.527344 88.277344 8.90625 88.277344 8.90625 L 86.789062 39.695312 L 85.675781 39.695312 L 85.675781 37.992188 L 85.109375 37.992188 L 85.109375 38.785156 L 84.65625 38.785156 L 84.65625 36.839844 L 84.09375 36.839844 L 84.09375 38.046875 L 82.847656 38.046875 L 82.847656 39.070312 L 81.804688 39.070312 L 81.804688 25.050781 C 81.804688 25.050781 81.785156 24.042969 80.617188 24.042969 L 80.617188 20.863281 L 80.199219 20.863281 C 80.199219 20.863281 80.164062 20.132812 79.695312 20.132812 L 79.695312 19.316406 L 79.542969 19.113281 L 79.542969 17.722656 L 78.976562 17.253906 L 78.976562 16.1875 L 78.523438 15.867188 L 78.523438 15.066406 L 78.171875 14.816406 L 78.171875 13.679688 L 77.820312 13.316406 L 77.820312 12 L 77.46875 11.707031 L 77.46875 10.523438 L 77.101562 9.96875 L 77.101562 7.382812 L 76.730469 7.382812 L 76.730469 9.96875 L 76.363281 10.523438 L 76.363281 11.707031 L 76.011719 12 L 76.011719 13.3125 L 75.660156 13.675781 L 75.660156 14.816406 L 75.304688 15.0625 L 75.304688 15.867188 L 74.851562 16.1875 L 74.851562 17.253906 L 74.285156 17.722656 L 74.285156 19.109375 L 74.132812 19.3125 L 74.132812 20.128906 C 73.664062 20.128906 73.628906 20.859375 73.628906 20.859375 L 73.210938 20.859375 L 73.210938 24.042969 C 72.039062 24.042969 72.023438 25.050781 72.023438 25.050781 L 72.023438 39.066406 L 69.898438 39.066406 L 69.898438 39.804688 L 68.9375 39.804688 L 68.9375 38.214844 L 67.355469 38.214844 L 67.355469 39.066406 L 66.675781 39.066406 L 66.675781 37.480469 L 66.113281 37.480469 L 66.113281 38.683594 L 64.960938 38.683594 L 64.960938 22.34375 L 64.25 22.34375 L 64.25 18.277344 L 63.824219 18.277344 L 63.824219 15.566406 L 63.144531 15.566406 L 61.957031 13.308594 L 61.957031 8.921875 L 61.503906 8.921875 L 61.503906 8.246094 L 61.035156 8.246094 L 60.824219 0.976562 L 60.316406 0.976562 L 60.105469 8.246094 L 59.636719 8.246094 L 59.636719 8.921875 L 59.179688 8.921875 L 59.179688 13.308594 L 57.992188 15.566406 L 57.316406 15.566406 L 57.316406 18.277344 L 56.890625 18.277344 L 56.890625 22.34375 L 56.175781 22.34375 L 56.175781 36.195312 L 54.871094 36.195312 L 54.871094 35.558594 L 54.140625 35.558594 L 54.140625 36.238281 L 53.683594 36.238281 L 53.683594 35.089844 L 53.34375 35.089844 L 53.34375 36.070312 L 52.753906 36.070312 L 52.753906 37.902344 L 52.046875 37.902344 L 52.046875 20.660156 L 51.386719 20.273438 L 50.863281 20.273438 L 50.863281 19.550781 L 50.421875 19.371094 L 50.421875 18.792969 L 49.234375 18.449219 L 48.734375 18.449219 L 48.734375 17.058594 L 48.269531 17.058594 L 47.992188 17.402344 L 47.992188 18.199219 L 47.546875 18.199219 L 47.546875 17.402344 L 47.273438 17.058594 L 46.804688 17.058594 L 46.804688 18.449219 L 46.304688 18.449219 L 45.117188 18.792969 L 45.117188 19.371094 L 44.675781 19.550781 L 44.675781 20.273438 L 44.152344 20.273438 L 43.496094 20.660156 L 43.496094 37.902344 L 42.148438 37.902344 L 42.148438 36.652344 L 41.925781 36.652344 L 41.925781 38.242188 L 40.902344 38.242188 L 40.902344 37.25 L 40.566406 37.25 L 40.566406 38.898438 L 39.632812 38.898438 L 39.632812 32.441406 L 38.558594 32.441406 L 38.558594 30.339844 L 37.542969 30.339844 L 37.542969 29.511719 C 37.542969 29.511719 36.976562 27.667969 33.808594 27.667969 C 30.640625 27.667969 30.070312 29.511719 30.070312 29.511719 L 30.070312 30.339844 L 29.054688 30.339844 L 29.054688 32.441406 L 27.980469 32.441406 L 27.980469 43.792969 L 26.972656 43.792969 C 26.972656 42.15625 23.652344 41.410156 22.917969 41.265625 C 22.902344 41.132812 22.890625 40.984375 22.84375 40.765625 C 22.761719 40.386719 22.71875 40.261719 22.71875 40.039062 C 22.71875 39.816406 22.675781 39.800781 22.84375 39.578125 C 23.011719 39.355469 23.023438 39.199219 23.039062 39.058594 C 23.050781 38.921875 23.09375 38.433594 23.023438 38.238281 C 22.953125 38.042969 22.898438 37.957031 22.96875 37.765625 C 23.039062 37.566406 23.078125 37.566406 23.121094 37.359375 C 23.164062 37.148438 23.21875 37.179688 23.246094 36.914062 C 23.273438 36.648438 23.300781 36.453125 23.316406 36.214844 C 23.328125 35.976562 23.328125 35.324219 23.328125 35.324219 C 23.328125 35.324219 22.996094 33.355469 22.980469 33.203125 C 22.96875 33.046875 22.980469 32.714844 22.96875 32.460938 C 22.953125 32.210938 22.816406 31.777344 22.953125 31.875 C 23.09375 31.972656 23.425781 32.140625 23.605469 31.988281 C 23.785156 31.835938 24.105469 31.792969 24.230469 31.542969 C 24.355469 31.289062 24.4375 31.277344 24.507812 31.011719 C 24.578125 30.746094 24.660156 30.675781 24.6875 30.507812 C 24.714844 30.34375 24.726562 29.816406 24.796875 29.757812 C 24.867188 29.699219 24.992188 29.714844 25.074219 29.460938 C 25.15625 29.210938 25.253906 29.210938 25.253906 28.917969 C 25.253906 28.625 25.253906 28.597656 25.15625 28.390625 C 25.058594 28.179688 24.867188 28.277344 25.058594 28.011719 C 25.253906 27.746094 25.433594 27.3125 25.433594 27.3125 L 24.390625 26.605469 C 24.390625 26.605469 24.195312 26.714844 24.183594 26.757812 C 24.167969 26.796875 24.195312 26.882812 24.042969 26.9375 C 23.890625 26.992188 23.738281 27.078125 23.652344 27.117188 C 23.570312 27.160156 23.640625 27.242188 23.402344 27.117188 C 23.167969 26.992188 22.613281 26.003906 22.558594 25.832031 C 22.5 25.667969 22.347656 25.320312 22.238281 25.164062 C 22.128906 25.011719 21.710938 24.691406 21.585938 24.59375 C 21.460938 24.492188 21.210938 24.257812 21.144531 24.132812 C 21.070312 24.007812 21.171875 23.308594 21.144531 23.167969 C 21.113281 23.03125 21.003906 22.933594 21.058594 22.722656 C 21.105469 22.546875 21.144531 22.273438 21.152344 22.035156 L 22.804688 21.636719 L 21.105469 21.578125 C 21.082031 21.511719 21.050781 21.441406 21.007812 21.367188 L 22.351562 20.445312 L 20.671875 21.015625 C 20.628906 20.984375 20.582031 20.957031 20.535156 20.929688 L 20.921875 19.195312 L 20.085938 20.75 C 19.988281 20.726562 19.886719 20.703125 19.769531 20.6875 L 19.230469 18.941406 L 19.277344 20.695312 C 19.210938 20.707031 19.140625 20.726562 19.070312 20.753906 L 17.59375 19.652344 L 18.675781 21.054688 C 18.667969 21.066406 18.65625 21.082031 18.648438 21.09375 L 17.242188 20.992188 C 17.179688 20.746094 16.84375 19.433594 16.78125 19.328125 C 16.707031 19.214844 16.652344 18.894531 16.585938 18.726562 C 16.515625 18.558594 16.542969 17.765625 16.515625 17.640625 C 16.484375 17.511719 16.484375 17.304688 16.417969 17.191406 C 16.347656 17.082031 16.238281 16.914062 16.195312 16.886719 C 16.152344 16.859375 16.070312 16.675781 16.042969 16.539062 C 16.015625 16.398438 16.027344 16.074219 16.042969 16.035156 C 16.058594 15.992188 16.085938 15.6875 16.085938 15.6875 C 16.085938 15.6875 16.207031 15.753906 16.363281 15.5625 C 16.515625 15.367188 16.613281 15.183594 16.613281 15.101562 C 16.613281 15.015625 16.597656 14.835938 16.597656 14.835938 C 16.597656 14.835938 16.308594 14.613281 16.167969 14.582031 C 16.027344 14.554688 16.152344 14.347656 16.167969 14.304688 C 16.179688 14.261719 16.335938 14.261719 16.484375 13.914062 C 16.640625 13.5625 16.640625 13.523438 16.640625 13.410156 C 16.640625 13.300781 16.765625 13.269531 16.640625 13.300781 C 16.515625 13.328125 16.417969 13.328125 16.390625 13.425781 C 16.363281 13.523438 16.347656 13.605469 16.265625 13.605469 C 16.183594 13.605469 16.027344 13.4375 16.027344 13.4375 C 16.027344 13.4375 15.890625 13.3125 15.820312 13.382812 C 15.75 13.453125 15.652344 13.367188 15.515625 13.480469 C 15.375 13.59375 15.304688 13.578125 15.277344 13.691406 C 15.25 13.800781 15.152344 13.859375 15.152344 14.011719 C 15.152344 14.164062 15.140625 14.222656 15.234375 14.347656 C 15.335938 14.472656 15.320312 14.597656 15.320312 14.597656 C 15.320312 14.597656 15.179688 14.707031 15.152344 14.722656 C 15.125 14.738281 14.875 14.738281 14.792969 14.835938 C 14.710938 14.933594 14.597656 15.042969 14.582031 15.167969 C 14.570312 15.296875 14.5 15.433594 14.582031 15.546875 C 14.667969 15.65625 14.722656 15.824219 14.835938 15.90625 C 14.945312 15.992188 15.085938 15.894531 15.113281 16.132812 C 15.140625 16.367188 15.085938 16.730469 15.085938 16.914062 C 15.085938 17.09375 15.070312 17.316406 15.113281 17.511719 C 15.152344 17.710938 15.234375 17.890625 15.277344 18.03125 C 15.320312 18.171875 15.363281 18.335938 15.375 18.519531 C 15.390625 18.699219 15.390625 18.867188 15.417969 18.964844 C 15.445312 19.0625 15.707031 21.40625 16.25 22.382812 C 16.25 22.382812 15.679688 24.015625 15.777344 24.460938 C 15.777344 24.460938 15.75 24.964844 16.222656 24.949219 C 16.222656 24.949219 16.25 25.453125 16.652344 25.453125 C 16.652344 25.453125 16.707031 26.011719 16.78125 26.148438 C 16.847656 26.289062 16.847656 26.484375 16.808594 26.609375 C 16.765625 26.734375 16.597656 26.945312 16.734375 27.097656 C 16.875 27.25 16.972656 27.335938 17.027344 27.390625 C 17.082031 27.445312 17.097656 27.667969 17.027344 27.894531 C 16.957031 28.113281 16.863281 28.339844 16.863281 28.339844 C 16.863281 28.339844 16.613281 28.589844 16.558594 28.898438 C 16.5 29.203125 16.417969 29.425781 16.445312 29.664062 C 16.476562 29.902344 16.515625 30.140625 16.585938 30.292969 C 16.65625 30.445312 16.726562 30.628906 16.792969 30.710938 C 16.867188 30.792969 16.792969 31.03125 16.710938 31.367188 C 16.628906 31.699219 16.628906 31.769531 16.617188 31.980469 C 16.601562 32.1875 16.515625 32.398438 16.546875 32.664062 C 16.574219 32.925781 16.617188 32.957031 16.683594 33.109375 C 16.753906 33.261719 16.710938 33.304688 16.78125 33.667969 C 16.851562 34.03125 16.933594 34.070312 16.921875 34.210938 C 16.90625 34.351562 16.921875 34.8125 16.90625 35.050781 C 16.894531 35.285156 16.808594 35.34375 16.824219 35.761719 C 16.839844 36.175781 16.878906 36.304688 16.949219 36.515625 C 17.019531 36.722656 17.167969 37.519531 17.140625 37.851562 C 17.117188 38.1875 17.085938 38.242188 17.140625 38.675781 C 17.199219 39.105469 17.421875 39.707031 17.449219 39.84375 C 17.476562 39.988281 17.394531 40.125 17.367188 40.265625 C 17.339844 40.402344 17.3125 40.488281 17.421875 40.65625 C 17.53125 40.824219 17.546875 40.851562 17.449219 41.046875 C 17.394531 41.160156 17.371094 41.199219 17.351562 41.242188 C 17.351562 41.242188 13.152344 41.953125 13.152344 43.796875 L 11.679688 43.796875 L 4.894531 49.699219 L 144.941406 49.699219 Z M 17.546875 21.828125 C 17.4375 21.71875 17.390625 21.773438 17.355469 21.605469 C 17.324219 21.464844 17.292969 21.234375 17.265625 21.097656 L 18.503906 21.542969 C 18.5 21.550781 18.5 21.558594 18.5 21.5625 L 17.710938 22.058594 C 17.65625 21.976562 17.601562 21.882812 17.546875 21.828125 Z M 18.558594 22.960938 C 18.574219 22.988281 18.546875 23.34375 18.417969 23.242188 C 18.285156 23.136719 18.210938 23.082031 18.164062 23.035156 C 18.121094 22.988281 18.128906 22.980469 18.035156 22.746094 C 17.945312 22.515625 17.933594 22.355469 17.851562 22.273438 C 17.839844 22.257812 17.824219 22.238281 17.808594 22.21875 L 18.515625 22.058594 C 18.539062 22.222656 18.585938 22.507812 18.628906 22.625 C 18.695312 22.796875 18.542969 22.933594 18.558594 22.960938 Z M 18.558594 22.960938 " fill-opacity="1" fill-rule="nonzero"/></g><g clip-path="url(#id2)"><path fill="rgb(27.839661%, 20.779419%, 22.749329%)" d="M 0.863281 67.835938 L 148.964844 67.835938 L 148.964844 74.398438 L 0.863281 74.398438 Z M 0.863281 67.835938 " fill-opacity="1" fill-rule="nonzero"/></g></svg>