<svg xmlns="http://www.w3.org/2000/svg" xmlns:xlink="http://www.w3.org/1999/xlink" width="100" zoomAndPan="magnify" viewBox="0 0 75 74.999997" height="100" preserveAspectRatio="xMidYMid meet" version="1.0"><path fill="rgb(27.839661%, 20.779419%, 22.749329%)" d="M 48.644531 19.855469 C 48.9375 19.960938 49.320312 20.066406 49.511719 20.171875 C 50.121094 20.511719 50.691406 20.785156 51.242188 21.164062 C 56.433594 24.667969 59.261719 29.820312 59.644531 35.878906 C 59.894531 39.722656 59.050781 43.839844 57.027344 47.175781 C 55.484375 49.664062 53.289062 51.839844 50.355469 53.445312 C 50.039062 53.613281 49.636719 53.527344 49.46875 53.253906 C 49.277344 52.980469 49.382812 52.597656 49.679688 52.429688 C 52.421875 50.929688 54.46875 48.925781 55.882812 46.605469 C 57.765625 43.542969 58.546875 40.039062 58.480469 36.597656 C 58.460938 35.835938 58.398438 35.097656 58.269531 34.359375 C 58.25 34.148438 58.355469 33.957031 58.3125 33.746094 C 58.082031 32.269531 57.574219 30.8125 56.921875 29.441406 C 56.625 28.828125 56.285156 28.195312 55.925781 27.605469 C 55.675781 27.183594 55.105469 26.230469 54.808594 25.808594 C 53.078125 23.507812 50.753906 21.988281 48.03125 20.597656 C 47.019531 20.089844 47.757812 19.519531 48.644531 19.855469 " fill-opacity="1" fill-rule="nonzero"/><path fill="rgb(27.839661%, 20.779419%, 22.749329%)" d="M 34.203125 52.429688 C 34.078125 52.261719 33.867188 51.964844 33.867188 51.753906 C 33.886719 51.394531 34.375 51.355469 34.457031 51.628906 C 34.5625 51.925781 34.332031 52.199219 34.203125 52.429688 " fill-opacity="1" fill-rule="evenodd"/><path fill="rgb(27.839661%, 20.779419%, 22.749329%)" d="M 36.96875 52.304688 C 36.632812 52.304688 36.421875 52.03125 36.441406 51.777344 C 36.484375 51.015625 37.644531 51.796875 36.96875 52.304688 " fill-opacity="1" fill-rule="evenodd"/><path fill="rgb(27.839661%, 20.779419%, 22.749329%)" d="M 17.273438 52.367188 C 17.398438 52.453125 17.464844 52.558594 17.570312 52.726562 C 17.71875 53.019531 18.117188 53.273438 18.371094 53.65625 C 18.625 53.992188 18.984375 54.4375 18.984375 54.730469 C 18.984375 55.007812 18.605469 55.34375 18.265625 55.300781 C 18.054688 55.257812 17.820312 54.902344 17.675781 54.6875 C 17.292969 54.121094 17.019531 53.550781 16.554688 53.105469 C 16.050781 53.253906 15.753906 53.464844 15.332031 53.761719 C 15.246094 53.84375 14.84375 54.097656 14.84375 54.121094 C 14.84375 54.183594 15.183594 54.5 15.203125 54.519531 C 15.480469 54.835938 16.050781 55.511719 16.113281 55.914062 C 16.195312 56.273438 15.773438 56.609375 15.332031 56.460938 C 15.097656 56.355469 14.78125 55.871094 14.636719 55.683594 C 14.402344 55.40625 14.277344 55.132812 14.023438 54.835938 C 13.347656 55.257812 12.796875 55.851562 12.101562 56.292969 C 11.765625 56.527344 11.511719 56.738281 11.027344 56.78125 C 10.875 56.546875 10.625 56.378906 10.625 56.082031 C 10.644531 55.957031 10.730469 55.914062 10.855469 55.722656 C 10.898438 55.640625 10.855469 55.535156 10.898438 55.46875 C 10.941406 55.429688 11.066406 55.40625 11.128906 55.34375 C 11.320312 55.175781 11.339844 54.964844 11.636719 55.070312 C 11.867188 55.027344 11.933594 54.796875 12.101562 54.648438 C 12.566406 54.226562 13.367188 53.867188 13.960938 53.382812 C 14.296875 53.085938 14.488281 52.726562 14.992188 52.597656 C 15.058594 52.304688 15.246094 52.113281 15.605469 52.113281 C 15.648438 52.070312 15.667969 51.964844 15.730469 51.902344 C 15.878906 51.859375 15.902344 52.007812 15.964844 51.925781 C 15.964844 51.523438 16.511719 51.3125 16.722656 51.671875 C 17.144531 51.648438 17.378906 51.964844 17.273438 52.367188 " fill-opacity="1" fill-rule="evenodd"/><path fill="rgb(27.839661%, 20.779419%, 22.749329%)" d="M 35.894531 51.542969 C 35.957031 51.753906 35.957031 52.242188 35.679688 52.242188 C 35.300781 52.242188 35.386719 51.207031 35.894531 51.542969 " fill-opacity="1" fill-rule="evenodd"/><path fill="rgb(27.839661%, 20.779419%, 22.749329%)" d="M 59.789062 52.070312 C 59.683594 52.21875 59.429688 52.136719 59.429688 51.902344 C 59.515625 51.710938 59.894531 51.753906 59.789062 52.070312 " fill-opacity="1" fill-rule="evenodd"/><path fill="rgb(27.839661%, 20.779419%, 22.749329%)" d="M 58.3125 54.289062 C 58.714844 54.773438 59.285156 55.070312 59.769531 55.46875 C 60.128906 55.132812 60.359375 54.625 60.742188 54.308594 C 60.910156 54.035156 61.015625 53.613281 61.351562 53.589844 C 61.542969 53.570312 61.753906 53.71875 61.753906 53.886719 C 61.753906 54.011719 61.648438 54.035156 61.585938 54.183594 C 61.519531 54.289062 61.542969 54.394531 61.519531 54.457031 C 61.246094 54.964844 60.464844 55.492188 60.445312 55.957031 C 60.910156 56.441406 61.480469 56.820312 61.984375 57.246094 C 62.429688 56.527344 62.957031 55.914062 63.507812 55.300781 C 63.949219 55.257812 64.328125 55.113281 64.414062 55.574219 C 64.519531 56.144531 63.929688 56.316406 63.675781 56.632812 C 63.316406 57.097656 63.0625 57.792969 62.765625 58.152344 C 62.597656 58.34375 62.261719 58.574219 62.089844 58.574219 C 61.667969 58.636719 61.3125 58.234375 61.058594 58.003906 C 60.699219 57.707031 60.464844 57.433594 60.234375 57.246094 C 59.8125 56.90625 59.261719 56.632812 58.796875 56.292969 C 58.332031 55.957031 57.765625 55.617188 57.488281 55.257812 C 57.195312 54.902344 57.257812 54.5 57.488281 54.097656 C 57.679688 53.761719 58.226562 53.167969 58.480469 52.726562 C 58.585938 52.578125 58.714844 52.242188 58.945312 52.199219 C 59.367188 52.136719 59.453125 52.453125 59.328125 52.769531 C 59.242188 52.9375 59.050781 53.019531 58.945312 53.191406 C 58.691406 53.550781 58.546875 53.992188 58.3125 54.289062 " fill-opacity="1" fill-rule="evenodd"/><path fill="rgb(27.839661%, 20.779419%, 22.749329%)" d="M 36.800781 53.148438 C 36.273438 53.339844 35.808594 53.507812 35.089844 53.421875 C 34.878906 53.589844 34.878906 53.929688 34.605469 53.949219 C 34.097656 53.992188 33.929688 53.019531 34.480469 53.042969 C 34.625 53.042969 34.667969 53.085938 34.796875 53.210938 C 34.941406 53.191406 34.984375 52.9375 35.175781 52.875 C 35.34375 52.851562 35.472656 52.9375 35.621094 52.9375 C 35.703125 52.9375 35.789062 52.875 35.851562 52.851562 C 36.25 52.789062 36.675781 52.917969 36.800781 53.148438 " fill-opacity="1" fill-rule="evenodd"/><path fill="rgb(27.839661%, 20.779419%, 22.749329%)" d="M 33.824219 53.761719 C 34.308594 53.589844 34.269531 54.4375 33.929688 54.457031 C 33.613281 54.5 33.488281 53.886719 33.824219 53.761719 " fill-opacity="1" fill-rule="evenodd"/><path fill="rgb(27.839661%, 20.779419%, 22.749329%)" d="M 22.996094 62.734375 C 22.972656 63.15625 22.699219 63.894531 22.636719 64.589844 C 22.53125 65.289062 22.78125 66.195312 22.105469 66.238281 C 21.917969 66.257812 21.855469 66.089844 21.769531 66.089844 C 21.621094 66.089844 21.644531 66.28125 21.433594 66.214844 C 20.839844 65.8125 21.410156 65.222656 21.558594 64.507812 C 21.683594 63.789062 21.726562 63.238281 21.832031 62.480469 C 21.558594 62.394531 21.433594 62.289062 21.222656 62.097656 C 21.15625 62.058594 20.945312 61.84375 20.945312 61.84375 C 20.796875 61.84375 20.546875 62.519531 20.460938 62.648438 C 20.269531 62.945312 20.058594 63.113281 19.871094 63.304688 C 19.765625 63.746094 19.46875 64.0625 19.152344 64.335938 C 19.027344 64.464844 18.960938 64.570312 18.835938 64.589844 C 18.117188 64.71875 18.074219 63.683594 18.707031 63.597656 C 18.707031 63.449219 18.625 63.429688 18.644531 63.261719 C 19.300781 62.015625 20.207031 61 21.011719 59.863281 C 21.199219 59.585938 21.453125 59.292969 21.621094 59.019531 C 21.8125 58.679688 21.855469 58.320312 22.320312 58.214844 C 22.46875 58.214844 22.550781 58.257812 22.636719 58.300781 C 22.699219 58.300781 22.65625 58.128906 22.742188 58.128906 C 22.78125 58.128906 22.804688 58.128906 22.804688 58.109375 C 23.164062 58.40625 24.449219 59.144531 24.746094 59.628906 C 24.957031 59.925781 25.125 60.304688 25.0625 60.832031 C 25.019531 61.339844 24.597656 61.992188 24.261719 62.289062 C 23.945312 62.542969 23.4375 62.710938 22.996094 62.734375 Z M 21.832031 61.359375 C 22.320312 61.507812 22.71875 61.84375 23.375 61.71875 C 23.566406 61.570312 23.734375 61.421875 23.945312 61.277344 C 23.878906 61 24.050781 60.960938 24.113281 60.8125 C 24.050781 59.925781 23.375 59.652344 22.828125 59.226562 C 22.804688 59.226562 22.804688 59.226562 22.761719 59.226562 C 22.339844 59.777344 21.917969 60.324219 21.558594 60.9375 C 21.683594 61.023438 21.792969 61.171875 21.832031 61.359375 " fill-opacity="1" fill-rule="evenodd"/><path fill="rgb(27.839661%, 20.779419%, 22.749329%)" d="M 51.21875 60.832031 C 51.15625 61.65625 51.621094 62.289062 51.980469 62.902344 C 52.234375 63.386719 52.613281 63.789062 52.886719 64.210938 C 53.203125 64.273438 53.371094 64.589844 53.730469 64.589844 C 54.113281 64.589844 54.429688 64.316406 54.703125 64.148438 C 54.933594 63.851562 54.914062 62.3125 55.589844 62.480469 C 55.78125 62.542969 55.96875 63.15625 55.949219 63.410156 C 55.949219 63.621094 55.695312 64.148438 55.589844 64.316406 C 55.441406 64.570312 55.039062 65.035156 54.765625 65.183594 C 54.597656 65.246094 54.363281 65.289062 54.152344 65.351562 C 53.753906 65.5 53.289062 65.6875 52.804688 65.457031 C 52.570312 65.328125 52.382812 64.992188 52.105469 64.71875 C 51.980469 64.570312 51.789062 64.507812 51.683594 64.421875 C 51.367188 64.082031 51.136719 63.429688 50.839844 62.816406 C 50.671875 62.480469 50.460938 62.226562 50.375 61.910156 C 50.332031 61.78125 50.355469 61.65625 50.3125 61.550781 C 50.269531 61.359375 50.144531 61.214844 50.144531 61.085938 C 50.121094 60.9375 50.183594 60.75 50.226562 60.472656 C 50.289062 60.050781 50.269531 59.820312 50.460938 59.566406 C 50.796875 59.164062 51.453125 58.804688 51.9375 58.742188 C 52.550781 58.65625 53.5 58.804688 53.5625 59.355469 C 53.5625 59.628906 53.289062 59.96875 53.078125 59.988281 C 52.738281 60.03125 52.570312 59.734375 52.210938 59.796875 C 51.707031 59.902344 51.578125 60.515625 51.21875 60.832031 " fill-opacity="1" fill-rule="evenodd"/><path fill="rgb(27.839661%, 20.779419%, 22.749329%)" d="M 48.664062 59.121094 C 48.835938 59.355469 49.023438 59.820312 48.898438 60.136719 C 48.644531 60.113281 48.644531 59.863281 48.539062 59.652344 C 48.433594 59.863281 48.371094 60.074219 48.117188 60.136719 C 47.820312 60.15625 47.484375 59.988281 47.144531 60.050781 C 46.851562 60.136719 46.703125 60.429688 46.449219 60.242188 C 46.597656 59.945312 46.851562 59.714844 47.039062 59.480469 C 47.695312 59.460938 48.222656 59.3125 48.664062 59.121094 " fill-opacity="1" fill-rule="evenodd"/><path fill="rgb(27.839661%, 20.779419%, 22.749329%)" d="M 27.40625 59.417969 C 27.535156 59.398438 27.425781 59.480469 27.449219 59.523438 C 27.511719 59.820312 27.785156 59.902344 27.890625 60.136719 C 27.679688 60.199219 27.34375 60.136719 27.195312 60.050781 C 27.175781 59.925781 27.113281 59.839844 27.132812 59.691406 C 27.21875 59.585938 27.363281 59.542969 27.40625 59.417969 " fill-opacity="1" fill-rule="evenodd"/><path fill="rgb(27.839661%, 20.779419%, 22.749329%)" d="M 46.703125 59.523438 C 46.574219 59.734375 46.40625 59.925781 46.214844 60.136719 C 45.964844 60.03125 45.710938 59.925781 45.644531 59.609375 C 46.046875 59.628906 46.34375 59.523438 46.703125 59.523438 " fill-opacity="1" fill-rule="evenodd"/><path fill="rgb(27.839661%, 20.779419%, 22.749329%)" d="M 28.695312 60.050781 C 28.84375 60.050781 28.757812 60.285156 28.863281 60.324219 C 29.242188 60.285156 29.519531 60.429688 30.003906 60.390625 C 30.320312 60.367188 31.058594 60.242188 31.101562 60.664062 C 31.121094 60.917969 30.765625 61.066406 30.445312 61.066406 C 30.023438 61.042969 29.390625 60.664062 28.800781 60.644531 C 28.566406 60.621094 27.765625 60.894531 27.828125 60.453125 C 27.890625 60.113281 28.503906 60.324219 28.695312 60.324219 C 28.757812 60.261719 28.589844 60.136719 28.695312 60.050781 " fill-opacity="1" fill-rule="evenodd"/><path fill="rgb(27.839661%, 20.779419%, 22.749329%)" d="M 41.003906 65.054688 C 40.9375 65.183594 41.234375 65.394531 41.277344 65.5625 C 41.382812 65.878906 41.402344 66.28125 41.464844 66.679688 C 41.613281 67.355469 41.699219 68.179688 41.847656 68.855469 C 41.953125 69.363281 42.289062 70.289062 41.71875 70.417969 C 41.488281 70.480469 41.277344 70.332031 41.085938 70.289062 C 40.855469 69.742188 40.75 69.066406 40.621094 68.371094 C 40.496094 67.671875 40.433594 66.953125 40.367188 66.257812 C 40.347656 66.066406 40.242188 65.898438 40.242188 65.6875 C 40.261719 65.457031 40.496094 65.183594 40.433594 64.949219 C 40.410156 64.824219 40.21875 64.78125 40.15625 64.632812 C 40.011719 64.253906 40.179688 63.851562 40.09375 63.472656 C 40.410156 62.734375 41.042969 63.410156 41.382812 63.765625 C 41.886719 64.359375 42.246094 64.78125 42.753906 65.394531 C 43.304688 66.046875 43.808594 66.765625 44.421875 67.3125 C 44.148438 66.109375 43.851562 65.117188 43.535156 63.957031 C 43.472656 63.621094 43.28125 63.132812 43.34375 62.753906 C 43.410156 62.246094 44.0625 61.972656 44.421875 62.480469 C 44.550781 62.648438 44.613281 63.027344 44.695312 63.304688 C 44.800781 63.640625 44.78125 63.957031 44.824219 64.292969 C 44.929688 65.183594 45.203125 66.597656 45.457031 67.460938 C 45.582031 67.820312 45.582031 68.117188 45.644531 68.515625 C 45.667969 68.707031 45.773438 68.832031 45.773438 68.980469 C 45.773438 69.339844 45.394531 69.488281 45.203125 69.46875 C 45.035156 69.46875 44.949219 69.363281 44.78125 69.191406 C 44.230469 68.621094 43.726562 67.925781 43.15625 67.3125 C 42.796875 66.914062 42.417969 66.554688 42.078125 66.152344 C 41.761719 65.75 41.445312 65.328125 41.003906 65.054688 " fill-opacity="1" fill-rule="evenodd"/><path fill="rgb(27.839661%, 20.779419%, 22.749329%)" d="M 33.316406 66.636719 C 33.339844 66.765625 33.488281 66.742188 33.550781 66.828125 C 33.886719 67.335938 33.613281 68.390625 33.699219 69.109375 C 33.71875 69.445312 33.867188 69.953125 33.359375 69.972656 C 32.621094 69.996094 32.875 68.601562 32.9375 67.988281 C 32.199219 67.695312 31.269531 67.652344 30.488281 67.398438 C 30.152344 67.945312 29.941406 68.601562 29.476562 69.023438 C 29.347656 69.023438 29.347656 68.875 29.265625 68.832031 C 28.988281 68.855469 28.84375 68.769531 28.800781 68.515625 C 29.011719 68.390625 29.160156 68.371094 29.242188 68.136719 C 29.519531 68.117188 29.730469 68.011719 29.792969 67.757812 C 29.6875 67.714844 29.519531 67.777344 29.390625 67.714844 C 29.265625 67.355469 29.453125 67.039062 29.707031 66.933594 C 29.664062 66.46875 30.046875 66.257812 30.277344 65.964844 C 30.59375 65.5625 30.890625 64.886719 31.164062 64.378906 C 31.289062 64.105469 31.460938 63.894531 31.648438 63.621094 C 31.902344 63.21875 32.199219 62.480469 32.789062 62.945312 C 33.527344 62.796875 33.445312 63.367188 33.488281 64.105469 C 33.527344 64.929688 33.421875 65.941406 33.316406 66.636719 Z M 32.621094 64.210938 C 32.007812 64.71875 31.503906 65.605469 31.226562 66.554688 C 31.796875 66.574219 32.21875 66.742188 32.851562 66.742188 C 32.851562 65.921875 32.746094 65.074219 32.746094 64.210938 C 32.707031 64.210938 32.664062 64.210938 32.621094 64.210938 Z M 30.023438 67.335938 C 30.046875 67.273438 30.152344 67.273438 30.109375 67.1875 C 30.085938 67.1875 30.066406 67.1875 30.023438 67.1875 C 30.046875 67.25 29.941406 67.3125 30.023438 67.335938 " fill-opacity="1" fill-rule="evenodd"/><path fill="rgb(27.839661%, 20.779419%, 22.749329%)" d="M 29.265625 67.757812 C 29.328125 67.882812 29.117188 68.222656 28.925781 68.328125 C 28.738281 68.050781 29.136719 67.90625 29.265625 67.757812 " fill-opacity="1" fill-rule="evenodd"/><path fill="rgb(27.839661%, 20.779419%, 22.749329%)" d="M 32.050781 53.886719 C 31.988281 53.804688 31.882812 53.761719 31.882812 53.613281 C 31.628906 53.824219 31.945312 53.949219 31.964844 54.226562 C 32.410156 54.332031 32.980469 54.160156 33.234375 54.414062 C 33.191406 54.730469 32.980469 54.921875 32.8125 55.132812 C 33.148438 55.746094 32.261719 55.765625 32.113281 56.1875 C 32.410156 56.316406 32.304688 56.714844 32.347656 57.054688 C 32.007812 57.160156 31.332031 56.925781 31.164062 57.222656 C 31.480469 57.285156 31.945312 57.246094 32.261719 57.222656 C 32.007812 57.558594 31.964844 58.089844 31.566406 58.277344 C 31.566406 58.066406 31.671875 57.960938 31.714844 57.792969 C 31.542969 57.792969 31.460938 57.941406 31.25 57.960938 C 30.996094 58.023438 30.59375 57.960938 30.339844 58.046875 C 30.085938 58.128906 30.085938 58.449219 29.855469 58.46875 C 29.875 58.277344 30.023438 58.171875 30.109375 58.023438 C 30.003906 57.960938 29.8125 58.003906 29.730469 57.941406 C 29.476562 58.046875 29.347656 58.257812 29.203125 58.46875 C 29.304688 58.46875 29.347656 58.40625 29.476562 58.425781 C 29.664062 58.742188 30.339844 58.617188 30.742188 58.574219 C 30.953125 58.65625 30.890625 58.996094 31.144531 59.058594 C 31.183594 59.375 30.953125 59.902344 30.550781 59.96875 C 30.488281 59.988281 30.425781 59.902344 30.277344 59.925781 C 30.152344 59.925781 30.023438 60.03125 29.941406 60.03125 C 29.664062 60.007812 29.453125 59.714844 29.582031 59.355469 C 29.8125 59.292969 30.109375 59.292969 30.363281 59.25 C 30.511719 59.3125 30.214844 59.375 30.191406 59.460938 C 30.488281 59.542969 30.550781 59.207031 30.785156 59.144531 C 30.320312 58.933594 29.347656 59.019531 28.863281 59.164062 C 28.863281 59.417969 29.203125 59.3125 29.414062 59.355469 C 29.453125 59.398438 29.371094 59.542969 29.304688 59.691406 C 29.136719 59.988281 28.757812 60.15625 28.589844 59.652344 C 28.652344 59.441406 28.777344 59.292969 28.84375 59.058594 C 28.671875 59.082031 28.484375 59.460938 28.460938 59.652344 C 28.378906 59.082031 28.738281 58.617188 28.820312 58.109375 C 28.882812 57.601562 28.96875 57.203125 29.160156 56.757812 C 29.304688 56.378906 29.539062 56.039062 29.75 55.683594 C 29.984375 55.300781 30.128906 54.902344 30.300781 54.519531 C 30.574219 53.929688 30.785156 53.382812 31.144531 52.832031 C 31.332031 52.410156 31.375 51.839844 31.734375 51.566406 C 31.605469 51.1875 31.332031 50.445312 31.691406 50.128906 C 31.542969 49.199219 32.136719 48.777344 32.917969 48.695312 C 33.527344 46.773438 34.332031 45.082031 34.773438 43.015625 C 34.269531 42.464844 34.394531 40.945312 35.28125 40.863281 C 35.34375 39.828125 35.640625 38.898438 35.871094 37.992188 C 35.894531 37.90625 35.976562 37.800781 35.976562 37.695312 C 36.019531 37.484375 35.894531 37.167969 35.933594 36.828125 C 35.957031 36.449219 36.082031 36.046875 36.125 35.648438 C 36.230469 34.421875 36.464844 33.179688 36.589844 31.972656 C 36.632812 31.550781 36.652344 30.980469 36.632812 30.476562 C 36.546875 28.996094 36.90625 27.476562 36.992188 25.914062 C 36.992188 25.746094 36.992188 25.554688 36.992188 25.386719 C 37.03125 24.269531 37.371094 23.128906 37.097656 22.261719 C 37.011719 21.945312 36.652344 21.546875 36.632812 21.082031 C 36.546875 20.511719 36.589844 19.390625 36.992188 19.136719 C 37.160156 19.035156 37.496094 19.097656 37.707031 18.949219 C 37.792969 18.378906 37.8125 17.851562 37.855469 17.089844 C 37.878906 16.835938 37.898438 16.308594 38.238281 16.394531 C 38.742188 16.480469 38.53125 18.125 38.617188 18.738281 C 39.082031 18.886719 39.714844 19.011719 39.542969 19.710938 C 39.96875 20.257812 39.734375 21.652344 39.652344 22.433594 C 39.628906 22.898438 39.523438 23.359375 39.480469 23.847656 C 39.417969 24.753906 39.628906 25.769531 39.652344 26.78125 C 39.671875 27.035156 39.652344 27.308594 39.652344 27.582031 C 39.691406 28.238281 39.839844 28.914062 39.796875 29.589844 C 39.777344 30.160156 39.796875 30.625 39.839844 31.234375 C 39.863281 31.867188 40.09375 32.480469 40.15625 33.074219 C 40.367188 35.5625 40.539062 37.925781 40.980469 40.058594 C 41.042969 40.101562 41.191406 40.058594 41.277344 40.121094 C 41.382812 40.566406 41.996094 40.441406 42.078125 40.882812 C 42.121094 41.21875 42.058594 41.664062 42.078125 42.066406 C 42.078125 42.550781 42.164062 42.804688 42.164062 43.183594 C 42.140625 44.261719 42.542969 45.253906 42.816406 46.203125 C 43.113281 47.195312 43.429688 48.125 43.640625 49.011719 C 43.832031 48.925781 44.253906 49.074219 44.105469 49.390625 C 44.316406 49.644531 44.632812 49.664062 44.757812 49.917969 C 44.949219 50.214844 44.71875 50.550781 44.757812 50.929688 C 44.78125 51.101562 44.929688 51.207031 45.054688 51.394531 C 45.351562 51.839844 45.519531 52.492188 45.710938 52.980469 C 46.554688 55.089844 47.546875 57.222656 48.476562 59.164062 C 48.050781 59.1875 47.589844 59.121094 47.207031 59.226562 C 47.082031 59.1875 47.25 59.082031 47.273438 58.996094 C 47.125 59.019531 47.082031 59.1875 46.890625 59.25 C 46.53125 59.398438 45.964844 59.269531 45.519531 59.355469 C 45.5625 58.976562 45.539062 58.53125 45.941406 58.449219 C 46.238281 58.40625 46.449219 58.550781 46.617188 58.765625 C 46.703125 58.722656 46.808594 58.765625 46.914062 58.765625 C 47.082031 58.636719 47.207031 58.46875 47.527344 58.511719 C 47.375 58.234375 47.207031 58.023438 47.0625 57.773438 C 46.933594 57.898438 46.976562 58.046875 46.890625 58.171875 C 46.636719 58.488281 46.027344 58.300781 45.5 58.34375 C 45.5 58.152344 45.605469 58.003906 45.519531 57.707031 C 45.394531 57.835938 45.351562 58.046875 45.265625 58.195312 C 45.054688 58.066406 44.863281 57.941406 44.824219 57.644531 C 45.078125 57.625 45.394531 57.625 45.5625 57.539062 C 45.097656 57.433594 44.0625 57.476562 44.484375 56.757812 C 44.335938 56.652344 44.148438 56.652344 44.082031 56.441406 C 44.019531 56.316406 44.167969 56.019531 43.9375 56.019531 C 44.273438 57.476562 44.992188 58.804688 45.203125 60.496094 C 45.5625 60.664062 46.070312 60.726562 46.46875 60.664062 C 46.808594 60.601562 47.167969 60.347656 47.527344 60.515625 C 47.292969 60.8125 46.746094 60.832031 46.34375 60.917969 C 46.109375 60.980469 45.75 60.980469 45.457031 61.042969 C 45.183594 61.105469 45.011719 61.253906 44.800781 61.171875 C 44.402344 61.042969 44.316406 60.707031 44.253906 60.09375 C 44.167969 58.996094 43.683594 57.941406 43.132812 56.992188 C 42.921875 56.609375 42.5625 56.1875 42.269531 55.722656 C 41.996094 55.300781 41.570312 54.878906 41.148438 54.753906 C 40.960938 54.6875 40.726562 54.6875 40.496094 54.605469 C 40.21875 54.519531 39.988281 54.394531 39.652344 54.375 C 39.335938 54.351562 38.976562 54.414062 38.660156 54.4375 C 37.8125 54.5 36.90625 54.582031 36.0625 54.835938 C 35.933594 54.859375 35.957031 54.773438 35.871094 54.753906 C 35.703125 55.007812 35.300781 55.027344 35.070312 55.195312 C 35.007812 55.535156 34.796875 55.597656 34.582031 55.808594 C 34.035156 56.378906 33.507812 57.519531 33.066406 58.34375 C 32.894531 58.636719 32.707031 58.953125 32.597656 59.226562 C 32.453125 59.628906 32.410156 60.894531 31.777344 60.429688 C 31.398438 60.15625 31.757812 59.226562 31.882812 58.828125 C 32.136719 58.023438 32.453125 57.453125 32.875 56.84375 C 33.316406 56.25 33.65625 55.574219 34.375 55.238281 C 34.5 55.195312 34.625 55.175781 34.730469 55.132812 C 35.28125 54.835938 36.019531 54.160156 36.738281 54.035156 C 37.179688 53.949219 37.433594 54.121094 37.984375 53.929688 C 37.730469 53.804688 36.78125 53.929688 36.84375 53.613281 C 36.90625 53.421875 37.328125 53.507812 37.5625 53.488281 C 37.941406 53.488281 38.363281 53.421875 38.722656 53.421875 C 38.699219 53.527344 38.636719 53.589844 38.660156 53.71875 C 38.828125 53.71875 38.847656 53.527344 38.847656 53.421875 C 39.25 53.445312 39.589844 53.382812 39.96875 53.402344 C 39.96875 53.488281 39.90625 53.589844 39.945312 53.65625 C 40.011719 53.65625 40.074219 53.65625 40.09375 53.699219 C 40.242188 53.675781 40.15625 53.445312 40.199219 53.402344 C 40.875 53.191406 41.886719 53.613281 42.289062 53.210938 C 41.953125 53.105469 41.65625 52.917969 41.320312 52.8125 C 41.214844 53.273438 40.644531 52.9375 40.582031 52.664062 C 40.433594 52.769531 40.433594 52.957031 40.242188 52.980469 C 39.777344 53.019531 39.589844 52.15625 40.199219 52.136719 C 40.199219 51.964844 40.136719 51.839844 40.15625 51.628906 C 39.988281 51.605469 39.777344 51.628906 39.566406 51.585938 C 39.523438 51.925781 39.335938 52.242188 39.417969 52.578125 C 39.207031 53.210938 37.835938 52.769531 38.59375 52.199219 C 38.765625 52.175781 38.847656 52.242188 38.996094 52.242188 C 39.082031 51.777344 38.828125 51.4375 39.058594 51.078125 C 39.019531 51.015625 38.847656 51.058594 38.785156 51.058594 C 38.679688 51.417969 38.679688 51.902344 38.511719 52.175781 C 38.449219 52.199219 38.382812 52.242188 38.257812 52.242188 C 38.34375 52.410156 37.984375 52.980469 37.835938 53 C 37.371094 53.042969 37.308594 51.585938 38.109375 52.050781 C 38.132812 51.902344 38.066406 51.820312 38.066406 51.648438 C 38.003906 51.585938 37.792969 51.648438 37.707031 51.585938 C 37.730469 52.070312 37.011719 52.324219 37.074219 51.628906 C 36.90625 51.5 36.714844 51.585938 36.441406 51.566406 C 36.273438 51.945312 35.957031 51.523438 35.679688 51.648438 C 35.511719 51.734375 35.535156 52.03125 35.386719 52.261719 C 35.324219 52.347656 35.152344 52.453125 35.132812 52.515625 C 35.070312 52.640625 35.113281 52.851562 34.984375 52.917969 C 34.542969 52.683594 34.902344 52.050781 34.753906 51.648438 C 34.605469 51.566406 34.605469 51.753906 34.480469 51.753906 C 34.140625 51.585938 33.78125 51.964844 33.550781 51.628906 C 33.445312 51.753906 33.296875 51.734375 33.148438 51.648438 C 32.957031 51.691406 32.957031 51.925781 32.832031 52.050781 C 32.851562 52.136719 32.957031 52.15625 33 52.242188 C 33.527344 51.925781 33.886719 52.515625 33.550781 52.9375 C 33.378906 52.957031 33.445312 52.769531 33.402344 52.664062 C 33.210938 52.789062 33.023438 52.664062 32.851562 52.597656 C 32.8125 52.851562 32.578125 53.085938 32.304688 52.832031 C 32.21875 52.683594 32.453125 52.640625 32.410156 52.429688 C 32.175781 52.558594 32.113281 53.105469 31.945312 53.402344 C 31.945312 53.421875 31.902344 53.421875 31.902344 53.464844 C 31.988281 53.445312 32.050781 53.382812 32.113281 53.359375 C 32.578125 53.402344 33.042969 53.210938 33.550781 53.273438 C 33.738281 53.316406 34.058594 53.421875 34.058594 53.632812 C 34.078125 53.992188 33.316406 54.011719 32.875 53.972656 C 32.621094 53.949219 32.367188 53.84375 32.050781 53.886719 Z M 37.457031 20.871094 C 37.476562 20.722656 37.5625 20.660156 37.644531 20.597656 C 37.5625 20.597656 37.5625 20.488281 37.457031 20.488281 C 37.414062 20.554688 37.414062 20.808594 37.457031 20.871094 Z M 37.203125 39.828125 C 37.179688 39.53125 36.90625 39.382812 36.738281 39.171875 C 36.863281 38.960938 36.738281 38.5625 36.90625 38.351562 C 36.992188 38.308594 37.074219 38.265625 37.222656 38.265625 C 37.222656 38.203125 37.222656 38.140625 37.222656 38.054688 C 36.992188 37.90625 36.800781 37.738281 36.886719 37.421875 C 36.925781 37.230469 37.160156 37.25 37.242188 37.082031 C 37.203125 36.871094 37.074219 36.894531 37.054688 36.722656 C 36.992188 36.367188 37.203125 36.324219 37.285156 36.132812 C 37.371094 35.878906 37.265625 35.667969 37.328125 35.414062 C 37.117188 35.625 36.757812 35.585938 36.800781 35.269531 C 36.800781 35.140625 36.925781 35.183594 37.03125 34.992188 C 37.074219 34.910156 37.054688 34.761719 37.097656 34.699219 C 37.203125 34.570312 37.390625 34.527344 37.457031 34.484375 C 37.433594 34.339844 37.496094 34.277344 37.476562 34.128906 C 36.886719 34.128906 36.863281 33.09375 37.601562 33.21875 C 37.601562 33.074219 37.625 32.902344 37.644531 32.734375 C 36.863281 32.777344 37.265625 31.761719 37.496094 31.46875 C 37.03125 31.300781 37.371094 30.453125 37.878906 30.75 C 37.898438 30.515625 38.003906 30.222656 37.941406 29.988281 C 37.8125 30.476562 37.117188 30.285156 37.203125 29.800781 C 37.222656 29.671875 37.371094 29.609375 37.457031 29.460938 C 37.222656 29.230469 37.476562 28.996094 37.433594 28.597656 C 37.707031 28.238281 37.433594 27.394531 37.644531 26.867188 C 37.433594 26.125 37.457031 25.027344 37.328125 24.3125 C 37.242188 27.203125 37.03125 29.949219 36.675781 32.609375 C 36.695312 32.671875 36.820312 32.648438 36.800781 32.777344 C 36.675781 34.339844 36.503906 35.878906 36.1875 37.25 C 36.230469 37.316406 36.25 37.125 36.398438 37.1875 C 36.484375 37.359375 36.484375 37.589844 36.484375 37.820312 C 36.398438 38.835938 36.0625 40.058594 35.894531 40.96875 C 36.167969 41.136719 36.570312 40.988281 36.96875 41.03125 C 37.011719 40.820312 37.117188 40.652344 37.160156 40.441406 C 36.96875 40.480469 36.84375 40.609375 36.675781 40.671875 C 36.527344 40.460938 36.378906 40.542969 36.273438 40.375 C 36.1875 40.230469 36.1875 40.019531 36.292969 39.871094 C 36.398438 39.722656 36.757812 39.554688 36.84375 39.574219 C 37.371094 39.636719 36.78125 40.441406 36.84375 40.542969 C 36.96875 40.335938 37.203125 40.101562 37.203125 39.828125 Z M 37.898438 27.582031 C 37.898438 27.878906 37.730469 28.195312 37.730469 28.363281 C 37.75 28.449219 37.855469 28.554688 37.898438 28.660156 C 37.921875 28.703125 37.835938 28.808594 37.984375 28.765625 C 37.898438 28.449219 37.898438 28.070312 37.941406 27.710938 C 37.984375 27.457031 38.152344 27.183594 37.984375 27.035156 C 37.941406 27.035156 37.941406 27.035156 37.898438 27.035156 C 37.898438 27.203125 37.921875 27.371094 37.898438 27.582031 Z M 37.792969 29.527344 C 37.898438 29.609375 37.898438 29.800781 37.984375 29.949219 C 38.003906 29.757812 38.152344 29.441406 37.984375 29.292969 C 37.960938 29.417969 37.835938 29.441406 37.792969 29.527344 Z M 38.722656 31.425781 C 38.847656 31.257812 38.847656 30.917969 38.996094 30.792969 C 38.871094 30.769531 38.847656 30.644531 38.785156 30.558594 C 38.722656 30.8125 38.742188 31.128906 38.722656 31.425781 Z M 38.890625 40.796875 C 39.335938 40.714844 39.925781 40.777344 40.367188 40.691406 C 40.15625 40.714844 39.863281 40.503906 39.542969 40.441406 C 39.1875 40.355469 38.828125 40.375 38.890625 40.019531 C 38.933594 39.804688 39.164062 39.847656 39.398438 39.910156 C 39.542969 39.722656 39.839844 39.699219 39.945312 39.488281 C 39.566406 39.617188 39.039062 39.382812 39.230469 38.855469 C 39.082031 38.75 38.953125 38.6875 38.953125 38.519531 C 38.953125 38.097656 39.441406 38.351562 39.839844 38.351562 C 39.882812 38.242188 39.882812 37.949219 39.839844 37.84375 C 38.976562 38.308594 38.933594 37.105469 39.25 36.617188 C 38.722656 36.640625 39.082031 35.457031 39.355469 35.5 C 39.566406 35.519531 39.460938 35.753906 39.566406 35.921875 C 39.734375 35.921875 39.609375 35.5625 39.609375 35.4375 C 39.3125 35.4375 38.976562 35.457031 38.890625 35.183594 C 38.871094 35.140625 38.914062 35.015625 38.890625 34.910156 C 38.847656 34.78125 38.742188 34.675781 38.742188 34.570312 C 38.679688 34.191406 38.699219 33.789062 38.914062 33.621094 C 38.722656 33.496094 38.808594 33.09375 38.976562 33.007812 C 38.699219 32.925781 38.660156 32.523438 38.828125 32.3125 C 38.785156 32.25 38.742188 32.164062 38.660156 32.144531 C 38.59375 34.992188 38.765625 37.96875 38.890625 40.796875 Z M 39.542969 36.789062 C 39.566406 36.894531 39.398438 36.957031 39.460938 37.019531 C 39.542969 36.957031 39.671875 37.0625 39.777344 37.082031 C 39.734375 36.828125 39.757812 36.535156 39.609375 36.429688 C 39.417969 36.535156 39.398438 36.617188 39.542969 36.789062 Z M 37.222656 39.488281 C 37.222656 39.425781 37.179688 39.382812 37.097656 39.363281 C 37.117188 39.449219 37.160156 39.488281 37.222656 39.488281 Z M 35.746094 41.242188 C 35.703125 41.453125 35.449219 41.621094 35.449219 41.8125 C 35.679688 41.199219 36.570312 41.621094 36.210938 42.320312 C 36.316406 42.359375 36.421875 42.382812 36.503906 42.425781 C 36.359375 42.085938 36.125 41.367188 36.589844 41.285156 C 37.160156 41.199219 37.160156 41.9375 37.03125 42.464844 C 37.140625 42.445312 37.265625 42.425781 37.433594 42.445312 C 37.390625 42.296875 37.097656 42.382812 37.140625 42.148438 C 37.160156 42.085938 37.203125 42.023438 37.308594 42.023438 C 37.203125 41.8125 37.179688 41.515625 37.097656 41.261719 C 36.695312 41.199219 36.125 41.261719 35.746094 41.242188 Z M 38.660156 41.496094 C 38.765625 41.539062 38.808594 41.683594 38.890625 41.75 C 38.933594 41.496094 39.292969 41.582031 39.417969 41.683594 C 39.820312 41.433594 40.582031 41.582031 41.066406 41.347656 C 41.066406 41.304688 41.066406 41.285156 41.066406 41.242188 C 40.347656 41.347656 39.230469 41.136719 38.660156 41.496094 Z M 37.792969 42.382812 C 37.984375 42.359375 38.195312 42.359375 38.320312 42.277344 C 38.152344 42.253906 37.835938 42.191406 37.792969 42.382812 Z M 35.894531 43.226562 C 36.292969 42.992188 36.464844 43.4375 36.800781 43.5 C 36.96875 43.542969 37.203125 43.457031 37.433594 43.4375 C 38.382812 43.394531 39.417969 43.480469 40.261719 43.417969 C 40.539062 43.394531 40.875 43.417969 41.066406 43.269531 C 40.9375 43.058594 40.515625 42.992188 40.242188 42.992188 C 39.019531 42.929688 37.390625 43.101562 36.335938 42.78125 C 36.210938 42.253906 35.957031 42.929688 35.894531 43.226562 Z M 36.925781 42.71875 C 37.496094 42.71875 38.132812 42.761719 38.59375 42.675781 C 38.089844 42.636719 37.371094 42.59375 36.925781 42.71875 Z M 37.792969 43.796875 C 37.601562 43.796875 37.433594 43.796875 37.242188 43.796875 C 37.328125 43.964844 37.6875 43.902344 37.792969 43.796875 Z M 35.386719 44.597656 C 35.851562 44.578125 36.0625 44.28125 36.527344 44.28125 C 37.179688 44.683594 36.421875 45.992188 35.722656 45.335938 C 35.511719 45.527344 35.21875 45.191406 35.152344 45.253906 C 35.050781 45.484375 34.984375 45.738281 34.921875 45.992188 C 35.050781 45.757812 35.300781 45.800781 35.621094 45.738281 C 35.789062 45.695312 35.851562 45.632812 35.957031 45.632812 C 36.570312 45.65625 36.441406 46.730469 35.933594 46.773438 C 35.722656 46.792969 35.492188 46.644531 35.28125 46.667969 C 35.132812 46.667969 34.941406 46.773438 34.730469 46.730469 C 34.730469 47.003906 34.5625 47.238281 34.605469 47.425781 C 34.984375 47.046875 35.914062 47.28125 36.0625 47.722656 C 36 47.851562 35.765625 47.785156 35.679688 47.871094 C 35.765625 48.101562 35.894531 48.589844 35.535156 48.652344 C 35.34375 48.714844 35.28125 48.589844 35.113281 48.566406 C 34.878906 48.484375 34.625 48.503906 34.480469 48.375 C 34.457031 48.589844 34.5 48.671875 34.480469 48.84375 C 35.070312 48.882812 35.808594 48.800781 36.210938 49.03125 C 36.1875 48.355469 36.335938 47.765625 36.546875 47.070312 C 36.738281 46.5 36.820312 45.886719 36.96875 45.464844 C 36.992188 45.359375 37.074219 45.296875 37.074219 45.191406 C 37.097656 45.105469 37.03125 45.019531 37.054688 44.9375 C 37.097656 44.726562 37.371094 44.34375 37.5625 44.304688 C 37.730469 44.28125 37.878906 44.34375 38.046875 44.367188 C 38.363281 44.386719 38.660156 44.34375 38.953125 44.238281 C 38.617188 44.367188 38.46875 44.027344 38.195312 43.988281 C 38.132812 43.964844 37.984375 44.050781 37.878906 44.050781 C 37.519531 44.070312 37.03125 43.882812 36.757812 43.945312 C 36.527344 43.964844 36.398438 44.21875 36.144531 44.21875 C 35.894531 44.21875 35.746094 44.050781 35.621094 43.839844 C 35.554688 44.113281 35.449219 44.324219 35.386719 44.597656 Z M 41.128906 45.191406 C 41.445312 45.230469 41.886719 45.464844 41.847656 45.71875 C 41.824219 45.929688 41.445312 45.96875 41.253906 46.097656 C 41.507812 46.074219 41.699219 46.179688 41.929688 46.226562 C 41.867188 45.824219 41.910156 45.316406 41.761719 45.019531 C 41.59375 45.125 41.277344 45.082031 41.128906 45.191406 Z M 38.59375 45.421875 C 38.320312 45.398438 38.066406 45.527344 37.773438 45.589844 C 37.179688 46.476562 37.242188 48.019531 36.800781 49.03125 C 37.117188 49.160156 37.496094 49.304688 37.878906 49.304688 C 38.238281 49.304688 38.636719 49.136719 39.019531 49.09375 C 40.285156 48.96875 41.65625 49.117188 42.964844 49.03125 C 42.921875 48.882812 42.839844 48.800781 42.816406 48.609375 C 42.457031 48.988281 41.253906 48.800781 40.960938 48.589844 C 40.664062 48.398438 40.832031 48.167969 40.875 47.871094 C 40.894531 47.617188 40.875 47.238281 40.769531 47.003906 C 40.726562 46.855469 40.601562 46.792969 40.582031 46.667969 C 40.558594 46.476562 40.683594 46.246094 40.601562 46.054688 C 40.285156 46.035156 40.199219 45.78125 40.113281 45.507812 C 40.03125 46.328125 40.433594 47.152344 40.515625 47.957031 C 40.558594 48.207031 40.707031 48.546875 40.496094 48.757812 C 40.136719 48.589844 40.011719 48.082031 39.945312 47.636719 C 39.863281 46.964844 39.757812 46.226562 39.566406 45.695312 C 39.164062 45.78125 38.914062 45.464844 38.59375 45.421875 Z M 40.875 46.160156 C 41.214844 46.097656 41.214844 46.097656 40.894531 46.054688 C 40.875 46.054688 40.855469 46.054688 40.855469 46.054688 C 40.832031 46.117188 40.875 46.117188 40.875 46.160156 Z M 41.296875 47.109375 C 41.382812 47.152344 41.402344 47.28125 41.425781 47.386719 C 41.613281 47.40625 41.550781 47.175781 41.53125 47.070312 C 41.445312 47.070312 41.339844 47.070312 41.296875 47.109375 Z M 34.160156 48.484375 C 34.226562 48.523438 34.203125 48.441406 34.269531 48.441406 C 34.269531 48.355469 34.246094 48.335938 34.203125 48.292969 C 34.183594 48.355469 34.140625 48.398438 34.160156 48.484375 Z M 34.035156 48.820312 C 33.949219 49.03125 33.972656 49.242188 33.867188 49.433594 C 33.761719 49.664062 33.527344 49.769531 33.488281 49.980469 C 33.78125 49.917969 34.058594 50.195312 34.351562 50.214844 C 34.5 50.234375 34.648438 50.109375 34.878906 50.109375 C 35.132812 50.085938 35.449219 50.214844 35.679688 50.195312 C 35.828125 50.171875 35.976562 50.042969 36.125 50.042969 C 36.335938 50.042969 36.546875 50.171875 36.738281 50.148438 C 36.90625 50.148438 37.054688 49.980469 37.222656 49.960938 C 37.707031 49.917969 38.214844 50.042969 38.722656 50.042969 C 39.417969 50.042969 40.09375 49.855469 40.8125 49.835938 C 40.769531 49.8125 40.75 49.75 40.75 49.664062 C 40.664062 49.625 40.515625 49.601562 40.367188 49.582031 C 40.347656 49.519531 40.472656 49.414062 40.347656 49.414062 C 39.25 49.390625 38.109375 49.644531 37.140625 49.539062 C 36.96875 49.496094 36.757812 49.539062 36.589844 49.496094 C 36.441406 49.476562 36.316406 49.242188 36.144531 49.199219 C 36.042969 49.199219 35.894531 49.265625 35.746094 49.265625 C 35.472656 49.285156 35.027344 49.222656 34.710938 49.242188 C 34.375 49.265625 34.183594 49.304688 34.058594 49.074219 C 34.078125 48.925781 34.226562 48.820312 34.058594 48.738281 C 34.058594 48.757812 34.058594 48.800781 34.035156 48.820312 Z M 35.808594 50.382812 C 35.808594 50.277344 35.660156 50.320312 35.554688 50.296875 C 35.554688 50.445312 35.722656 50.382812 35.808594 50.382812 Z M 36.210938 50.488281 C 36.484375 50.574219 36.609375 50.488281 36.84375 50.425781 C 36.738281 50.195312 36.316406 50.339844 36.210938 50.488281 Z M 33.886719 51.015625 C 33.867188 51.078125 33.824219 51.101562 33.824219 51.1875 C 34.015625 51.164062 34.058594 51.289062 34.183594 51.3125 C 34.457031 51.101562 34.605469 51.460938 34.921875 51.3125 C 34.921875 51.164062 34.984375 51.121094 35.007812 51.015625 C 34.941406 50.953125 34.730469 51.015625 34.753906 50.890625 C 34.773438 50.824219 34.878906 50.824219 34.964844 50.824219 C 34.941406 50.65625 34.964844 50.507812 35.007812 50.425781 C 34.710938 50.445312 34.582031 50.320312 34.289062 50.339844 C 34.5 50.679688 34.480469 51.375 33.886719 51.015625 Z M 39.417969 50.382812 C 39.25 50.425781 39.019531 50.339844 38.890625 50.425781 C 39.058594 50.402344 39.3125 50.445312 39.417969 50.382812 Z M 43.386719 50.824219 C 43.492188 50.804688 43.660156 50.847656 43.703125 50.785156 C 43.640625 50.742188 43.429688 50.761719 43.386719 50.824219 Z M 35.808594 51.226562 C 35.894531 51.25 35.914062 51.289062 36.019531 51.289062 C 35.976562 51.1875 36 51.039062 35.933594 50.996094 C 35.894531 50.996094 35.871094 50.996094 35.851562 50.996094 C 35.808594 51.039062 35.808594 51.144531 35.808594 51.226562 Z M 36.441406 51.355469 C 36.675781 51.332031 36.84375 51.417969 37.03125 51.355469 C 37.03125 51.25 37.03125 51.121094 36.992188 51.058594 C 36.675781 51.015625 36.398438 51.015625 36.441406 51.355469 Z M 39.566406 51.394531 C 39.757812 51.394531 39.90625 51.355469 40.09375 51.355469 C 40.136719 51.3125 40.113281 51.1875 40.113281 51.078125 C 39.925781 51.078125 39.734375 51.078125 39.542969 51.078125 C 39.589844 51.164062 39.589844 51.269531 39.566406 51.394531 Z M 37.730469 51.394531 C 37.8125 51.332031 37.921875 51.332031 38.046875 51.332031 C 38.046875 51.25 38.046875 51.1875 38.046875 51.101562 C 37.8125 51.039062 37.625 51.1875 37.730469 51.394531 Z M 40.726562 51.355469 C 41.003906 51.394531 41.296875 51.394531 41.550781 51.417969 C 41.53125 51.332031 41.59375 51.3125 41.570312 51.226562 C 41.320312 51.144531 40.960938 51.164062 40.664062 51.101562 C 40.683594 51.1875 40.683594 51.289062 40.726562 51.355469 Z M 42.226562 51.460938 C 42.332031 51.460938 42.417969 51.460938 42.523438 51.460938 C 42.5625 51.394531 42.5625 51.289062 42.585938 51.226562 C 42.5 51.1875 42.394531 51.1875 42.269531 51.1875 C 42.226562 51.25 42.269531 51.394531 42.226562 51.460938 Z M 43.449219 51.355469 C 43.535156 51.3125 43.789062 51.394531 43.765625 51.226562 C 43.640625 51.226562 43.535156 51.226562 43.429688 51.226562 C 43.410156 51.289062 43.472656 51.289062 43.449219 51.355469 Z M 43.980469 51.332031 C 44.082031 51.3125 44.148438 51.394531 44.1875 51.332031 C 44.210938 51.1875 43.9375 51.164062 43.980469 51.332031 Z M 40.707031 51.628906 C 40.707031 51.796875 40.664062 52.050781 40.707031 52.136719 C 40.980469 51.988281 41.296875 52.175781 41.550781 51.964844 C 41.550781 51.839844 41.550781 51.691406 41.550781 51.566406 C 41.296875 51.605469 40.960938 51.585938 40.707031 51.628906 Z M 42.164062 51.925781 C 42.3125 51.945312 42.4375 51.988281 42.628906 51.964844 C 42.585938 51.859375 42.585938 51.691406 42.523438 51.585938 C 42.417969 51.585938 42.289062 51.585938 42.183594 51.585938 C 42.207031 51.734375 42.101562 51.859375 42.164062 51.925781 Z M 43.429688 51.859375 C 43.515625 51.839844 43.621094 51.839844 43.621094 51.734375 C 43.492188 51.734375 43.429688 51.691406 43.429688 51.859375 Z M 43.980469 51.734375 C 43.957031 51.839844 43.9375 51.902344 43.914062 51.964844 C 44.042969 51.945312 44.1875 51.859375 44.335938 51.925781 C 44.316406 51.859375 44.296875 51.796875 44.273438 51.710938 C 44.1875 51.734375 44.105469 51.753906 43.980469 51.734375 Z M 41.128906 53.867188 C 41.253906 53.972656 41.488281 53.886719 41.445312 53.65625 C 41.296875 53.507812 41.105469 53.65625 41.128906 53.867188 Z M 43.070312 54.4375 C 43.304688 54.203125 43.957031 54.394531 44 54.730469 C 44.148438 54.667969 44.273438 54.5625 44.441406 54.519531 C 44.484375 54.4375 44.402344 54.457031 44.402344 54.414062 C 44.527344 54.332031 44.613281 54.203125 44.71875 54.097656 C 44.378906 54.078125 44.253906 54.265625 44.082031 54.375 C 43.808594 54.308594 43.515625 54.246094 43.28125 54.121094 C 43.199219 54.140625 43.199219 54.226562 43.132812 54.265625 C 43.070312 54.140625 43.007812 54.035156 43.050781 53.886719 C 43.007812 53.886719 42.945312 53.886719 42.902344 53.886719 C 42.921875 54.097656 42.945312 54.332031 43.070312 54.4375 Z M 32.367188 54.859375 C 32.472656 54.902344 32.472656 55.050781 32.664062 55.007812 C 32.683594 54.878906 32.8125 54.753906 32.789062 54.667969 C 32.664062 54.773438 32.472656 54.773438 32.367188 54.859375 Z M 44.886719 55.070312 C 45.078125 55.089844 45.160156 54.835938 45.140625 54.753906 C 45.078125 54.878906 44.949219 54.964844 44.886719 55.070312 Z M 31.503906 54.984375 C 31.605469 54.902344 31.796875 54.921875 31.902344 54.859375 C 31.777344 54.796875 31.4375 54.859375 31.503906 54.984375 Z M 45.203125 55.070312 C 45.289062 55.050781 45.433594 55.113281 45.457031 55.027344 C 45.394531 55.007812 45.457031 54.835938 45.351562 54.835938 C 45.328125 54.941406 45.246094 54.984375 45.203125 55.070312 Z M 45.457031 55.554688 C 45.519531 55.535156 45.519531 55.617188 45.605469 55.574219 C 45.625 55.46875 45.476562 55.492188 45.457031 55.554688 Z M 30.828125 56.144531 C 31.164062 56.144531 31.503906 56.144531 31.839844 56.144531 C 31.902344 56.0625 32.199219 55.871094 32.113281 55.808594 C 31.566406 55.976562 30.847656 55.492188 30.828125 56.144531 Z M 45.835938 55.933594 C 45.605469 56.019531 45.351562 56.082031 45.203125 56.210938 C 45.222656 56.355469 45.394531 56.355469 45.371094 56.527344 C 45.667969 56.527344 45.941406 56.484375 46.152344 56.378906 C 46.046875 56.230469 45.921875 56.082031 45.835938 55.933594 Z M 46.175781 56.082031 C 46.238281 56.25 46.28125 56.421875 46.363281 56.527344 C 46.34375 56.355469 46.28125 56.210938 46.175781 56.082031 Z M 45.898438 56.992188 C 45.964844 57.011719 46.027344 57.011719 46.089844 57.054688 C 46.152344 56.882812 46.363281 56.695312 46.175781 56.527344 C 46.089844 56.695312 45.964844 56.820312 45.898438 56.992188 Z M 30.191406 57.160156 C 30.488281 57.117188 30.867188 57.351562 30.933594 57.054688 C 30.65625 57.054688 30.257812 56.863281 30.191406 57.160156 Z M 46.808594 57.308594 C 46.722656 57.265625 46.765625 57.097656 46.636719 57.097656 C 46.617188 57.222656 46.703125 57.390625 46.808594 57.308594 Z M 30.191406 57.644531 C 30.40625 57.625 30.636719 57.601562 30.679688 57.433594 C 30.488281 57.285156 30.300781 57.519531 30.191406 57.644531 Z M 46.300781 57.558594 C 46.28125 57.707031 46.40625 57.707031 46.511719 57.707031 C 46.511719 57.667969 46.511719 57.601562 46.511719 57.558594 C 46.46875 57.519531 46.34375 57.519531 46.300781 57.558594 " fill-opacity="1" fill-rule="evenodd"/><path fill="rgb(27.839661%, 20.779419%, 22.749329%)" d="M 55.652344 69.636719 C 55.738281 69.46875 55.609375 69.363281 55.589844 69.234375 C 55.84375 69.003906 56.558594 68.726562 56.160156 68.433594 C 55.925781 68.433594 55.441406 68.707031 55.082031 68.855469 C 54.34375 69.191406 53.6875 69.402344 52.949219 69.761719 C 52.550781 69.953125 52.148438 70.015625 51.875 70.183594 C 51.707031 70.269531 51.578125 70.417969 51.410156 70.5 C 42.523438 74.113281 31.734375 72.78125 24.238281 69.972656 C 16.957031 67.25 10.984375 61.84375 7.289062 55.027344 C 6.867188 54.289062 6.402344 53.589844 6.0625 52.832031 C 2.179688 43.945312 2.15625 38.308594 2.601562 31.003906 C 2.664062 30.496094 2.601562 30.011719 2.601562 29.546875 C 2.601562 29.0625 2.875 28.679688 2.960938 28.195312 C 3.003906 28.007812 2.917969 27.730469 2.980469 27.519531 C 3.148438 26.90625 3.953125 26.570312 3.71875 25.808594 C 4.140625 25.515625 3.785156 25.027344 3.679688 24.605469 C 4.226562 24.417969 4.628906 24.015625 4.417969 23.488281 C 4.4375 23.296875 4.671875 23.066406 4.480469 22.875 C 3.71875 23.214844 3.109375 23.296875 3.171875 24.058594 C 3.191406 24.246094 3.339844 24.457031 3.339844 24.691406 C 3.339844 24.988281 3.003906 25.21875 3.003906 25.472656 C 2.03125 25.957031 2.410156 26.90625 2.265625 27.582031 C 2.199219 27.921875 1.988281 28.195312 1.882812 28.511719 C 0.00390625 37.460938 1.1875 45.84375 4.605469 53.527344 C 4.964844 54.265625 5.472656 54.984375 5.9375 55.703125 C 6.402344 56.460938 6.84375 57.265625 7.289062 58.023438 C 10.855469 64.105469 16.851562 68.664062 23.289062 71.410156 C 24.492188 71.9375 25.675781 72.296875 26.859375 72.695312 C 27.257812 72.824219 27.679688 72.90625 28.0625 73.078125 C 28.25 73.140625 28.398438 73.308594 28.609375 73.371094 C 28.714844 73.414062 28.882812 73.414062 29.03125 73.4375 C 38.195312 74.976562 45.203125 74.363281 51.597656 71.578125 C 51.8125 71.496094 52.042969 71.367188 52.234375 71.28125 C 52.445312 71.199219 52.675781 71.21875 52.84375 71.132812 C 52.972656 71.09375 53.015625 70.945312 53.183594 70.839844 C 53.519531 70.648438 54.007812 70.542969 54.429688 70.355469 C 54.703125 70.207031 55.503906 69.804688 55.652344 69.636719 Z M 20.757812 5.015625 C 20.90625 5.226562 20.839844 5.417969 21.074219 5.523438 C 21.390625 5.691406 21.898438 5.269531 22.339844 5.078125 C 23.566406 4.550781 24.808594 4.042969 25.972656 3.707031 C 26.582031 3.496094 27.195312 3.328125 27.808594 3.136719 C 28.988281 2.757812 30.191406 2.652344 31.355469 2.460938 C 33.78125 2.0625 36.144531 1.554688 38.320312 1.574219 C 38.660156 1.871094 39.058594 1.953125 39.589844 1.636719 C 40.558594 1.828125 41.507812 1.890625 42.457031 1.953125 C 43.367188 2.019531 44.316406 2.25 45.222656 2.523438 C 46.574219 2.925781 47.949219 3.199219 49.277344 3.601562 C 49.933594 3.8125 50.460938 4.148438 51.136719 4.042969 C 51.597656 4.148438 51.980469 4.550781 52.527344 4.363281 C 52.570312 4.191406 52.382812 4.066406 52.316406 3.9375 C 52.316406 3.75 52.296875 3.433594 52.085938 3.304688 C 52.191406 3.347656 52.402344 3.304688 52.296875 3.136719 C 50.523438 2.441406 48.726562 1.828125 46.871094 1.46875 C 45.519531 1.195312 44.148438 0.773438 42.796875 0.539062 C 42.3125 0.476562 41.804688 0.5625 41.339844 0.433594 C 41.171875 0.414062 41.042969 0.328125 40.875 0.308594 C 40.472656 0.222656 40.03125 0.265625 39.566406 0.222656 C 39.144531 0.179688 38.699219 0.0546875 38.320312 0.0351562 C 37.644531 0.0117188 36.90625 0.203125 36.1875 0.246094 C 35.472656 0.308594 34.710938 0.265625 34.078125 0.394531 C 33.929688 0.433594 33.78125 0.5 33.613281 0.519531 C 33.421875 0.5625 33.210938 0.5 33 0.539062 C 32.328125 0.582031 31.628906 0.710938 30.953125 0.921875 C 30.023438 1.214844 29.09375 1.425781 28.125 1.722656 C 27.21875 1.976562 26.265625 2.292969 25.296875 2.566406 C 24.808594 2.714844 24.324219 2.863281 23.839844 3.09375 C 23.332031 3.304688 22.847656 3.664062 22.296875 3.835938 C 22.148438 3.875 21.960938 3.769531 21.75 3.875 C 21.601562 3.960938 21.558594 4.191406 21.390625 4.277344 C 21.285156 4.339844 21.074219 4.277344 20.96875 4.382812 C 20.777344 4.53125 20.945312 4.824219 20.757812 5.015625 Z M 25.359375 3.050781 C 25.253906 3.074219 24.726562 3.390625 24.515625 3.304688 C 24.808594 3.179688 25.0625 3.136719 25.359375 3.050781 Z M 23.710938 3.582031 C 23.332031 3.707031 22.972656 4.109375 22.574219 4.109375 C 22.828125 3.8125 23.375 3.707031 23.710938 3.582031 Z M 53.371094 4.425781 C 53.4375 4.65625 53.710938 4.570312 53.753906 4.785156 C 53.140625 5.3125 54.070312 5.523438 54.492188 5.753906 C 54.871094 5.964844 55.1875 6.21875 55.421875 6.386719 C 57.277344 7.78125 59.21875 8.835938 60.992188 10.25 C 61.585938 10.714844 62.175781 11.179688 62.808594 11.664062 C 63.421875 12.109375 63.992188 12.636719 64.539062 13.292969 C 65.660156 14.515625 66.839844 15.992188 67.726562 17.492188 C 68.023438 18 68.234375 18.507812 68.53125 18.949219 C 68.804688 19.390625 69.144531 19.835938 69.375 20.320312 C 69.777344 21.125 70.242188 22.15625 70.914062 22.179688 C 70.957031 22.75 71.613281 23.507812 71.527344 24.035156 C 71.421875 23.847656 71.339844 23.550781 71.167969 23.507812 C 71.0625 23.742188 71.191406 24.035156 71.253906 24.246094 C 71.339844 24.542969 71.464844 24.816406 71.550781 25.09375 C 72.160156 26.761719 72.414062 28.363281 72.816406 29.949219 C 73.113281 30.980469 73.28125 32.039062 73.386719 33.074219 C 73.511719 34.085938 73.449219 35.078125 73.511719 36.070312 C 73.554688 37.042969 73.511719 38.035156 73.574219 39.023438 C 73.617188 40.019531 73.617188 40.96875 73.492188 41.960938 C 73.320312 43.375 73.113281 44.808594 72.816406 46.160156 C 72.710938 46.644531 72.667969 47.132812 72.542969 47.554688 C 72.414062 47.933594 72.265625 48.335938 72.140625 48.738281 C 71.90625 49.601562 71.632812 50.339844 71.210938 51.164062 C 71.019531 51.585938 70.832031 52.03125 70.664062 52.429688 C 69.882812 54.226562 69.144531 55.746094 68.234375 57.453125 C 68.046875 57.835938 67.855469 58.300781 67.558594 58.699219 C 67.199219 59.1875 66.566406 59.777344 66.800781 60.21875 C 66.039062 61.253906 65.132812 62.351562 64.011719 63.195312 C 63.863281 62.882812 64.183594 62.753906 64.476562 62.628906 C 64.605469 62.414062 64.605469 62.183594 64.835938 62.015625 C 64.835938 62.058594 64.816406 62.121094 64.792969 62.164062 C 64.816406 62.289062 65.089844 62.015625 65.089844 61.953125 C 65.089844 61.804688 65.195312 61.65625 65.089844 61.550781 C 64.773438 61.613281 64.792969 61.929688 64.5625 62.078125 C 64.433594 62.183594 64.246094 62.164062 64.117188 62.289062 C 63.992188 62.394531 64.035156 62.691406 63.929688 62.796875 C 63.78125 62.964844 63.441406 62.902344 63.253906 63.070312 C 63.042969 63.238281 63.167969 63.597656 62.957031 63.746094 C 62.726562 63.914062 62.429688 63.808594 62.195312 63.980469 C 61.902344 64.167969 61.902344 64.507812 61.796875 64.824219 C 61.5 64.929688 61.203125 65.328125 60.84375 65.5 C 60.675781 65.5625 60.488281 65.5 60.382812 65.625 C 60.253906 65.75 60.339844 65.941406 60.339844 66.132812 C 60.570312 66.089844 60.699219 66.300781 60.910156 66.238281 C 61.269531 66.175781 61.648438 65.6875 62.113281 65.414062 C 63.398438 64.613281 64.140625 63.535156 64.960938 62.648438 C 65.871094 61.675781 66.734375 60.75 67.539062 59.796875 C 67.8125 59.460938 68.128906 59.164062 68.425781 58.847656 C 68.53125 58.699219 68.613281 58.488281 68.742188 58.34375 C 69.144531 57.792969 69.457031 57.351562 69.734375 56.800781 C 70.113281 56.082031 70.558594 55.40625 70.914062 54.730469 C 71.65625 53.273438 72.371094 51.839844 72.773438 50.382812 C 73.003906 49.625 73.257812 48.882812 73.449219 48.125 C 73.789062 46.984375 73.976562 45.824219 74.273438 44.703125 C 74.527344 43.796875 74.84375 42.71875 74.800781 41.789062 C 74.800781 41.582031 74.695312 41.347656 74.714844 41.113281 C 74.738281 40.714844 74.925781 40.398438 74.949219 40.019531 C 75.011719 39.382812 74.90625 38.730469 74.90625 38.074219 C 74.90625 37.421875 74.882812 36.765625 74.84375 36.132812 C 74.738281 34.824219 74.84375 33.496094 74.609375 32.183594 C 74.460938 31.488281 74.359375 30.855469 74.273438 30.160156 C 74.1875 29.460938 73.890625 28.765625 73.679688 28.046875 C 73.46875 27.351562 73.34375 26.613281 73.046875 25.914062 C 72.921875 25.554688 72.710938 25.199219 72.582031 24.796875 C 72.4375 24.417969 72.246094 24.078125 72.097656 23.699219 C 71.992188 23.464844 72.078125 23.234375 71.675781 23.191406 C 71.570312 23.105469 71.675781 23.402344 71.589844 23.339844 C 71.359375 22.917969 71.296875 22.558594 71.128906 22.15625 C 71.761719 22.347656 71.402344 21.652344 71.210938 21.207031 C 71.0625 20.808594 70.957031 20.511719 70.851562 20.257812 C 70.558594 19.5 70.050781 18.757812 69.648438 18.042969 C 69.25 17.324219 68.804688 16.625 68.382812 16.015625 C 67.726562 15.085938 67.011719 14.09375 66.378906 13.292969 C 66.125 12.996094 65.890625 12.679688 65.679688 12.425781 C 65.300781 12.023438 64.816406 11.707031 64.414062 11.285156 C 63.96875 10.882812 63.527344 10.503906 63.125 10.082031 C 62.28125 9.195312 61.375 8.605469 60.527344 7.910156 C 59.007812 6.640625 57.34375 5.777344 55.714844 4.910156 C 55.484375 4.785156 55.1875 4.679688 55 4.550781 C 54.722656 4.339844 54.386719 3.980469 54.007812 4.191406 C 53.753906 3.898438 53.289062 4.066406 53.371094 4.425781 Z M 6.253906 19.351562 C 6.296875 19.074219 6.65625 18.992188 6.886719 18.78125 C 7.351562 18.378906 7.6875 17.789062 8.089844 17.261719 C 8.851562 16.246094 9.484375 15.171875 10.414062 14.179688 C 10.664062 13.925781 10.898438 13.734375 11.171875 13.460938 C 11.277344 13.3125 11.804688 12.867188 11.574219 12.617188 C 11.320312 12.339844 10.476562 13.015625 10.390625 13.121094 C 10.371094 12.785156 11.53125 12.40625 11.296875 11.960938 C 11.027344 11.453125 10.601562 12.214844 10.496094 12.425781 C 10.074219 13.144531 9.484375 13.566406 8.933594 14.21875 C 8.765625 14.429688 8.574219 14.601562 8.40625 14.8125 C 8.238281 15 8.152344 15.210938 7.984375 15.421875 C 7.753906 15.78125 7.351562 16.203125 6.949219 16.648438 C 6.613281 17.046875 6.0625 17.578125 5.980469 17.914062 C 5.917969 18.125 6 18.335938 5.957031 18.546875 C 5.917969 18.675781 5.8125 18.800781 5.726562 18.949219 C 5.535156 19.433594 5.28125 19.898438 5.28125 20.425781 C 5.324219 20.46875 5.386719 20.40625 5.429688 20.425781 C 5.367188 20.660156 5.175781 20.871094 5.242188 21.164062 C 5.492188 21.039062 5.621094 20.660156 5.8125 20.449219 C 6.421875 20.597656 6.867188 19.730469 6.253906 19.351562 Z M 13.179688 10.589844 C 13.789062 10.925781 14 9.746094 13.367188 9.894531 C 13.050781 9.957031 13.007812 10.230469 12.777344 10.441406 C 12.355469 10.84375 11.65625 11.433594 11.511719 11.792969 C 12.144531 11.496094 12.480469 10.925781 13.179688 10.589844 Z M 13.875 9.765625 C 13.960938 9.851562 14.402344 9.851562 14.550781 9.746094 C 14.742188 9.617188 14.71875 9.40625 14.550781 9.238281 C 14.210938 8.835938 13.539062 9.429688 13.875 9.765625 Z M 15.691406 8.753906 C 15.667969 8.625 15.5 8.5 15.414062 8.371094 C 14.910156 8.457031 15.351562 8.984375 15.691406 8.753906 Z M 17.613281 7.042969 C 18.203125 6.597656 19.171875 6.683594 19.214844 6.050781 C 18.8125 6.007812 18.203125 6.347656 17.738281 6.640625 C 17.570312 6.746094 17.464844 6.894531 17.316406 6.980469 C 17.105469 7.105469 16.722656 7.085938 16.765625 7.378906 C 17 7.484375 17.273438 7.402344 17.546875 7.296875 C 17.632812 7.234375 17.546875 7.105469 17.613281 7.042969 Z M 19.40625 5.945312 C 19.34375 6.03125 19.363281 6.136719 19.425781 6.261719 C 19.617188 6.410156 19.890625 6.09375 19.660156 5.945312 C 19.742188 5.902344 19.722656 5.839844 19.785156 5.796875 C 19.636719 5.460938 19.109375 5.605469 18.921875 5.796875 C 19.046875 5.964844 19.257812 5.859375 19.40625 5.945312 " fill-opacity="1" fill-rule="evenodd"/><path fill="rgb(27.839661%, 20.779419%, 22.749329%)" d="M 32.851562 0.394531 C 32.746094 0.816406 32.007812 0.878906 31.503906 1.003906 C 31.269531 1.046875 30.847656 1.238281 30.828125 0.898438 C 30.785156 0.667969 31.164062 0.625 31.332031 0.5625 C 31.691406 0.457031 32.410156 0.0351562 32.851562 0.394531 " fill-opacity="1" fill-rule="evenodd"/><path fill="rgb(27.839661%, 20.779419%, 22.749329%)" d="M 43.367188 15.867188 C 43.449219 16.058594 44.019531 15.949219 44.0625 16.203125 C 44.105469 16.4375 43.726562 16.5625 43.429688 16.519531 C 43.113281 16.457031 42.753906 16.078125 42.585938 15.78125 C 42.394531 15.421875 42.332031 14.980469 42.183594 14.601562 C 42.058594 14.285156 41.824219 13.96875 41.675781 13.566406 C 41.425781 12.847656 40.980469 12.152344 40.683594 11.496094 C 39.863281 11.371094 39.019531 11.265625 38.214844 11.117188 C 37.984375 11.390625 37.941406 11.875 37.878906 12.320312 C 37.792969 12.890625 37.707031 13.355469 37.667969 14.03125 C 37.644531 14.875 37.601562 16.164062 36.632812 15.972656 C 36.421875 15.929688 36.0625 15.675781 35.914062 15.507812 C 35.789062 15.359375 35.746094 15.066406 35.789062 14.832031 C 35.851562 14.304688 36.167969 13.648438 36.230469 13.058594 C 36.273438 12.617188 36.125 12.128906 36.167969 11.707031 C 36.210938 11.242188 36.335938 10.882812 36.464844 10.546875 C 36.167969 9.976562 36.632812 9.238281 36.632812 8.667969 C 36.632812 8.5 36.546875 8.332031 36.546875 8.183594 C 36.546875 7.507812 36.84375 6.851562 36.820312 6.175781 C 36.757812 6.136719 36.527344 6.242188 36.464844 6.09375 C 36.484375 5.753906 36.398438 5.183594 36.652344 4.953125 C 36.757812 4.953125 36.757812 5.078125 36.863281 5.121094 C 37.097656 4.890625 36.800781 4.109375 37.222656 4.085938 C 37.308594 4.570312 36.886719 4.824219 36.925781 5.394531 C 37.054688 5.246094 37.03125 4.867188 37.285156 4.785156 C 37.371094 4.742188 37.433594 4.785156 37.5625 4.785156 C 37.941406 4.742188 38.46875 4.742188 38.914062 4.804688 C 39.25 4.847656 39.691406 5.058594 40.136719 5.078125 C 40.664062 5.121094 41.023438 5.121094 41.488281 5.269531 C 41.929688 5.394531 42.246094 5.375 42.4375 5.648438 C 43.304688 5.164062 44.949219 7.316406 43.832031 7.695312 C 44.167969 8.117188 43.980469 8.835938 43.832031 9.28125 C 44.019531 9.238281 44.082031 8.941406 44.402344 8.964844 C 45.011719 9.027344 44.335938 10.0625 44.148438 10.273438 C 43.9375 10.484375 43.597656 10.632812 43.34375 10.820312 C 43.050781 11.054688 42.796875 11.222656 42.605469 11.371094 C 43.050781 12.910156 43.980469 13.96875 44.402344 15.507812 C 43.957031 15.148438 43.789062 14.515625 43.472656 14.050781 C 43.558594 14.640625 44.082031 15.105469 43.851562 15.65625 C 43.957031 15.675781 44.273438 15.613281 44.316406 15.78125 C 44.296875 16.078125 43.851562 16.035156 43.765625 15.824219 C 43.683594 15.886719 43.515625 15.949219 43.410156 15.867188 C 43.410156 15.867188 43.386719 15.867188 43.367188 15.867188 Z M 39.375 5.882812 C 39.1875 5.839844 39.3125 5.964844 39.375 5.882812 Z M 42.394531 6.746094 C 41.953125 7 41.53125 6.683594 41.085938 6.621094 C 40.601562 6.535156 40.113281 6.558594 39.609375 6.515625 C 39.441406 6.707031 39.019531 6.832031 38.953125 7.148438 C 38.933594 7.253906 38.976562 7.421875 38.976562 7.507812 C 38.953125 7.804688 38.785156 8.054688 38.679688 8.351562 C 38.617188 8.457031 38.617188 8.605469 38.574219 8.710938 C 38.488281 8.941406 38.257812 9.132812 38.382812 9.535156 C 38.511719 9.574219 38.511719 9.746094 38.636719 9.765625 C 39.589844 9.785156 40.582031 10.316406 41.425781 10.167969 C 41.613281 10.125 41.78125 9.976562 41.996094 9.957031 C 42.164062 9.933594 42.351562 10 42.523438 9.957031 C 42.753906 9.914062 42.964844 9.679688 43.199219 9.617188 C 43.132812 9.257812 43.515625 9.132812 43.640625 8.898438 C 43.808594 8.5625 43.597656 8.226562 43.660156 7.761719 C 43.261719 7.378906 42.902344 7 42.394531 6.746094 Z M 37.308594 9.976562 C 37.285156 10.144531 37.328125 9.871094 37.308594 9.976562 Z M 43.132812 13.332031 C 43.175781 13.417969 43.027344 13.1875 43.132812 13.332031 Z M 42.902344 14.261719 C 43.007812 14.21875 43.027344 14.113281 43.15625 14.074219 C 43.089844 14.050781 43.089844 13.96875 43.007812 13.988281 C 42.988281 14.09375 42.796875 14.136719 42.902344 14.261719 " fill-opacity="1" fill-rule="evenodd"/><path fill="rgb(27.839661%, 20.779419%, 22.749329%)" d="M 28.925781 9.851562 C 29.222656 9.617188 29.433594 9.851562 29.707031 9.933594 C 29.960938 10.019531 30.128906 10 30.300781 10.167969 C 30.59375 10.421875 30.65625 10.882812 30.828125 11.203125 C 31.164062 11.328125 31.269531 11.625 31.460938 11.917969 C 31.671875 12.214844 31.988281 12.46875 32.242188 12.785156 C 32.8125 13.503906 33.421875 14.199219 34.078125 14.894531 C 34.203125 15.023438 34.414062 15.171875 34.332031 15.382812 C 34.140625 15.507812 34.058594 15.339844 33.910156 15.277344 C 33.992188 15.761719 33.527344 15.84375 33.253906 15.78125 C 33.023438 15.71875 32.851562 15.402344 32.664062 15.171875 C 32.453125 14.960938 32.242188 14.769531 32.09375 14.578125 C 31.691406 14.09375 31.398438 13.628906 31.035156 13.292969 C 30.488281 13.375 29.984375 13.523438 29.476562 13.648438 C 28.96875 13.777344 28.523438 13.96875 28.039062 14.136719 C 27.890625 14.179688 27.660156 14.21875 27.449219 14.21875 C 27.492188 15.023438 27.425781 15.804688 27.492188 16.625 C 27.511719 17.027344 27.679688 17.472656 27.617188 17.871094 C 27.492188 18.570312 26.328125 18.929688 25.992188 18.230469 C 25.972656 18.167969 25.972656 18.042969 25.929688 17.9375 C 25.824219 17.597656 25.550781 17.238281 25.929688 16.964844 C 25.761719 16.480469 25.738281 15.84375 25.761719 15.171875 C 25.824219 15.042969 25.972656 15 26.078125 14.894531 C 25.339844 13.714844 25.675781 11.644531 25.675781 9.746094 C 25.675781 9.070312 25.570312 8.332031 25.65625 7.761719 C 25.695312 7.402344 25.949219 6.808594 26.160156 6.683594 C 26.582031 6.410156 26.941406 6.746094 27.28125 7 C 27.449219 7.167969 27.703125 7.316406 27.785156 7.445312 C 27.851562 7.550781 27.851562 7.675781 27.890625 7.78125 C 28.101562 8.226562 28.460938 8.582031 28.695312 9.046875 C 28.738281 9.34375 28.84375 9.617188 28.925781 9.851562 Z M 27.238281 9.957031 C 27.320312 10.949219 27.257812 12.128906 27.386719 13.078125 C 28.230469 12.742188 29.160156 12.511719 30.085938 12.257812 C 29.917969 11.328125 29.09375 11.03125 28.882812 10.125 C 28.695312 10.019531 28.566406 9.871094 28.546875 9.640625 C 28.421875 9.597656 28.230469 9.574219 28.039062 9.597656 C 27.722656 9.40625 27.597656 9.109375 27.238281 8.964844 C 27.070312 9.300781 27.21875 9.617188 27.238281 9.957031 Z M 26.4375 16.691406 C 26.4375 16.5625 26.476562 16.351562 26.414062 16.246094 C 26.371094 16.394531 26.328125 16.605469 26.4375 16.691406 " fill-opacity="1" fill-rule="evenodd"/><path fill="rgb(27.839661%, 20.779419%, 22.749329%)" d="M 47.375 17.367188 C 47.167969 17.300781 46.808594 17.15625 46.746094 16.796875 C 46.746094 16.667969 46.808594 16.519531 46.785156 16.414062 C 46.746094 16.332031 46.703125 16.332031 46.636719 16.246094 C 46.363281 16.015625 46.660156 15.886719 46.871094 15.804688 C 46.914062 15.59375 47.039062 15.464844 47.125 15.277344 C 47.125 15.105469 47.019531 15.210938 46.976562 15.128906 C 46.914062 14.789062 47.230469 14.621094 47.292969 14.390625 C 47.335938 14.199219 47.273438 13.945312 47.355469 13.753906 C 47.421875 13.585938 47.652344 13.480469 47.777344 13.3125 C 47.820312 13.207031 47.820312 13.039062 47.882812 12.867188 C 48.050781 12.445312 48.371094 11.835938 48.476562 11.371094 C 48.496094 11.285156 48.476562 11.179688 48.519531 11.097656 C 48.601562 10.882812 48.835938 10.738281 48.875 10.546875 C 48.898438 10.460938 48.875 10.335938 48.898438 10.210938 C 48.960938 9.976562 49.339844 9.703125 49.402344 9.300781 C 49.445312 9.238281 49.402344 9.152344 49.402344 9.089844 C 49.445312 8.984375 49.550781 8.898438 49.59375 8.792969 C 49.636719 8.667969 49.613281 8.5 49.679688 8.371094 C 49.742188 8.226562 49.867188 8.117188 49.953125 7.972656 C 50.015625 7.867188 50.015625 7.71875 50.078125 7.632812 C 50.121094 7.550781 50.269531 7.484375 50.375 7.359375 C 50.480469 7.210938 50.480469 7.0625 50.609375 6.980469 C 50.820312 6.851562 51.070312 6.914062 51.304688 7.042969 C 51.789062 6.980469 52.210938 7.167969 52.167969 7.695312 C 52.148438 7.84375 52.042969 8.054688 51.9375 8.289062 C 51.726562 8.878906 51.496094 9.535156 51.261719 10.039062 C 50.417969 11.941406 49.511719 13.648438 48.644531 15.570312 C 48.304688 16.351562 48.074219 16.964844 47.375 17.367188 " fill-opacity="1" fill-rule="evenodd"/><path fill="rgb(27.839661%, 20.779419%, 22.749329%)" d="M 56.222656 17.324219 C 56.179688 17.429688 56.054688 17.492188 55.949219 17.429688 C 55.925781 17.703125 56.054688 17.832031 56.160156 18.019531 C 56.582031 18 56.8125 18.210938 57.027344 18.421875 C 57.300781 18.105469 57.699219 18.378906 57.847656 18.695312 C 58.015625 19.074219 58.101562 19.960938 57.976562 20.511719 C 57.847656 21.125 57.445312 21.546875 57.003906 21.714844 C 56.75 22.222656 56.246094 22.347656 55.632812 22.328125 C 55.484375 22.328125 55.335938 22.261719 55.210938 22.242188 C 55.039062 22.222656 54.871094 22.285156 54.703125 22.285156 C 53.035156 22.328125 51.640625 21.164062 51.304688 19.667969 C 51.21875 19.351562 51.113281 18.949219 51.15625 18.675781 C 51.15625 18.507812 51.304688 18.398438 51.34375 18.210938 C 51.390625 17.976562 51.304688 17.746094 51.429688 17.535156 C 51.34375 17.386719 51.261719 17.21875 51.304688 17.046875 C 51.304688 16.859375 51.472656 16.816406 51.640625 16.648438 C 51.875 16.394531 51.875 16.121094 52.402344 16.246094 C 52.464844 16.289062 52.550781 16.394531 52.65625 16.394531 C 52.804688 16.414062 52.90625 16.269531 53.058594 16.351562 C 53.265625 16.457031 53.140625 16.902344 52.992188 17.046875 C 53.058594 17.660156 52.949219 18.210938 53.015625 18.824219 C 53.121094 19.457031 53.710938 20.40625 54.257812 20.679688 C 54.660156 20.890625 55.316406 20.933594 55.820312 20.660156 C 56.328125 20.171875 55.992188 19.117188 55.882812 18.421875 C 55.546875 17.976562 55.105469 17.578125 54.871094 16.984375 C 54.808594 16.859375 54.808594 16.691406 54.746094 16.542969 C 54.597656 16.140625 54.363281 15.78125 54.238281 15.382812 C 54.113281 14.960938 54.027344 14.453125 54.027344 13.925781 C 54.070312 13.078125 54.703125 12.046875 55.441406 11.707031 C 55.84375 11.496094 56.371094 11.433594 57.003906 11.519531 C 57.40625 11.558594 57.933594 11.625 58.269531 11.75 C 58.546875 11.875 58.734375 12.128906 59.113281 12.234375 C 59.664062 12.785156 60.277344 13.292969 60.570312 14.074219 C 60.675781 14.324219 60.71875 14.558594 60.84375 14.8125 C 60.953125 14.9375 61.078125 14.960938 61.140625 15.128906 C 61.183594 15.277344 61.078125 15.359375 61.078125 15.550781 C 61.058594 15.886719 61.269531 16.269531 61.097656 16.542969 C 60.742188 16.796875 60.804688 17.492188 60.253906 17.492188 C 59.875 17.511719 59.113281 16.859375 59.050781 16.480469 C 59.050781 16.394531 59.09375 16.289062 59.09375 16.183594 C 59.074219 15.445312 58.863281 14.136719 58.480469 13.882812 C 58.332031 13.753906 58.015625 13.753906 57.785156 13.628906 C 57.59375 13.523438 57.445312 13.207031 57.234375 13.164062 C 57.027344 13.121094 56.625 13.292969 56.476562 13.355469 C 56.097656 13.566406 55.421875 14.367188 55.652344 15.128906 C 55.714844 15.316406 55.949219 15.488281 56.054688 15.675781 C 56.117188 15.84375 56.136719 16.015625 56.179688 16.183594 C 56.265625 16.351562 56.433594 16.605469 56.539062 16.753906 C 56.625 16.902344 57.128906 17.449219 56.644531 17.578125 C 56.414062 17.617188 56.371094 17.492188 56.222656 17.324219 " fill-opacity="1" fill-rule="evenodd"/><path fill="rgb(27.839661%, 20.779419%, 22.749329%)" d="M 21.644531 15 C 21.664062 15.128906 21.578125 15.148438 21.539062 15.234375 C 21.578125 15.296875 21.726562 15.253906 21.707031 15.382812 C 21.621094 15.507812 21.476562 15.632812 21.515625 15.78125 C 22.085938 16.078125 21.707031 16.519531 21.433594 16.945312 C 21.011719 17.578125 20.460938 18.316406 19.890625 18.652344 C 19.722656 19.054688 19.300781 19.222656 19.089844 19.605469 C 19.828125 20.636719 20.820312 21.375 21.578125 22.390625 C 21.558594 22.496094 21.476562 22.515625 21.433594 22.578125 C 21.453125 22.875 21.410156 23.191406 21.179688 23.296875 C 21.09375 23.339844 20.988281 23.296875 20.863281 23.320312 C 20.546875 23.382812 20.398438 23.53125 20.058594 23.296875 C 19.976562 23.234375 19.933594 23.105469 19.871094 23.023438 C 19.59375 22.769531 19.257812 22.558594 18.984375 22.242188 C 18.582031 21.777344 18.183594 21.375 17.800781 20.933594 C 17.441406 20.765625 17.125 20.574219 17.125 20.066406 C 16.511719 19.960938 16.367188 19.414062 16.21875 18.863281 C 15.839844 18.714844 15.351562 18.695312 15.332031 18.1875 C 14.761719 18.167969 14.339844 17.429688 13.960938 17.113281 C 13.707031 16.878906 12.945312 16.519531 13.367188 15.949219 C 13.429688 15.867188 13.539062 15.804688 13.683594 15.78125 C 13.726562 15.570312 13.894531 15.507812 14 15.339844 C 14.042969 15.277344 14.042969 15.148438 14.105469 15.066406 C 14.402344 14.640625 15.183594 14.640625 15.4375 14.136719 C 15.4375 14.09375 15.375 14.113281 15.332031 14.09375 C 15.4375 13.863281 15.710938 13.648438 15.984375 13.398438 C 16.21875 13.1875 16.40625 12.867188 16.621094 12.722656 C 16.9375 12.511719 17.503906 12.214844 17.886719 12.40625 C 18.878906 12.003906 20.207031 12.277344 20.695312 13.015625 C 20.820312 13.207031 20.820312 13.460938 20.945312 13.628906 C 21.15625 13.925781 21.390625 13.925781 21.453125 14.21875 C 21.515625 14.539062 21.347656 14.894531 21.644531 15 Z M 18.5625 13.121094 C 18.855469 13.121094 19.257812 13.1875 19.53125 13.1875 C 19.214844 13.078125 19.089844 12.804688 18.6875 12.804688 C 18.707031 12.976562 18.582031 12.996094 18.5625 13.121094 Z M 17.949219 13.3125 C 18.117188 13.3125 18.222656 13.269531 18.242188 13.144531 C 18.222656 13.078125 18.140625 13.015625 18.074219 12.976562 C 18.011719 13.058594 17.90625 13.121094 17.949219 13.3125 Z M 20.375 14.050781 C 20.417969 13.796875 20.164062 13.460938 19.953125 13.480469 C 20.144531 13.628906 20.144531 13.945312 20.375 14.050781 Z M 18.921875 17.261719 C 19.046875 17.132812 19.132812 16.984375 19.238281 16.878906 C 19.382812 16.753906 19.574219 16.691406 19.703125 16.542969 C 20.164062 15.910156 20.230469 14.832031 19.765625 14.199219 C 19.53125 13.882812 19.027344 13.566406 18.6875 13.566406 C 18.476562 13.566406 18.183594 13.671875 18.011719 13.753906 C 17.546875 14.050781 17.292969 14.367188 16.765625 14.8125 C 16.554688 15 15.605469 15.632812 15.648438 15.972656 C 15.648438 16.121094 15.984375 16.457031 16.113281 16.585938 C 16.703125 17.238281 17.230469 17.765625 17.800781 18.292969 C 18.054688 17.832031 18.5625 17.578125 18.921875 17.261719 Z M 15.5 15.382812 C 15.542969 15.253906 15.878906 15.128906 15.796875 15.042969 C 15.710938 15.171875 15.457031 15.234375 15.5 15.382812 Z M 14.234375 15.296875 C 14.171875 15.382812 14.320312 15.234375 14.234375 15.296875 Z M 15.4375 16.816406 C 15.351562 16.816406 15.269531 16.691406 15.183594 16.753906 C 15.226562 16.816406 15.375 16.902344 15.4375 16.816406 Z M 15.480469 16.878906 C 15.480469 16.902344 15.457031 16.859375 15.480469 16.878906 Z M 20.292969 21.820312 C 20.230469 21.800781 20.1875 21.585938 20.101562 21.671875 C 20.164062 21.695312 20.230469 21.863281 20.292969 21.820312 " fill-opacity="1" fill-rule="evenodd"/><path fill="rgb(27.839661%, 20.779419%, 22.749329%)" d="M 23.945312 24.585938 C 23.945312 24.4375 24.113281 24.226562 24.21875 24.058594 C 24.15625 24.035156 23.988281 24.183594 23.859375 24.183594 C 21.917969 26.378906 20.039062 29.167969 19.238281 32.839844 C 18.605469 35.773438 18.605469 39.53125 19.300781 41.917969 C 19.785156 43.605469 20.695312 46.140625 21.917969 47.914062 C 22.191406 48.273438 22.761719 49.117188 23.691406 50.003906 C 24.703125 50.996094 26.203125 52.03125 26.835938 52.578125 C 27.660156 53.273438 26.667969 53.613281 26.371094 53.570312 C 26.308594 53.570312 25.761719 53.273438 25.273438 52.875 C 22.804688 50.972656 21.199219 49.433594 19.617188 46.644531 C 15.859375 40.039062 16.765625 29.84375 21.9375 24.457031 C 22.148438 24.246094 22.382812 24.035156 22.550781 23.824219 C 22.742188 23.59375 22.890625 23.320312 23.078125 23.105469 C 23.332031 22.832031 23.902344 22.410156 24.324219 22.367188 C 24.410156 22.410156 24.410156 22.621094 24.34375 22.707031 C 24.535156 22.621094 24.578125 22.476562 24.726562 22.328125 C 24.9375 22.09375 25.296875 21.945312 25.402344 21.671875 C 25.441406 21.566406 25.402344 21.460938 25.464844 21.355469 C 25.550781 21.164062 25.78125 20.933594 26.035156 20.808594 C 26.121094 20.765625 26.265625 20.765625 26.351562 20.722656 C 26.605469 20.597656 26.6875 20.300781 26.835938 20.195312 C 27.003906 20.089844 27.257812 20.132812 27.511719 20.066406 C 28.1875 19.898438 28.441406 19.011719 29.265625 18.90625 C 29.75 18.84375 30.339844 19.054688 30.339844 19.457031 C 30.320312 19.773438 30.003906 19.835938 29.707031 19.921875 C 29.582031 19.941406 29.644531 20.132812 29.539062 20.171875 C 28.523438 20.597656 27.785156 21.3125 26.792969 21.777344 C 26.5 21.945312 26.414062 22.261719 26.183594 22.476562 C 25.675781 23.003906 24.9375 23.359375 24.386719 23.867188 C 24.410156 24.183594 24.070312 24.332031 23.945312 24.585938 Z M 22.296875 26.019531 C 22.59375 25.554688 22.996094 25.027344 23.246094 24.585938 C 22.890625 25.007812 22.488281 25.535156 22.296875 26.019531 " fill-opacity="1" fill-rule="evenodd"/></svg>